<svg width="246" height="135" viewBox="0 0 246 135" fill="none" xmlns="http://www.w3.org/2000/svg">
<path d="M128.68 88.829L128.881 23.9888L128.781 13.6506C128.781 11.2416 129.886 7.72862 135.617 7.42751C136.22 7.22677 136.823 7.22677 137.426 7.22677L246 15.7584V0H0V105.29C37.3976 104.286 55.9959 82.0037 93.6951 81.803C107.669 81.7026 118.828 84.7138 128.68 88.829Z" fill="url(#paint0_linear)"/>
<path d="M23.8971 126.769C49.702 125.665 64.9641 118.238 91.6727 115.227C103.42 113.922 111.654 113.119 124.004 113.821C125.51 113.922 126.916 114.022 128.322 114.122L128.422 88.8288C118.582 84.7135 107.437 81.8027 93.48 81.8027C55.9273 82.1038 37.3518 104.286 0 105.29V126.569C8.73551 127.472 16.6678 127.07 23.8971 126.769Z" fill="url(#paint1_linear)"/>
<path d="M23.8971 126.769C49.702 125.665 64.9641 118.238 91.6727 115.227C103.42 113.922 111.654 113.119 124.004 113.821C125.51 113.922 126.916 114.022 128.322 114.122L128.422 88.8288C118.582 84.7135 107.437 81.8027 93.48 81.8027C55.9273 82.1038 37.3518 104.286 0 105.29V126.569C8.73551 127.472 16.6678 127.07 23.8971 126.769Z" fill="#4F1646"/>
<path d="M245.798 126.568L144.587 127.371L135.851 127.472C130.63 127.572 128.421 124.762 128.421 122.252V114.223C127.016 114.122 125.509 114.022 124.104 113.922C111.753 113.219 103.52 114.022 91.7723 115.327C64.9633 118.338 49.8016 125.665 23.9968 126.87C16.667 127.171 8.83512 127.572 0.0996094 126.769V135H245.899V126.568H245.798Z" fill="url(#paint2_linear)"/>
<path opacity="0.32" d="M245.798 126.568L144.587 127.371L135.851 127.472C130.63 127.572 128.421 124.762 128.421 122.252V114.223C127.016 114.122 125.509 114.022 124.104 113.922C111.753 113.219 103.52 114.022 91.7723 115.327C64.9633 118.338 49.8016 125.665 23.9968 126.87C16.667 127.171 8.83512 127.572 0.0996094 126.769V135H245.899V126.568H245.798Z" fill="#6165D7"/>
<path d="M245.9 125.907L144.605 126.71L135.863 126.811C130.637 126.911 128.426 124.101 128.426 121.591V113.562C127.02 113.461 125.512 113.361 124.105 113.26C111.745 112.558 103.505 113.361 91.7476 114.666C64.9167 117.677 49.7426 125.004 23.9167 126.208C16.5809 126.51 8.74265 126.911 0 126.108V135.338H246V125.907H245.9Z" fill="#3F0F3E"/>
<path d="M131.836 122.755L132.137 23.4873L128.723 23.9892L128.522 88.8293L128.422 114.123V122.153C128.422 124.662 130.631 127.573 135.852 127.372L144.588 127.272L136.957 127.372C134.145 127.372 131.836 125.365 131.836 122.755Z" fill="black"/>
<path d="M132.238 11.543C132.238 9.53554 133.643 8.02996 135.451 7.42773C129.728 7.72885 128.623 11.2419 128.623 13.6508L128.723 23.9891L132.137 23.4872L132.238 11.543Z" fill="#1A1B1D"/>
<path d="M132.137 23.4873L131.836 122.755C131.836 125.264 134.145 127.372 136.856 127.372L144.487 127.272L245.699 126.469V117.636H209.251C207.945 117.636 206.941 116.632 206.941 115.428L207.142 81.7029C207.142 80.5988 207.945 79.7959 209.05 79.5951C209.451 79.3944 209.853 79.294 210.255 79.294L245.699 80.2977V75.4799L209.953 74.2754C208.648 74.2754 207.644 73.1713 207.644 71.9669L207.845 38.1416C207.845 37.0375 208.749 36.1341 209.853 36.0338C210.154 35.833 210.556 35.7327 211.058 35.833L239.976 37.6397V37.439L240.98 37.5394V37.7401L245.799 38.0412V31.1156L132.137 23.4873ZM200.314 61.7289H200.013V71.3646C200.013 72.4687 199.109 73.3721 198.005 73.4724C197.704 73.6732 197.302 73.7735 196.9 73.6732L145.19 71.9669C143.785 71.9669 142.68 70.8628 142.68 69.5579L142.78 34.0263C142.78 32.9223 143.684 32.0189 144.889 31.8182C145.291 31.6174 145.692 31.517 146.194 31.517L170.995 33.0226V32.8219L172.1 32.9222V33.123L198.005 34.7289C199.31 34.8293 200.314 35.833 200.314 37.1379L200.214 60.5245H200.515L200.314 61.7289ZM142.379 115.428L142.479 79.9966C142.479 78.8925 143.282 77.9892 144.487 77.7884C144.889 77.5877 145.391 77.4873 145.893 77.4873L197.603 78.9929C198.909 78.9929 199.913 80.097 199.913 81.3014L199.812 104.086H200.214V105.09H199.812L199.712 115.227C199.712 116.331 198.909 117.235 197.804 117.435C197.402 117.636 197.001 117.736 196.599 117.736H144.889C143.483 117.736 142.379 116.733 142.379 115.428Z" fill="#1A1B1D"/>
<path d="M137.358 7.22688C136.756 7.1265 136.053 7.22688 135.551 7.42762C133.643 7.92948 132.338 9.53543 132.338 11.5429V23.5875L245.799 31.1154V15.7585L137.358 7.22688ZM142.278 18.4685C140.873 18.3681 139.768 17.2641 139.768 15.9592C139.768 14.6544 140.873 13.751 142.278 13.8514C143.684 13.9518 144.788 15.0559 144.788 16.3607C144.788 17.5652 143.684 18.5689 142.278 18.4685ZM153.022 19.1711C151.616 19.0707 150.512 17.9667 150.612 16.7622C150.612 15.4574 151.717 14.554 153.122 14.6544C154.528 14.7548 155.532 15.8588 155.532 17.0633C155.532 18.3681 154.428 19.2715 153.022 19.1711ZM163.665 19.9741C162.36 19.8737 161.255 18.7696 161.255 17.5652C161.255 16.3607 162.36 15.357 163.665 15.4574C164.971 15.5577 166.075 16.6618 166.075 17.8663C166.075 19.0707 164.971 20.0745 163.665 19.9741Z" fill="#2E2E33"/>
<path d="M142.278 13.8514C140.872 13.751 139.768 14.6543 139.768 15.9592C139.768 17.264 140.872 18.3681 142.278 18.4685C143.683 18.5688 144.788 17.6655 144.788 16.3606C144.788 15.0558 143.683 13.9517 142.278 13.8514Z" fill="white"/>
<path d="M153.022 14.6541C151.616 14.5537 150.512 15.4571 150.512 16.7619C150.512 18.0667 151.616 19.1708 152.922 19.1708C154.327 19.2712 155.432 18.3678 155.432 17.063C155.532 15.8585 154.428 14.7545 153.022 14.6541Z" fill="white"/>
<path d="M163.666 15.4568C162.36 15.3565 161.256 16.2598 161.256 17.5646C161.256 18.7691 162.36 19.8732 163.666 19.9736C164.971 20.0739 166.075 19.1706 166.075 17.8657C166.075 16.6613 164.971 15.5572 163.666 15.4568Z" fill="white"/>
<path d="M196.599 117.736C197.001 117.736 197.403 117.636 197.804 117.435C197.704 117.435 197.503 117.435 197.403 117.435H145.692C144.287 117.435 143.182 116.431 143.182 115.126V104.487V103.483L143.283 79.6952C143.283 78.8922 143.785 78.1896 144.487 77.7881C143.383 77.9888 142.58 78.8922 142.479 79.9963L142.379 115.427C142.379 116.732 143.483 117.736 144.889 117.736H196.599Z" fill="black"/>
<path d="M143.282 79.6953L143.182 103.483L199.711 103.985L199.812 81.2008C199.812 79.9964 198.808 78.8923 197.502 78.8923L145.792 77.3867C145.29 77.3867 144.788 77.4871 144.387 77.6878C143.784 78.1897 143.282 78.8923 143.282 79.6953ZM195.293 99.87L149.507 99.2678V95.2529L195.293 95.9555V99.87ZM195.293 93.8477L149.608 93.0447V81.7027L195.394 82.9072L195.293 93.8477Z" fill="#2E2E33"/>
<path d="M143.182 104.487V115.127C143.182 116.432 144.286 117.435 145.692 117.435H197.402C197.502 117.435 197.703 117.435 197.804 117.435C198.908 117.235 199.711 116.331 199.711 115.227L199.812 105.09L143.182 104.487ZM149.407 107.8C149.407 107.699 149.507 107.599 149.608 107.599L164.167 107.699C164.267 107.699 164.368 107.8 164.368 107.9V109.606C164.368 109.707 164.267 109.807 164.167 109.807L149.608 109.707C149.507 109.707 149.407 109.606 149.407 109.506V107.8ZM177.722 113.521C177.722 113.621 177.622 113.722 177.521 113.722L149.507 113.621C149.407 113.621 149.307 113.521 149.307 113.42V111.714C149.307 111.614 149.407 111.513 149.507 111.513L177.521 111.614C177.622 111.614 177.722 111.714 177.722 111.814V113.521Z" fill="#2E2E33"/>
<path d="M143.182 103.483V104.487L199.711 104.989H200.113V104.086H199.711L143.182 103.483Z" fill="white"/>
<path d="M149.607 93.0442L195.293 93.8471L195.394 82.9066L149.607 81.7021V93.0442Z" fill="black"/>
<path d="M149.508 99.2678L195.294 99.87V95.9555L149.608 95.2529L149.508 99.2678Z" fill="black"/>
<path d="M149.507 109.706L164.067 109.807C164.167 109.807 164.267 109.706 164.267 109.606V107.9C164.267 107.799 164.167 107.699 164.067 107.699L149.507 107.599C149.407 107.599 149.307 107.699 149.307 107.799V109.506C149.407 109.606 149.507 109.706 149.507 109.706Z" fill="#2E2E33"/>
<path d="M149.507 109.706L164.067 109.807C164.167 109.807 164.267 109.706 164.267 109.606V107.9C164.267 107.799 164.167 107.699 164.067 107.699L149.507 107.599C149.407 107.599 149.307 107.699 149.307 107.799V109.506C149.407 109.606 149.507 109.706 149.507 109.706Z" fill="url(#paint3_linear)"/>
<path d="M177.521 111.613L149.507 111.513C149.407 111.513 149.307 111.613 149.307 111.713V113.42C149.307 113.52 149.407 113.621 149.507 113.621L177.521 113.721C177.622 113.721 177.722 113.621 177.722 113.52V111.814C177.722 111.713 177.622 111.613 177.521 111.613Z" fill="black"/>
<path d="M145.793 71.8663C144.387 71.8663 143.283 70.7623 143.283 69.4574V59.4203V58.4165L143.383 34.0262C143.383 33.2232 143.885 32.4203 144.588 32.1191C143.383 32.2195 142.479 33.1229 142.479 34.3273L142.379 69.8589C142.379 71.1637 143.483 72.2678 144.889 72.2678L196.599 73.9742C197.001 73.9742 197.403 73.8738 197.704 73.7734C197.603 73.7734 197.503 73.7734 197.403 73.7734L145.793 71.8663Z" fill="black"/>
<path d="M171.799 59.6209L200.014 60.8253L200.114 37.4387C200.114 36.2342 199.11 35.1302 197.805 35.0298L171.899 33.4238L171.799 59.6209ZM195.696 57.2119L191.278 57.0112L191.378 37.8402L195.796 38.1413L195.696 57.2119ZM183.948 37.4387L188.366 37.7398L188.266 57.0112L183.848 56.8104L183.948 45.4684V37.4387ZM180.836 56.6097L176.317 56.409L176.418 37.0372L180.936 37.3383L180.836 56.6097Z" fill="#2E2E33"/>
<path d="M143.483 33.926L143.383 58.3163L170.694 59.4204L170.794 33.2233L145.993 31.7178C145.491 31.7178 145.09 31.8181 144.688 32.0189C143.985 32.4204 143.483 33.123 143.483 33.926ZM165.874 56.2085L149.709 55.5059V50.8888L165.874 51.6917V56.2085ZM165.874 49.1825L149.709 48.3795V35.3312L165.874 36.3349V49.1825Z" fill="#2E2E33"/>
<path d="M143.383 59.4199V69.4571C143.383 70.7619 144.487 71.866 145.893 71.866L197.603 73.5723C197.704 73.5723 197.804 73.5723 197.904 73.5723C199.009 73.472 199.913 72.5686 199.913 71.4645V61.8288L143.383 59.4199ZM149.608 62.9329C149.608 62.8326 149.709 62.7322 149.809 62.7322L157.741 63.0333C157.842 63.0333 157.942 63.1337 157.942 63.234V64.9404C157.942 65.0407 157.842 65.1411 157.741 65.0407L149.809 64.7396C149.709 64.7396 149.608 64.6393 149.608 64.5389V62.9329ZM169.389 69.2564C169.389 69.3567 169.288 69.4571 169.188 69.3567L149.608 68.6541C149.508 68.6541 149.407 68.5537 149.407 68.4534V66.7471C149.407 66.6467 149.508 66.5463 149.608 66.5463L169.188 67.2489C169.288 67.2489 169.389 67.3493 169.389 67.4497V69.2564Z" fill="#2E2E33"/>
<path d="M171.799 59.6205V60.2227H170.695V59.5201L143.384 58.416H143.283V59.4197H143.384L199.913 61.7283H200.315V60.8249L199.913 60.7246L171.799 59.6205Z" fill="white"/>
<path d="M170.693 59.5206V60.2232H171.798V59.621L171.898 33.3236V33.1228L170.794 33.0225V33.3236L170.693 59.5206Z" fill="white"/>
<path d="M149.709 48.3796L165.875 49.1826L165.975 36.335L149.809 35.4316L149.709 48.3796Z" fill="black"/>
<path d="M149.709 55.506L165.875 56.2086V51.6919L149.709 50.9893V55.506Z" fill="black"/>
<path d="M149.709 64.8404L157.641 65.1416C157.741 65.1416 157.842 65.0412 157.842 65.0412V63.3349C157.842 63.2345 157.741 63.1341 157.641 63.1341L149.709 62.833C149.608 62.833 149.508 62.9334 149.508 63.0338V64.7401C149.508 64.7401 149.608 64.7401 149.709 64.8404Z" fill="#2E2E33"/>
<path d="M149.709 64.8404L157.641 65.1416C157.741 65.1416 157.842 65.0412 157.842 65.0412V63.3349C157.842 63.2345 157.741 63.1341 157.641 63.1341L149.709 62.833C149.608 62.833 149.508 62.9334 149.508 63.0338V64.7401C149.508 64.7401 149.608 64.7401 149.709 64.8404Z" fill="url(#paint4_linear)"/>
<path d="M169.288 67.3491L149.709 66.6465C149.608 66.6465 149.508 66.7469 149.508 66.8472V68.5535C149.508 68.6539 149.608 68.7543 149.709 68.7543L169.288 69.4569C169.389 69.4569 169.489 69.3565 169.489 69.3565V67.6502C169.389 67.4495 169.389 67.3491 169.288 67.3491Z" fill="black"/>
<path d="M176.316 56.4084V48.0776C177.019 48.0776 177.722 47.9772 178.525 47.7765C179.429 47.5757 180.132 47.375 180.734 47.0739V56.5088L180.835 37.1371L176.316 36.8359V56.4084Z" fill="white"/>
<path d="M188.365 43.9626L188.265 57.011L188.365 37.7396L183.947 37.4385V45.3678C184.55 44.9664 185.152 44.5649 185.855 44.3641C186.457 44.063 187.261 43.9626 188.365 43.9626Z" fill="white"/>
<path d="M191.277 57.0108L191.378 44.2636C192.683 44.5647 194.089 45.0666 195.796 45.8696L195.695 57.2116L195.796 38.141L191.378 37.8398L191.277 57.0108Z" fill="white"/>
<path d="M178.627 47.777C177.824 47.9778 177.02 47.9778 176.418 48.0782V56.409L180.936 56.6098V47.1748C180.233 47.3755 179.43 47.5763 178.627 47.777Z" fill="white"/>
<path d="M178.627 47.777C177.824 47.9778 177.02 47.9778 176.418 48.0782V56.409L180.936 56.6098V47.1748C180.233 47.3755 179.43 47.5763 178.627 47.777Z" fill="url(#paint5_linear)"/>
<path d="M188.266 56.9106L188.366 43.8623C187.362 43.8623 186.458 44.063 185.856 44.2638C185.153 44.5649 184.551 44.866 183.948 45.2675L183.848 56.6095L188.266 56.9106Z" fill="white"/>
<path d="M188.266 56.9106L188.366 43.8623C187.362 43.8623 186.458 44.063 185.856 44.2638C185.153 44.5649 184.551 44.866 183.948 45.2675L183.848 56.6095L188.266 56.9106Z" fill="url(#paint6_linear)"/>
<path d="M191.278 44.2637L191.178 57.0109L195.596 57.2116L195.696 45.8696C193.989 45.167 192.583 44.6652 191.278 44.2637Z" fill="white"/>
<path d="M191.278 44.2637L191.178 57.0109L195.596 57.2116L195.696 45.8696C193.989 45.167 192.583 44.6652 191.278 44.2637Z" fill="url(#paint7_linear)"/>
<path d="M210.054 117.435C208.749 117.435 207.745 116.431 207.745 115.227L207.945 81.502C207.945 80.699 208.347 79.9964 209.05 79.6953C207.945 79.8961 207.243 80.699 207.142 81.8031L206.941 115.528C206.941 116.732 207.945 117.736 209.251 117.736H245.699V117.435H210.054Z" fill="black"/>
<path d="M210.254 79.2939C209.752 79.2939 209.351 79.3943 209.049 79.5951C208.447 79.9966 207.945 80.6991 207.945 81.4018L207.744 115.127C207.744 116.331 208.748 117.335 210.054 117.335H245.698V105.391L207.744 105.089V104.086L245.698 104.487V100.472L238.067 100.372V93.6471L245.598 93.7475V87.7252C245.397 87.7252 245.196 87.8255 244.996 87.8255C243.389 88.1267 242.285 88.5281 241.381 88.8293C239.975 89.3311 238.77 89.7326 236.662 89.7326C235.156 89.7326 234.151 89.4315 233.348 89.2307C232.244 88.9296 231.44 88.7289 230.035 89.1304C228.729 89.4315 228.127 89.9333 227.424 90.3348C226.721 90.8367 226.018 91.3386 224.713 91.4389C223.006 91.5393 221.902 90.9371 220.898 90.4352C219.994 89.9333 219.191 89.5319 218.187 89.6322C216.379 89.7326 214.672 91.4389 213.066 94.4501C212.965 94.6508 212.865 94.6508 212.664 94.6508C212.564 94.6508 212.564 94.6508 212.463 94.5504C212.263 94.4501 212.162 94.149 212.263 93.9482C214.07 90.636 215.978 88.8293 218.086 88.7289C219.391 88.6285 220.396 89.1304 221.299 89.6322C222.303 90.1341 223.207 90.6359 224.613 90.5356C225.717 90.4352 226.219 90.0337 226.822 89.5319C227.525 89.03 228.227 88.4278 229.734 88.1267C231.34 87.7252 232.344 88.0263 233.449 88.227C234.252 88.4278 235.256 88.6285 236.561 88.6285C238.569 88.6285 239.574 88.227 240.879 87.7252C241.883 87.3237 242.987 86.9222 244.594 86.6211C244.895 86.5207 245.096 86.5207 245.397 86.5207V80.2977L210.254 79.2939ZM242.385 112.015V113.621C242.385 113.721 242.285 113.721 242.285 113.721L214.17 113.621C214.07 113.621 213.969 113.521 213.969 113.521V111.915C213.969 111.814 214.07 111.814 214.17 111.814L242.285 111.915C242.385 111.915 242.385 112.015 242.385 112.015ZM229.734 108.201C229.834 108.201 229.934 108.301 229.934 108.301V109.907C229.934 110.008 229.834 110.008 229.734 110.008L214.17 109.907C214.07 109.907 213.969 109.807 213.969 109.707V108.101C213.969 108 214.07 108 214.17 108L229.734 108.201ZM222.805 85.0151C222.805 85.1155 222.705 85.1155 222.605 85.1155L214.17 84.9148C214.07 84.9148 213.969 84.8144 213.969 84.714V83.1081C213.969 83.0077 214.07 83.0077 214.17 83.0077L222.605 83.2084C222.705 83.2084 222.805 83.3088 222.805 83.4092V85.0151Z" fill="#2E2E33"/>
<path d="M207.846 104.086V105.09L245.8 105.491V104.487L207.846 104.086Z" fill="white"/>
<path d="M213.971 108.201V109.807C213.971 109.907 214.071 109.907 214.172 110.008L229.735 110.108C229.835 110.108 229.936 110.008 229.936 110.008V108.402C229.936 108.301 229.835 108.301 229.735 108.301L214.071 108.201C214.071 108.1 213.971 108.201 213.971 108.201Z" fill="#2E2E33"/>
<path d="M213.971 108.201V109.807C213.971 109.907 214.071 109.907 214.172 110.008L229.735 110.108C229.835 110.108 229.936 110.008 229.936 110.008V108.402C229.936 108.301 229.835 108.301 229.735 108.301L214.071 108.201C214.071 108.1 213.971 108.201 213.971 108.201Z" fill="url(#paint8_linear)"/>
<path d="M214.172 111.814C214.071 111.814 213.971 111.915 213.971 111.915V113.521C213.971 113.621 214.071 113.621 214.172 113.621L242.286 113.722C242.386 113.722 242.386 113.621 242.386 113.621V112.015C242.386 111.915 242.286 111.915 242.286 111.915L214.172 111.814Z" fill="black"/>
<path d="M244.996 87.0219C243.289 87.323 242.184 87.7245 241.281 88.126C239.975 88.6279 238.871 89.0294 236.963 89.0294C235.557 89.0294 234.654 88.8286 233.851 88.6279C232.746 88.3268 231.742 88.126 230.135 88.5275C228.629 88.8286 227.926 89.4308 227.224 89.9327C226.521 90.4346 226.019 90.836 225.015 90.9364C223.609 91.0368 222.705 90.5349 221.701 90.0331C220.797 89.5312 219.793 89.0294 218.488 89.1297C216.379 89.3305 214.371 91.0368 212.664 94.3491C212.564 94.5498 212.664 94.8509 212.865 94.9513C212.966 94.9513 212.966 94.9513 213.066 95.0517C213.267 95.0517 213.367 94.9513 213.468 94.8509C215.074 91.8398 216.781 90.2338 218.588 90.0331C219.593 89.9327 220.396 90.3342 221.299 90.836C222.304 91.3379 223.408 92.0405 225.115 91.8398C226.42 91.7394 227.123 91.2375 227.826 90.7357C228.428 90.2338 229.131 89.8323 230.437 89.5312C231.842 89.2301 232.646 89.4308 233.75 89.6316C234.654 89.8323 235.557 90.0331 237.064 90.1334C239.172 90.1334 240.377 89.732 241.783 89.2301C242.686 88.8286 243.791 88.4271 245.397 88.2264C245.598 88.2264 245.799 88.126 246 88.126V87.2227C245.498 86.9216 245.197 87.0219 244.996 87.0219Z" fill="#2E2E33"/>
<path d="M244.996 87.0219C243.289 87.323 242.184 87.7245 241.281 88.126C239.975 88.6279 238.871 89.0294 236.963 89.0294C235.557 89.0294 234.654 88.8286 233.851 88.6279C232.746 88.3268 231.742 88.126 230.135 88.5275C228.629 88.8286 227.926 89.4308 227.224 89.9327C226.521 90.4346 226.019 90.836 225.015 90.9364C223.609 91.0368 222.705 90.5349 221.701 90.0331C220.797 89.5312 219.793 89.0294 218.488 89.1297C216.379 89.3305 214.371 91.0368 212.664 94.3491C212.564 94.5498 212.664 94.8509 212.865 94.9513C212.966 94.9513 212.966 94.9513 213.066 95.0517C213.267 95.0517 213.367 94.9513 213.468 94.8509C215.074 91.8398 216.781 90.2338 218.588 90.0331C219.593 89.9327 220.396 90.3342 221.299 90.836C222.304 91.3379 223.408 92.0405 225.115 91.8398C226.42 91.7394 227.123 91.2375 227.826 90.7357C228.428 90.2338 229.131 89.8323 230.437 89.5312C231.842 89.2301 232.646 89.4308 233.75 89.6316C234.654 89.8323 235.557 90.0331 237.064 90.1334C239.172 90.1334 240.377 89.732 241.783 89.2301C242.686 88.8286 243.791 88.4271 245.397 88.2264C245.598 88.2264 245.799 88.126 246 88.126V87.2227C245.498 86.9216 245.197 87.0219 244.996 87.0219Z" fill="url(#paint9_linear)"/>
<path d="M238.168 93.6465V100.371L245.799 100.472V93.8472L238.168 93.6465Z" fill="black"/>
<path d="M222.705 83.3082L214.271 83.1074C214.171 83.1074 214.07 83.2078 214.07 83.2078V84.8137C214.07 84.9141 214.171 85.0145 214.271 85.0145L222.705 85.2152C222.806 85.2152 222.906 85.1149 222.906 85.1149V83.5089C222.806 83.3082 222.806 83.3082 222.705 83.3082Z" fill="black"/>
<path d="M210.856 74.0741C209.551 74.0741 208.547 72.97 208.547 71.7655V62.1299V61.1261L208.647 37.8399C208.647 37.0369 209.149 36.3343 209.752 36.0332C208.647 36.1336 207.744 37.0369 207.744 38.141L207.543 71.9663C207.543 73.1707 208.547 74.1745 209.852 74.2748L245.598 75.4793V75.1782L210.856 74.0741Z" fill="black"/>
<path d="M240.88 37.7402L240.779 62.5321L245.8 62.8332V59.9224L243.39 59.822L243.49 48.8815L245.8 48.9819V46.6733L243.49 46.573V41.0525L245.8 41.1529V38.0414L240.88 37.7402Z" fill="#2E2E33"/>
<path d="M208.749 37.9408L208.648 61.2271L239.875 62.5319L239.976 37.6397L211.058 35.833C210.657 35.833 210.255 35.9334 209.853 36.0338C209.15 36.4352 208.749 37.1378 208.749 37.9408ZM232.345 53.8999C230.839 56.8107 227.726 58.8181 224.111 58.6174C218.99 58.4167 214.874 54.201 214.874 49.1824C214.874 44.2642 219.091 40.4501 224.111 40.7512C229.132 41.0523 233.248 45.268 233.148 50.1862C233.148 51.491 232.847 52.7958 232.345 53.8999Z" fill="#2E2E33"/>
<path d="M220.094 49.4836C220.094 51.5914 221.901 53.4985 224.11 53.5988C225.717 53.6992 227.022 52.7959 227.725 51.5914C228.026 51.0895 228.126 50.4873 228.126 49.8851C228.126 47.7773 226.319 45.8702 224.11 45.7698C221.901 45.6695 220.094 47.3758 220.094 49.4836Z" fill="#2E2E33"/>
<path d="M208.547 62.2305V71.8662C208.547 73.0706 209.551 74.0743 210.856 74.1747L245.798 75.2788V63.736L208.547 62.2305ZM238.268 70.1598V71.7658C238.268 71.8662 238.167 71.8662 238.067 71.8662L214.873 71.0632C214.772 71.0632 214.672 70.9628 214.672 70.8624V69.2565C214.672 69.1561 214.772 69.1561 214.873 69.1561L238.167 69.9591C238.268 69.9591 238.268 70.0595 238.268 70.1598ZM233.448 66.2453V67.8513C233.448 67.9517 233.348 67.9517 233.247 67.9517L214.873 67.3494C214.772 67.3494 214.672 67.2491 214.672 67.1487V65.5427C214.672 65.4424 214.772 65.4424 214.873 65.4424L233.247 66.145C233.348 66.145 233.448 66.2453 233.448 66.2453Z" fill="#2E2E33"/>
<path d="M240.778 62.5314V63.234H239.774V62.5314L208.647 61.2266H208.547V62.2303L245.798 63.7359V62.8325L240.778 62.5314Z" fill="white"/>
<path d="M239.775 62.5314V63.234H240.779V62.5314L240.88 37.7396V37.4385H239.976V37.6392L239.775 62.5314Z" fill="white"/>
<path d="M214.873 65.4424C214.772 65.4424 214.672 65.5428 214.672 65.5428V67.1487C214.672 67.2491 214.772 67.3494 214.873 67.3494L233.247 68.0521C233.348 68.0521 233.448 67.9517 233.448 67.9517V66.3457C233.448 66.2454 233.348 66.145 233.348 66.145L214.873 65.4424Z" fill="#2E2E33"/>
<path d="M214.873 65.4424C214.772 65.4424 214.672 65.5428 214.672 65.5428V67.1487C214.672 67.2491 214.772 67.3494 214.873 67.3494L233.247 68.0521C233.348 68.0521 233.448 67.9517 233.448 67.9517V66.3457C233.448 66.2454 233.348 66.145 233.348 66.145L214.873 65.4424Z" fill="url(#paint10_linear)"/>
<path d="M214.873 69.1562C214.772 69.1562 214.672 69.2566 214.672 69.2566V70.8626C214.672 70.9629 214.772 71.0633 214.873 71.0633L238.167 71.8663C238.268 71.8663 238.268 71.7659 238.368 71.7659V70.16C238.368 70.0596 238.268 70.0596 238.268 69.9592L214.873 69.1562Z" fill="black"/>
<path d="M243.49 41.0518V46.5722L245.8 46.6726V41.1521L243.49 41.0518Z" fill="black"/>
<path d="M243.489 48.8809L243.389 59.8214L245.798 59.9218V48.9812L243.489 48.8809Z" fill="black"/>
<path d="M224.11 40.751L224.01 45.7696C226.219 45.8699 228.026 47.777 228.026 49.8848C228.026 50.487 227.825 51.0893 227.624 51.5911L232.243 53.8997C232.846 52.7956 233.147 51.4908 233.147 50.1859C233.247 45.2677 229.231 41.0521 224.11 40.751Z" fill="white"/>
<path d="M227.725 51.5912C227.123 52.896 225.717 53.699 224.111 53.5986C221.902 53.4983 220.094 51.6916 220.094 49.4834C220.094 47.3756 221.902 45.6693 224.111 45.7696V40.7511C219.09 40.4499 214.873 44.2641 214.873 49.1823C214.873 54.1005 218.99 58.4165 224.111 58.6172C227.725 58.818 230.938 56.8105 232.344 53.8998L227.725 51.5912Z" fill="#2E2E33"/>
<path d="M227.725 51.5912C227.123 52.896 225.717 53.699 224.111 53.5986C221.902 53.4983 220.094 51.6916 220.094 49.4834C220.094 47.3756 221.902 45.6693 224.111 45.7696V40.7511C219.09 40.4499 214.873 44.2641 214.873 49.1823C214.873 54.1005 218.99 58.4165 224.111 58.6172C227.725 58.818 230.938 56.8105 232.344 53.8998L227.725 51.5912Z" fill="url(#paint11_linear)"/>
<path d="M227.727 51.5908L232.345 53.8994L227.727 51.5908Z" fill="white"/>
<path d="M227.727 51.5908L232.345 53.8994L227.727 51.5908Z" fill="url(#paint12_linear)"/>
<path d="M107.939 88.93L106.132 88.6289C106.232 87.4244 106.132 86.2199 105.931 85.1158L107.537 84.5136C108.039 84.3129 108.24 83.811 108.039 83.4095L107.638 82.2051C107.437 81.7032 106.935 81.5025 106.533 81.6028L104.927 82.2051C104.425 81.101 103.722 80.0973 103.019 79.1939L104.123 77.8891C104.425 77.4876 104.425 76.9857 104.023 76.5842L103.019 75.6809C102.617 75.3798 102.115 75.3798 101.714 75.7813L100.609 77.0861C99.605 76.3835 98.5005 75.7813 97.2956 75.3798L97.5968 73.6735C97.6972 73.1716 97.396 72.6697 96.894 72.5694L95.4883 72.2683C94.9862 72.1679 94.4842 72.469 94.3838 72.9709L94.0825 74.6772C92.7772 74.5768 91.4719 74.5768 90.267 74.7775L89.6646 73.0712C89.4638 72.5694 88.9617 72.2683 88.3593 72.469L86.9536 72.8705C86.4515 73.0712 86.1503 73.5731 86.3511 74.0749L86.9536 75.8816C85.7487 76.3835 84.6442 77.0861 83.7405 77.9894L82.2344 76.6846C81.8327 76.2831 81.1299 76.3835 80.7283 76.785L79.7242 77.8891C79.3225 78.2906 79.423 78.8928 79.8246 79.2943L81.4311 80.5991C80.7283 81.6028 80.1258 82.8073 79.8246 84.0117L77.716 83.3091C77.1136 83.2088 76.6115 83.5099 76.5111 84.1121L76.3103 85.5173C76.2099 86.0192 76.6115 86.521 77.214 86.6214L79.423 87.0229C79.423 88.3277 79.5234 89.5322 79.8246 90.7367L77.716 91.4393C77.214 91.64 76.9128 92.1419 77.1136 92.7441L77.6156 94.0489C77.8164 94.5508 78.4189 94.8519 78.9209 94.6512L81.1299 93.8482C81.7323 94.9523 82.5356 95.8556 83.3389 96.759L81.8327 98.4653C81.4311 98.8668 81.5315 99.469 81.9332 99.7701L83.0376 100.673C83.4393 100.975 84.1421 100.874 84.4434 100.473L85.9495 98.7664C86.9536 99.3686 88.0581 99.8705 89.263 100.172L88.8613 102.279C88.7609 102.781 89.1625 103.283 89.6646 103.283L91.0703 103.484C91.5723 103.584 92.0744 103.183 92.1748 102.681L92.5764 100.573C93.7813 100.573 94.9862 100.473 96.0907 100.172L96.7936 102.079C96.9944 102.581 97.4964 102.781 97.9985 102.581L99.3038 102.079C99.8058 101.878 100.007 101.376 99.9062 100.874L99.2034 98.9671C100.207 98.4653 101.212 97.7627 102.015 96.9597L103.421 98.3649C103.822 98.666 104.324 98.5657 104.625 98.2645L105.429 97.2608C105.73 96.8593 105.73 96.3575 105.328 96.0564L103.923 94.8519C104.525 93.9486 105.027 92.8445 105.429 91.7404L107.236 92.0415C107.738 92.1419 108.14 91.8407 108.24 91.3389L108.441 90.0341C108.642 89.4318 108.34 88.93 107.939 88.93ZM91.5723 96.759C86.3511 95.956 82.7364 91.1381 83.6401 85.9188C84.6442 80.6995 89.765 77.3872 94.9862 78.4913C100.007 79.5954 103.22 84.4132 102.316 89.2311C101.412 94.1493 96.6932 97.4616 91.5723 96.759Z" fill="#97A6B7"/>
<path d="M90.1675 72.4691L88.8622 72.168L88.2598 73.2721L90.1675 72.4691Z" fill="#97A6B7"/>
<path d="M102.518 75.2793L103.923 75.5804L103.722 76.6845L102.518 75.2793Z" fill="#97A6B7"/>
<path d="M107.035 81.5029L108.441 81.804L107.939 82.607L107.035 81.5029Z" fill="#97A6B7"/>
<path d="M108.039 88.9297L109.445 89.3312L108.842 89.9334L108.039 88.9297Z" fill="#97A6B7"/>
<path d="M103.723 98.4655L105.128 98.9674L105.43 97.8633L103.723 98.4655Z" fill="#97A6B7"/>
<path d="M97.2949 102.681L98.4998 103.183L98.801 102.279L97.2949 102.681Z" fill="#97A6B7"/>
<path d="M90.4678 103.785L89.3633 103.284L90.6686 102.079L90.4678 103.785Z" fill="#97A6B7"/>
<path d="M84.5436 101.376L83.2383 100.875L84.5436 99.7705V101.376Z" fill="#97A6B7"/>
<path d="M81.5312 76.1826L82.937 76.4837L82.2341 77.3871L81.5312 76.1826Z" fill="#97A6B7"/>
<path d="M76.7129 86.521L78.0182 86.9224L78.1186 85.8184L76.7129 86.521Z" fill="#97A6B7"/>
<path d="M78.0176 94.6515L79.2225 95.053L79.5237 94.25L78.0176 94.6515Z" fill="#97A6B7"/>
<path d="M109.344 89.2311L107.537 88.93C107.637 87.7255 107.537 86.521 107.336 85.417L109.043 84.8147C109.545 84.614 109.746 84.1121 109.545 83.7106L109.144 82.4058C108.943 81.9039 108.441 81.7032 108.039 81.8036L106.433 82.4058C105.931 81.3017 105.228 80.298 104.424 79.3946L105.529 78.0898C105.83 77.6883 105.83 77.0861 105.428 76.785L104.424 75.8816C104.023 75.5805 103.42 75.5805 103.119 75.982L102.015 77.2868C101.011 76.5842 99.906 75.982 98.7011 75.5805L99.0024 73.8742C99.1028 73.3723 98.8016 72.8705 98.1991 72.7701L96.8938 72.2683C96.3918 72.1679 95.8897 72.469 95.7893 72.9709L95.3877 74.6772C94.0824 74.5768 92.7771 74.5768 91.4718 74.8779L90.8693 73.1716C90.6685 72.6697 90.066 72.3686 89.564 72.469L88.1583 72.8705C87.6562 73.0712 87.355 73.5731 87.5558 74.0749L88.2587 75.8816C87.0538 76.3835 85.9493 77.1865 84.9452 77.9894L83.4391 76.6846C83.0375 76.2831 82.3346 76.3835 81.933 76.785L80.9289 77.8891C80.5273 78.2906 80.6277 78.8928 81.0293 79.2943L82.6358 80.5991C81.933 81.6028 81.3305 82.8073 80.9289 84.1121L78.8203 83.7106C78.2179 83.6103 77.7158 83.9114 77.6154 84.5136L77.3142 85.9188C77.2138 86.4207 77.6154 87.0229 78.2179 87.1233L80.4269 87.5248C80.4269 88.8296 80.5273 90.0341 80.8285 91.2385L78.7199 91.9411C78.2179 92.1419 77.9167 92.7441 78.1175 93.246L78.6195 94.5508C78.8203 95.0526 79.4228 95.3538 79.9248 95.153L82.1338 94.35C82.7362 95.4541 83.5395 96.4578 84.4432 97.2608L82.9371 98.9671C82.5354 99.3686 82.6358 99.9709 83.0375 100.272L84.142 101.175C84.5436 101.476 85.2464 101.376 85.5477 100.975L87.0538 99.2683C88.0579 99.8705 89.2628 100.372 90.4677 100.673L90.066 102.882C89.9656 103.383 90.3673 103.885 90.8693 103.885L92.275 104.086C92.7771 104.186 93.2791 103.785 93.3795 103.283L93.7811 101.175C94.986 101.175 96.1909 101.075 97.2954 100.774L97.9983 102.681C98.1991 103.183 98.7011 103.384 99.2032 103.183L100.508 102.681C101.011 102.48 101.211 101.978 101.111 101.476L100.408 99.5694C101.412 99.0675 102.416 98.3649 103.32 97.5619L104.826 98.8668C105.228 99.1679 105.73 99.0675 106.031 98.7664L106.834 97.7627C107.135 97.3612 107.135 96.8593 106.734 96.4578L105.228 95.2534C105.83 94.2497 106.433 93.246 106.734 92.1419L108.541 92.443C109.043 92.5433 109.445 92.2422 109.545 91.7404L109.746 90.4355C110.047 89.8333 109.746 89.3315 109.344 89.2311ZM92.8775 97.1605C87.5558 96.3575 83.9411 91.4393 84.9452 86.2199C85.9493 81.0006 91.0701 77.6883 96.3918 78.7924C101.412 79.8965 104.726 84.7144 103.722 89.6326C102.818 94.5508 97.9983 97.9634 92.8775 97.1605Z" fill="#D8DEE8"/>
<path d="M63.0561 77.2871L61.2487 76.986C61.3491 75.7815 61.2487 74.577 61.0479 73.473L62.6544 72.8707C63.1565 72.67 63.3573 72.1681 63.1565 71.7666L62.7548 70.5622C62.554 70.0603 62.052 69.8596 61.6503 69.9599L60.0438 70.5622C59.5418 69.4581 58.8389 68.4544 58.1361 67.551L59.2406 66.2462C59.5418 65.8447 59.5418 65.3428 59.1401 64.9414L58.1361 64.038C57.7344 63.7369 57.2324 63.7369 56.8308 64.1384L55.7263 65.4432C54.7222 64.7406 53.6177 64.1384 52.4128 63.7369L52.714 62.0306C52.8144 61.5287 52.5132 61.0269 52.0112 60.9265L50.6054 60.6254C50.1034 60.525 49.6014 60.8261 49.501 61.328L49.1997 63.0343C47.8944 62.9339 46.5891 62.9339 45.3842 63.1347L44.7818 61.2276C44.581 60.7257 44.0789 60.4246 43.4765 60.6254L42.1712 61.0269C41.6691 61.2276 41.3679 61.7295 41.5687 62.2313L42.1712 64.038C40.9663 64.5399 39.8618 65.2425 38.9581 66.1458L37.452 64.841C37.0503 64.4395 36.3475 64.5399 35.9459 64.9414L34.9418 66.0455C34.5401 66.4469 34.6406 67.0492 35.0422 67.4507L36.6487 68.7555C35.9459 69.7592 35.3434 70.9637 35.0422 72.1681L32.9336 71.7666C32.3312 71.6663 31.8291 71.9674 31.7287 72.5696L31.4275 73.9748C31.3271 74.4767 31.7287 74.9785 32.3312 75.0789L34.5401 75.4804C34.5401 76.7852 34.6405 77.9897 34.9418 79.1942L32.8332 79.8968C32.3312 80.0975 32.0299 80.5994 32.2308 81.2016L32.7328 82.5064C32.9336 83.0083 33.5361 83.3094 34.0381 83.1087L36.1467 82.3057C36.7491 83.4098 37.5524 84.3131 38.3557 85.2165L36.8495 86.9228C36.4479 87.3243 36.5483 87.9265 36.9499 88.2276L38.0544 89.131C38.4561 89.4321 39.1589 89.3317 39.4601 88.9302L40.9663 87.2239C41.9703 87.8261 43.0748 88.328 44.2797 88.6291L43.8781 90.7369C43.7777 91.2388 44.1793 91.7406 44.6814 91.7406L46.0871 91.9414C46.5891 92.0417 47.0912 91.6403 47.1916 91.1384L47.5932 89.0306C48.7981 89.0306 50.003 88.9302 51.1075 88.6291L51.8103 90.5362C52.0112 91.038 52.5132 91.2388 53.0152 91.038L54.3205 90.5362C54.8226 90.3354 55.0234 89.8336 54.923 89.3317L54.2201 87.525C55.2242 87.0231 56.2283 86.3205 57.0316 85.5176L58.5377 86.722C58.9393 87.0232 59.4414 86.9228 59.7426 86.6217L60.5459 85.6179C60.8471 85.2165 60.8471 84.7146 60.4454 84.4135L59.0397 83.209C59.6422 82.3057 60.1442 81.2016 60.5459 80.0975L62.3532 80.3986C62.8552 80.499 63.2569 80.1979 63.3573 79.696L63.5581 78.3912C63.8593 77.8893 63.5581 77.3875 63.0561 77.2871ZM46.7899 85.1161C41.5687 84.3131 37.954 79.4953 38.8577 74.2759C39.8618 69.0566 44.9826 65.7443 50.2038 66.8484C55.2242 67.9525 58.4373 72.7704 57.5336 77.5882C56.6299 82.5064 51.9108 85.9191 46.7899 85.1161Z" fill="#97A6B7"/>
<path d="M45.2847 60.8257L44.0798 60.625L43.377 61.6287L45.2847 60.8257Z" fill="#97A6B7"/>
<path d="M57.6348 63.7363L59.1409 64.0374L58.9401 65.1415L57.6348 63.7363Z" fill="#97A6B7"/>
<path d="M62.252 69.96L63.6577 70.2611L63.1556 70.9637L62.252 69.96Z" fill="#97A6B7"/>
<path d="M63.1562 77.3877L64.6624 77.6888L63.9595 78.3914L63.1562 77.3877Z" fill="#97A6B7"/>
<path d="M58.8398 86.9223L60.2456 87.3238L60.6472 86.2197L58.8398 86.9223Z" fill="#97A6B7"/>
<path d="M52.5137 91.1386L53.7186 91.5401L54.0198 90.6367L52.5137 91.1386Z" fill="#97A6B7"/>
<path d="M45.6846 92.1419L44.5801 91.7404L45.8854 90.4355L45.6846 92.1419Z" fill="#97A6B7"/>
<path d="M39.7623 89.7331L38.457 89.2313L39.6619 88.2275L39.7623 89.7331Z" fill="#97A6B7"/>
<path d="M36.75 64.54L38.1557 64.8411L37.3525 65.7445L36.75 64.54Z" fill="#97A6B7"/>
<path d="M31.9297 74.8776L33.1346 75.3795L33.235 74.2754L31.9297 74.8776Z" fill="#97A6B7"/>
<path d="M33.2344 83.0081L34.4393 83.51L34.6401 82.707L33.2344 83.0081Z" fill="#97A6B7"/>
<path d="M64.462 77.6885L62.6546 77.3874C62.755 76.183 62.6546 74.9785 62.4538 73.8744L64.1607 73.2722C64.6628 73.0714 64.8636 72.5696 64.6628 72.1681L64.2611 70.8633C64.0603 70.3614 63.5583 70.1607 63.1567 70.261L61.5501 70.8633C61.0481 69.7592 60.3452 68.7555 59.542 67.8521L60.6464 66.5473C60.9477 66.1458 60.9477 65.5436 60.546 65.2424L59.542 64.3391C59.1403 64.038 58.5379 64.038 58.2366 64.4395L57.1322 65.7443C56.1281 65.0417 55.0236 64.4395 53.8187 64.038L54.1199 62.3317C54.2203 61.8298 53.9191 61.3279 53.3166 61.2276L51.9109 60.9265C51.4089 60.8261 50.9069 61.1272 50.8064 61.6291L50.5052 63.3354C49.1999 63.235 47.8946 63.235 46.5893 63.5361L45.9869 61.8298C45.786 61.3279 45.1836 61.0268 44.6815 61.1272L43.3762 61.2276C42.8742 61.4283 42.573 61.9302 42.7738 62.432L43.4766 64.2387C42.2717 64.7406 41.1673 65.5436 40.1632 66.3465L38.6571 65.0417C38.2554 64.6402 37.5526 64.7406 37.1509 65.1421L36.1469 66.2462C35.7452 66.6476 35.8456 67.2499 36.2473 67.6514L37.8538 68.9562C37.1509 69.9599 36.5485 71.1644 36.1469 72.4692L34.0383 72.0677C33.4358 71.9674 32.9338 72.2685 32.8334 72.8707L32.6326 74.2759C32.5322 74.7778 32.9338 75.38 33.5362 75.4804L35.7452 75.8818C35.7452 77.1867 35.8456 78.3911 36.1469 79.5956L33.9379 80.2982C33.4358 80.4989 33.1346 81.1012 33.3354 81.603L33.8375 82.9079C34.0383 83.4097 34.6407 83.7108 35.1428 83.5101L37.3517 82.7071C37.9542 83.8112 38.7575 84.8149 39.6611 85.6179L38.155 87.3242C37.7534 87.7257 37.8538 88.3279 38.2554 88.6291L39.3599 89.5324C39.7615 89.8335 40.4644 89.7332 40.7656 89.3317L42.2717 87.6253C43.2758 88.2276 44.4807 88.7294 45.6856 89.0305L45.284 91.2387C45.1836 91.7406 45.5852 92.2424 46.0873 92.2424L47.493 92.4432C47.995 92.5436 48.4971 92.1421 48.5975 91.6402L48.9991 89.5324C50.204 89.5324 51.4089 89.432 52.5134 89.1309L53.2162 91.038C53.4171 91.5398 53.9191 91.7406 54.4211 91.5398L55.7264 91.038C56.2285 90.8372 56.4293 90.3354 56.3289 89.8335L55.626 87.9265C56.6301 87.4246 57.6342 86.722 58.5379 85.919L60.044 87.2239C60.4456 87.525 60.9477 87.4246 61.2489 87.1235L62.0522 86.1198C62.3534 85.7183 62.3534 85.2164 61.9518 84.8149L60.4456 83.6105C61.0481 82.6068 61.6505 81.603 61.9518 80.4989L63.7591 80.8001C64.2611 80.9004 64.6628 80.5993 64.7632 80.0975L64.964 78.7926C65.2652 78.1904 64.964 77.7889 64.462 77.6885ZM48.0954 85.6179C42.7738 84.8149 39.1591 79.8967 40.1632 74.6774C41.1673 69.4581 46.2881 66.1458 51.6097 67.2499C56.6301 68.354 59.9436 73.1718 58.9395 78.09C57.9354 83.0082 53.2162 86.3205 48.0954 85.6179Z" fill="#D8DEE8"/>
<path d="M68.5785 103.584C62.052 103.584 58.9393 103.584 54.7222 106.395C50.4046 109.205 39.5605 109.205 39.5605 109.205C39.5605 109.205 44.3801 99.8706 45.3842 84.5138C46.3883 69.1569 52.9148 69.2573 68.5785 69.2573C84.2422 69.2573 90.7687 68.9561 91.7728 84.4134C92.7769 99.8706 97.5965 109.105 97.5965 109.105C97.5965 109.105 86.7524 109.105 82.4348 106.294C78.1173 103.584 75.105 103.584 68.5785 103.584Z" fill="url(#paint13_linear)"/>
<path d="M87.6548 108.603C80.7266 122.153 71.3886 123.659 68.6776 123.759C68.6776 123.759 68.778 123.759 68.5772 123.759C68.3764 123.759 68.4768 123.759 68.4768 123.759C65.9666 123.659 59.44 122.655 53.2147 114.625C51.9094 112.919 50.6041 110.912 49.3992 108.603C41.3666 92.8447 47.1903 84.7146 47.1903 84.7146L68.3764 84.6143H68.4768H68.5772H77.6139H89.8637C89.8637 84.6143 95.587 92.7444 87.6548 108.603Z" fill="#BE1622"/>
<path d="M68.4776 87.7257C80.3447 87.7257 89.9649 86.5124 89.9649 85.0157C89.9649 83.519 80.3447 82.3057 68.4776 82.3057C56.6104 82.3057 46.9902 83.519 46.9902 85.0157C46.9902 86.5124 56.6104 87.7257 68.4776 87.7257Z" fill="#1A1B1D"/>
<path opacity="0.15" d="M90.0654 84.915C90.0654 86.1195 85.1454 87.0228 78.0165 87.4243C79.1209 90.5359 80.2254 95.8556 75.6067 98.8667C70.285 102.279 53.2156 107.298 53.1152 114.625C59.3405 122.655 65.7667 123.659 68.3773 123.759C68.3773 123.759 68.2769 123.759 68.4777 123.759C68.6785 123.759 68.5781 123.759 68.5781 123.759C71.3895 123.659 80.7275 122.153 87.5552 108.603C94.7846 94.35 90.8687 86.3202 90.0654 84.915Z" fill="#1A1B1D"/>
<path d="M33.4352 65.7434C39.646 65.7434 44.6809 59.3173 44.6809 51.3903C44.6809 43.4632 39.646 37.0371 33.4352 37.0371C27.2243 37.0371 22.1895 43.4632 22.1895 51.3903C22.1895 59.3173 27.2243 65.7434 33.4352 65.7434Z" fill="#1A1B1D"/>
<path d="M100.306 65.7434C106.517 65.7434 111.552 59.3173 111.552 51.3903C111.552 43.4632 106.517 37.0371 100.306 37.0371C94.0954 37.0371 89.0605 43.4632 89.0605 51.3903C89.0605 59.3173 94.0954 65.7434 100.306 65.7434Z" fill="#1A1B1D"/>
<path d="M106.331 49.8851C106.331 67.7513 88.6591 82.2048 66.8706 82.2048C63.5571 82.2048 60.2436 81.9037 57.131 81.2011C40.0616 77.6881 27.4102 64.9409 27.4102 49.8851C27.4102 32.019 45.082 17.5654 66.8706 17.5654C72.9955 17.5654 78.8191 18.6695 83.9399 20.7773C97.1938 25.9967 106.331 37.1379 106.331 49.8851Z" fill="#BE1622"/>
<path d="M84.7434 63.1338H49.0985C43.8773 63.1338 39.6602 58.9181 39.6602 53.6988V46.6728C39.6602 43.6616 42.07 41.2527 45.0822 41.2527C45.0822 41.2527 51.8095 43.5613 66.4691 43.5613C81.1287 43.5613 88.7597 41.1523 88.7597 41.1523C91.772 41.1523 94.1818 43.5613 94.1818 46.5724V53.5984C94.1818 58.9181 89.9646 63.1338 84.7434 63.1338Z" fill="#F4F7FA"/>
<path d="M82.4345 59.2195H51.308C47.1912 59.2195 43.7773 56.9109 43.7773 52.7957V49.6841C43.7773 47.2752 45.6851 45.3682 48.0949 45.3682C48.0949 45.3682 56.5292 47.6767 66.3692 47.6767C76.2092 47.6767 85.6476 45.3682 85.6476 45.3682C88.0573 45.3682 89.9651 47.2752 89.9651 49.6841V52.7957C89.9651 56.9109 86.5512 59.2195 82.4345 59.2195Z" fill="#1A1B1D"/>
<path d="M60.7449 53.0962C60.7449 51.1892 57.4315 49.6836 54.9212 49.6836C52.5115 49.6836 51.8086 51.1892 51.8086 53.0962C51.8086 53.6985 52.0094 54.3007 52.3106 54.8026H60.2429C60.5441 54.2003 60.7449 53.6985 60.7449 53.0962Z" fill="#F4F7FA"/>
<path d="M81.8309 53.0962C81.8309 51.1892 81.2284 49.6836 78.7182 49.6836C76.208 49.6836 72.8945 51.1892 72.8945 53.0962C72.8945 53.6985 73.0953 54.3007 73.3966 54.8026H81.128C81.63 54.2003 81.8309 53.6985 81.8309 53.0962Z" fill="#F4F7FA"/>
<path opacity="0.15" d="M106.632 49.8849C106.632 67.7511 88.9606 82.2046 67.1721 82.2046C63.8586 82.2046 60.5451 81.9035 57.4325 81.2009C54.3198 71.4649 71.6904 60.9258 81.7312 54.1006C93.981 45.7697 84.2414 20.6768 84.2414 20.6768C97.4953 25.9965 106.632 37.1377 106.632 49.8849Z" fill="#1A1B1D"/>
<path d="M74.3011 94.8515V92.543H72.2929L68.8791 96.056L65.3648 92.543H63.457V94.8515L67.3729 98.6657H70.3852L74.3011 94.8515Z" fill="#1A1B1D"/>
<path d="M74.3011 99.5685V97.3604H72.2929L68.8791 100.873L65.3648 97.3604H63.457V99.5685L67.3729 103.483H70.3852L74.3011 99.5685Z" fill="white"/>
<defs>
<linearGradient id="paint0_linear" x1="338.899" y1="-25.8867" x2="-420.67" y2="169.184" gradientUnits="userSpaceOnUse">
<stop stop-color="#7F0000"/>
<stop offset="1" stop-color="#3C3CAA"/>
</linearGradient>
<linearGradient id="paint1_linear" x1="353.919" y1="34.2883" x2="-404.834" y2="228.911" gradientUnits="userSpaceOnUse">
<stop stop-color="#E25203"/>
<stop offset="0.1155" stop-color="#DA510B"/>
<stop offset="0.2998" stop-color="#C34E23"/>
<stop offset="0.5296" stop-color="#9D4948"/>
<stop offset="0.7935" stop-color="#69427C"/>
<stop offset="1" stop-color="#3C3CAA"/>
</linearGradient>
<linearGradient id="paint2_linear" x1="362.874" y1="69.203" x2="-395.88" y2="263.826" gradientUnits="userSpaceOnUse">
<stop stop-color="#E25203"/>
<stop offset="0.1155" stop-color="#DA510B"/>
<stop offset="0.2998" stop-color="#C34E23"/>
<stop offset="0.5296" stop-color="#9D4948"/>
<stop offset="0.7935" stop-color="#69427C"/>
<stop offset="1" stop-color="#3C3CAA"/>
</linearGradient>
<linearGradient id="paint3_linear" x1="141.778" y1="108.414" x2="392.318" y2="113.878" gradientUnits="userSpaceOnUse">
<stop stop-color="#7F0000"/>
<stop offset="1" stop-color="#3C3CAA"/>
</linearGradient>
<linearGradient id="paint4_linear" x1="142.754" y1="63.679" x2="393.293" y2="69.1424" gradientUnits="userSpaceOnUse">
<stop stop-color="#7F0000"/>
<stop offset="1" stop-color="#3C3CAA"/>
</linearGradient>
<linearGradient id="paint5_linear" x1="143.03" y1="51.0264" x2="393.57" y2="56.4896" gradientUnits="userSpaceOnUse">
<stop stop-color="#7F0000"/>
<stop offset="1" stop-color="#3C3CAA"/>
</linearGradient>
<linearGradient id="paint6_linear" x1="143.064" y1="49.4368" x2="393.604" y2="54.9002" gradientUnits="userSpaceOnUse">
<stop stop-color="#7F0000"/>
<stop offset="1" stop-color="#3C3CAA"/>
</linearGradient>
<linearGradient id="paint7_linear" x1="143.059" y1="49.6823" x2="393.599" y2="55.1457" gradientUnits="userSpaceOnUse">
<stop stop-color="#7F0000"/>
<stop offset="1" stop-color="#3C3CAA"/>
</linearGradient>
<linearGradient id="paint8_linear" x1="141.802" y1="107.375" x2="392.341" y2="112.838" gradientUnits="userSpaceOnUse">
<stop stop-color="#7F0000"/>
<stop offset="1" stop-color="#3C3CAA"/>
</linearGradient>
<linearGradient id="paint9_linear" x1="142.201" y1="88.9928" x2="392.741" y2="94.4561" gradientUnits="userSpaceOnUse">
<stop stop-color="#7F0000"/>
<stop offset="1" stop-color="#3C3CAA"/>
</linearGradient>
<linearGradient id="paint10_linear" x1="142.725" y1="64.9639" x2="393.264" y2="70.4273" gradientUnits="userSpaceOnUse">
<stop stop-color="#7F0000"/>
<stop offset="1" stop-color="#3C3CAA"/>
</linearGradient>
<linearGradient id="paint11_linear" x1="143.097" y1="47.9266" x2="393.636" y2="53.39" gradientUnits="userSpaceOnUse">
<stop stop-color="#7F0000"/>
<stop offset="1" stop-color="#3C3CAA"/>
</linearGradient>
<linearGradient id="paint12_linear" x1="214.741" y1="52.165" x2="232.357" y2="52.827" gradientUnits="userSpaceOnUse">
<stop stop-color="#FF9085"/>
<stop offset="1" stop-color="#FF6205"/>
</linearGradient>
<linearGradient id="paint13_linear" x1="39.517" y1="89.1672" x2="97.5698" y2="89.1672" gradientUnits="userSpaceOnUse">
<stop stop-color="#4F0000"/>
<stop offset="1" stop-color="#6D0000"/>
</linearGradient>
</defs>
</svg>
