<svg width="20" height="28" viewBox="0 0 20 28" fill="none" xmlns="http://www.w3.org/2000/svg">
<path d="M19.0768 8H0.923098C0.413239 8 0 8.41324 0 8.9231V24.3077C0 25.8348 1.24247 27.0769 2.76924 27.0769H17.2308C18.7578 27.0769 20 25.8348 20 24.3077V8.92305C19.9999 8.41324 19.5867 8 19.0768 8ZM18.1538 24.3076C18.1538 24.8165 17.7397 25.2307 17.2307 25.2307H2.76924C2.26033 25.2307 1.84614 24.8166 1.84614 24.3076V9.84614H18.1538V24.3076Z" fill="#fff"/>
<path d="M10.1537 0C7.09985 0 4.61523 2.48462 4.61523 5.53843V13.2307C4.61523 13.7406 5.02847 14.1538 5.53833 14.1538C6.04819 14.1538 6.46143 13.7406 6.46143 13.2307V5.53843C6.46143 3.50243 8.11772 1.84614 10.1537 1.84614C12.1897 1.84614 13.846 3.50243 13.846 5.53843V13.2307C13.846 13.7406 14.2592 14.1538 14.7691 14.1538C15.279 14.1538 15.6922 13.7406 15.6922 13.2307V5.53843C15.6921 2.48462 13.2075 0 10.1537 0Z" fill="#fff"/>
</svg>
