<svg width="40" height="40" viewBox="0 0 40 40" fill="none" xmlns="http://www.w3.org/2000/svg">
<rect width="40" height="40" rx="10" fill="#1D755B"/>
<mask id="mask0" style="mask-type:alpha" maskUnits="userSpaceOnUse" x="0" y="0" width="40" height="40">
<rect width="40" height="40" rx="10" fill="#2C965B"/>
</mask>
<g mask="url(#mask0)">
<path d="M32.3349 26.6667L31.7767 26.573C31.8078 26.1983 31.7767 25.8235 31.7147 25.48L32.2109 25.2927C32.3659 25.2302 32.4279 25.0741 32.3659 24.9492L32.2419 24.5745C32.1799 24.4183 32.0248 24.3559 31.9008 24.3871L31.4046 24.5745C31.2496 24.231 31.0325 23.9187 30.8155 23.6377L31.1566 23.2317C31.2496 23.1068 31.2496 22.9507 31.1256 22.8258L30.8155 22.5447C30.6915 22.451 30.5364 22.451 30.4124 22.576L30.0713 22.9819C29.7612 22.7633 29.4201 22.576 29.048 22.451L29.141 21.9202C29.172 21.7641 29.079 21.6079 28.924 21.5767L28.4899 21.483C28.3348 21.4518 28.1798 21.5455 28.1488 21.7016L28.0557 22.2325C27.6526 22.2012 27.2495 22.2012 26.8774 22.2637L26.6914 21.7328C26.6294 21.5767 26.4743 21.483 26.2883 21.5455L25.8541 21.6704C25.6991 21.7328 25.6061 21.889 25.6681 22.0451L25.8541 22.6072C25.482 22.7633 25.1409 22.9819 24.8619 23.2629L24.3967 22.857C24.2727 22.7321 24.0557 22.7633 23.9316 22.8882L23.6215 23.2317C23.4975 23.3566 23.5285 23.544 23.6525 23.6689L24.1487 24.0748C23.9316 24.3871 23.7456 24.7618 23.6525 25.1366L23.0014 24.918C22.8153 24.8867 22.6603 24.9804 22.6293 25.1678L22.5672 25.605C22.5362 25.7611 22.6603 25.9172 22.8463 25.9484L23.5285 26.0734C23.5285 26.4793 23.5595 26.854 23.6525 27.2287L23.0014 27.4473C22.8463 27.5098 22.7533 27.6659 22.8153 27.8533L22.9704 28.2592C23.0324 28.4154 23.2184 28.509 23.3735 28.4466L24.0557 28.1968C24.2417 28.5403 24.4898 28.8213 24.7378 29.1024L24.2727 29.6332C24.1487 29.7581 24.1797 29.9455 24.3037 30.0392L24.6448 30.3202C24.7688 30.4139 24.9859 30.3827 25.0789 30.2577L25.5441 29.7269C25.8541 29.9143 26.1952 30.0704 26.5673 30.1641L26.4433 30.8198C26.4123 30.976 26.5363 31.1321 26.6914 31.1321L27.1255 31.1945C27.2805 31.2258 27.4356 31.1009 27.4666 30.9447L27.5906 30.289C27.9627 30.289 28.3348 30.2577 28.6759 30.1641L28.893 30.7574C28.955 30.9135 29.11 30.976 29.2651 30.9135L29.6682 30.7574C29.8232 30.6949 29.8852 30.5388 29.8542 30.3827L29.6372 29.7893C29.9473 29.6332 30.2573 29.4146 30.5054 29.1648L30.9395 29.602C31.0636 29.6957 31.2186 29.6644 31.3116 29.5708L31.5597 29.2585C31.6527 29.1336 31.6527 28.9774 31.5287 28.8838L31.0946 28.509C31.2806 28.228 31.4357 27.8845 31.5597 27.541L32.1178 27.6347C32.2729 27.6659 32.3969 27.5722 32.4279 27.4161L32.4899 27.0102C32.552 26.8228 32.4589 26.6667 32.3349 26.6667ZM27.2805 29.1024C25.6681 28.8525 24.5518 27.3537 24.8309 25.7299C25.1409 24.1061 26.7224 23.0756 28.3348 23.4191C29.8852 23.7626 30.8775 25.2615 30.5984 26.7603C30.3194 28.2905 28.862 29.3209 27.2805 29.1024Z" fill="#97A6B7"/>
<path d="M26.847 21.5457L26.4439 21.4521L26.2578 21.7956L26.847 21.5457Z" fill="#97A6B7"/>
<path d="M30.6602 22.4201L31.0943 22.5138L31.0323 22.8572L30.6602 22.4201Z" fill="#97A6B7"/>
<path d="M32.0566 24.3562L32.4908 24.4498L32.3357 24.6997L32.0566 24.3562Z" fill="#97A6B7"/>
<path d="M32.3652 26.6669L32.7994 26.7918L32.6133 26.9792L32.3652 26.6669Z" fill="#97A6B7"/>
<path d="M31.0332 29.6335L31.4673 29.7896L31.5603 29.4461L31.0332 29.6335Z" fill="#97A6B7"/>
<path d="M29.0488 30.945L29.4209 31.1011L29.514 30.8201L29.0488 30.945Z" fill="#97A6B7"/>
<path d="M26.9387 31.2885L26.5977 31.1324L27.0008 30.7577L26.9387 31.2885Z" fill="#97A6B7"/>
<path d="M25.1101 30.5391L24.707 30.3829L25.1101 30.0394V30.5391Z" fill="#97A6B7"/>
<path d="M24.1797 22.7011L24.6138 22.7948L24.3967 23.0759L24.1797 22.7011Z" fill="#97A6B7"/>
<path d="M22.6914 25.9175L23.0945 26.0424L23.1255 25.6989L22.6914 25.9175Z" fill="#97A6B7"/>
<path d="M23.0938 28.4469L23.4659 28.5718L23.5589 28.322L23.0938 28.4469Z" fill="#97A6B7"/>
<path d="M32.7695 26.7603L32.2113 26.6666C32.2423 26.2919 32.2113 25.9172 32.1493 25.5737L32.6765 25.3863C32.8315 25.3239 32.8935 25.1678 32.8315 25.0429L32.7075 24.6369C32.6454 24.4808 32.4904 24.4183 32.3664 24.4495L31.8702 24.6369C31.7152 24.2934 31.4981 23.9811 31.2501 23.7001L31.5912 23.2942C31.6842 23.1692 31.6842 22.9819 31.5602 22.8882L31.2501 22.6072C31.126 22.5135 30.94 22.5135 30.847 22.6384L30.5059 23.0443C30.1958 22.8258 29.8547 22.6384 29.4826 22.5135L29.5756 21.9826C29.6066 21.8265 29.5136 21.6704 29.3275 21.6391L28.9244 21.483C28.7694 21.4518 28.6144 21.5455 28.5833 21.7016L28.4593 22.2324C28.0562 22.2012 27.6531 22.2012 27.25 22.2949L27.0639 21.764C27.0019 21.6079 26.8159 21.5142 26.6608 21.5455L26.2267 21.6704C26.0717 21.7328 25.9786 21.8889 26.0407 22.0451L26.2577 22.6072C25.8856 22.7633 25.5445 23.0131 25.2344 23.2629L24.7693 22.857C24.6453 22.7321 24.4282 22.7633 24.3042 22.8882L23.9941 23.2317C23.8701 23.3566 23.9011 23.544 24.0251 23.6689L24.5212 24.0748C24.3042 24.3871 24.1181 24.7618 23.9941 25.1678L23.3429 25.0429C23.1569 25.0116 23.0018 25.1053 22.9708 25.2927L22.8778 25.7298C22.8468 25.886 22.9708 26.0733 23.1569 26.1046L23.8391 26.2295C23.8391 26.6354 23.8701 27.0101 23.9631 27.3849L23.3119 27.6034C23.1569 27.6659 23.0638 27.8533 23.1259 28.0094L23.2809 28.4153C23.3429 28.5715 23.529 28.6652 23.684 28.6027L24.3662 28.3529C24.5523 28.6964 24.8003 29.0087 25.0794 29.2585L24.6143 29.7893C24.4902 29.9142 24.5212 30.1016 24.6453 30.1953L24.9864 30.4763C25.1104 30.57 25.3275 30.5388 25.4205 30.4139L25.8856 29.883C26.1957 30.0704 26.5678 30.2265 26.9399 30.3202L26.8159 31.0072C26.7849 31.1633 26.9089 31.3194 27.0639 31.3194L27.4981 31.3819C27.6531 31.4131 27.8081 31.2882 27.8391 31.1321L27.9632 30.4763C28.3353 30.4763 28.7074 30.4451 29.0485 30.3514L29.2655 30.9447C29.3275 31.1008 29.4826 31.1633 29.6376 31.1008L30.0407 30.9447C30.1958 30.8823 30.2578 30.7261 30.2268 30.57L30.0097 29.9767C30.3198 29.8205 30.6299 29.602 30.909 29.3521L31.3741 29.7581C31.4981 29.8518 31.6532 29.8206 31.7462 29.7269L31.9943 29.4146C32.0873 29.2897 32.0873 29.1336 31.9633 29.0087L31.4981 28.6339C31.6842 28.3217 31.8702 28.0094 31.9633 27.6659L32.5214 27.7596C32.6765 27.7908 32.8005 27.6971 32.8315 27.541L32.8935 27.135C32.9865 26.9477 32.8935 26.7916 32.7695 26.7603ZM27.6841 29.2272C26.0407 28.9774 24.9244 27.4473 25.2344 25.8235C25.5445 24.1997 27.1259 23.1692 28.7694 23.5127C30.3198 23.8562 31.3431 25.3551 31.033 26.8852C30.7539 28.4153 29.2655 29.4771 27.6841 29.2272Z" fill="#D8DEE8"/>
<path d="M18.4736 23.0446L17.9154 22.9509C17.9464 22.5762 17.9154 22.2015 17.8534 21.858L18.3495 21.6706C18.5046 21.6082 18.5666 21.452 18.5046 21.3271L18.3805 20.9524C18.3185 20.7963 18.1635 20.7338 18.0395 20.7651L17.5433 20.9524C17.3883 20.6089 17.1712 20.2967 16.9542 20.0156L17.2953 19.6097C17.3883 19.4848 17.3883 19.3286 17.2642 19.2037L16.9542 18.9227C16.8301 18.829 16.6751 18.829 16.5511 18.9539L16.21 19.3599C15.8999 19.1413 15.5588 18.9539 15.1867 18.829L15.2797 18.2981C15.3107 18.142 15.2177 17.9859 15.0626 17.9546L14.6285 17.861C14.4735 17.8297 14.3184 17.9234 14.2874 18.0796L14.1944 18.6104C13.7913 18.5792 13.3882 18.5792 13.0161 18.6416L12.83 18.0483C12.768 17.8922 12.613 17.7985 12.4269 17.861L12.0238 17.9859C11.8688 18.0483 11.7758 18.2045 11.8378 18.3606L12.0238 18.9227C11.6517 19.0788 11.3106 19.2974 11.0316 19.5784L10.5664 19.1725C10.4424 19.0476 10.2253 19.0788 10.1013 19.2037L9.79122 19.5472C9.66718 19.6721 9.69819 19.8595 9.82222 19.9844L10.3184 20.3903C10.1013 20.7026 9.91525 21.0773 9.82222 21.452L9.17105 21.3271C8.985 21.2959 8.82995 21.3896 8.79895 21.577L8.70592 22.0141C8.67491 22.1703 8.79895 22.3264 8.985 22.3576L9.66718 22.4825C9.66718 22.8885 9.69819 23.2632 9.79122 23.6379L9.14004 23.8565C8.985 23.919 8.89197 24.0751 8.95399 24.2625L9.10903 24.6684C9.17105 24.8245 9.3571 24.9182 9.51214 24.8558L10.1633 24.606C10.3494 24.9494 10.5974 25.2305 10.8455 25.5115L10.3804 26.0424C10.2563 26.1673 10.2873 26.3547 10.4114 26.4483L10.7525 26.7294C10.8765 26.8231 11.0936 26.7918 11.1866 26.6669L11.6517 26.1361C11.9618 26.3234 12.3029 26.4796 12.675 26.5732L12.551 27.229C12.52 27.3851 12.644 27.5413 12.799 27.5413L13.2332 27.6037C13.3882 27.6349 13.5432 27.51 13.5742 27.3539L13.6983 26.6981C14.0704 26.6981 14.4425 26.6669 14.7836 26.5732L15.0006 27.1665C15.0626 27.3227 15.2177 27.3851 15.3727 27.3227L15.7758 27.1665C15.9309 27.1041 15.9929 26.948 15.9619 26.7918L15.7448 26.2297C16.0549 26.0736 16.365 25.855 16.6131 25.6052L17.0782 25.9799C17.2022 26.0736 17.3573 26.0424 17.4503 25.9487L17.6984 25.6364C17.7914 25.5115 17.7914 25.3554 17.6674 25.2617L17.2332 24.887C17.4193 24.606 17.5743 24.2625 17.6984 23.919L18.2565 24.0126C18.4116 24.0439 18.5356 23.9502 18.5666 23.7941L18.6286 23.3881C18.7216 23.232 18.6286 23.0758 18.4736 23.0446ZM13.4502 25.4803C11.8378 25.2305 10.7215 23.7316 11.0005 22.1078C11.3106 20.484 12.8921 19.4535 14.5045 19.797C16.0549 20.1405 17.0472 21.6394 16.7681 23.1383C16.489 24.6684 15.0316 25.7301 13.4502 25.4803Z" fill="#97A6B7"/>
<path d="M12.9856 17.9232L12.6135 17.8607L12.3965 18.173L12.9856 17.9232Z" fill="#97A6B7"/>
<path d="M16.7988 18.829L17.264 18.9227L17.2019 19.2662L16.7988 18.829Z" fill="#97A6B7"/>
<path d="M18.2246 20.7651L18.6587 20.8588L18.5037 21.0774L18.2246 20.7651Z" fill="#97A6B7"/>
<path d="M18.5039 23.0759L18.969 23.1696L18.752 23.3881L18.5039 23.0759Z" fill="#97A6B7"/>
<path d="M17.1719 26.0424L17.606 26.1673L17.73 25.8238L17.1719 26.0424Z" fill="#97A6B7"/>
<path d="M15.2168 27.3539L15.5889 27.4788L15.6819 27.1978L15.2168 27.3539Z" fill="#97A6B7"/>
<path d="M13.1087 27.6662L12.7676 27.5413L13.1707 27.1353L13.1087 27.6662Z" fill="#97A6B7"/>
<path d="M11.2801 26.9167L10.877 26.7606L11.2491 26.4483L11.2801 26.9167Z" fill="#97A6B7"/>
<path d="M10.3496 19.0788L10.7837 19.1725L10.5357 19.4535L10.3496 19.0788Z" fill="#97A6B7"/>
<path d="M8.86133 22.2952L9.23343 22.4513L9.26444 22.1078L8.86133 22.2952Z" fill="#97A6B7"/>
<path d="M9.26367 24.8245L9.63577 24.9807L9.69779 24.7309L9.26367 24.8245Z" fill="#97A6B7"/>
<path d="M18.9086 23.1695L18.3505 23.0759C18.3815 22.7011 18.3505 22.3264 18.2885 21.9829L18.8156 21.7956C18.9707 21.7331 19.0327 21.577 18.9707 21.4521L18.8466 21.0461C18.7846 20.89 18.6296 20.8275 18.5055 20.8588L18.0094 21.0461C17.8544 20.7026 17.6373 20.3904 17.3892 20.1093L17.7303 19.7034C17.8233 19.5785 17.8233 19.3911 17.6993 19.2974L17.3892 19.0164C17.2652 18.9227 17.0791 18.9227 16.9861 19.0476L16.645 19.4536C16.3349 19.235 15.9938 19.0476 15.6217 18.9227L15.7148 18.3918C15.7458 18.2357 15.6528 18.0796 15.4667 18.0484L15.0326 17.9547C14.8775 17.9234 14.7225 18.0171 14.6915 18.1733L14.5985 18.7041C14.1954 18.6729 13.7922 18.6729 13.3891 18.7666L13.2031 18.2357C13.1411 18.0796 12.955 17.9859 12.8 18.0171L12.3969 18.0484C12.2418 18.1108 12.1488 18.2669 12.2108 18.4231L12.4279 18.9852C12.0558 19.1413 11.7147 19.3911 11.4046 19.6409L10.9395 19.235C10.8154 19.1101 10.5984 19.1413 10.4743 19.2662L10.1643 19.6097C10.0402 19.7346 10.0712 19.922 10.1953 20.0469L10.6914 20.4528C10.4743 20.7651 10.2883 21.1398 10.1643 21.5458L9.51309 21.4208C9.32704 21.3896 9.17199 21.4833 9.14098 21.6707L9.07897 22.1078C9.04796 22.264 9.17199 22.4513 9.35804 22.4826L10.0402 22.6075C10.0402 23.0134 10.0712 23.3881 10.1643 23.7629L9.48208 23.9814C9.32703 24.0439 9.23401 24.2313 9.29603 24.3874L9.45107 24.7933C9.51309 24.9495 9.69914 25.0432 9.85418 24.9807L10.5364 24.7309C10.7224 25.0744 10.9705 25.3866 11.2496 25.6365L10.7844 26.1673C10.6604 26.2922 10.6914 26.4796 10.8154 26.5733L11.1565 26.8543C11.2806 26.948 11.4976 26.9168 11.5906 26.7919L12.0558 26.261C12.3659 26.4484 12.738 26.6045 13.1101 26.6982L12.986 27.3852C12.955 27.5413 13.0791 27.6974 13.2341 27.6974L13.6682 27.7599C13.8233 27.7911 13.9783 27.6662 14.0093 27.5101L14.1333 26.8543C14.5054 26.8543 14.8775 26.8231 15.2186 26.7294L15.4357 27.3227C15.4977 27.4788 15.6528 27.5413 15.8078 27.4788L16.2109 27.3227C16.3659 27.2603 16.428 27.1041 16.397 26.948L16.1799 26.3547C16.49 26.1985 16.8001 25.98 17.0791 25.7301L17.5443 26.1361C17.6683 26.2298 17.8233 26.1985 17.9164 26.1049L18.1644 25.7926C18.2575 25.6677 18.2575 25.5116 18.1334 25.3866L17.6683 25.0119C17.8544 24.6997 18.0404 24.3874 18.1334 24.0439L18.6916 24.1376C18.8466 24.1688 18.9707 24.0751 19.0017 23.919L19.0637 23.513C19.1567 23.3257 19.0637 23.2008 18.9086 23.1695ZM13.8543 25.6365C12.2108 25.3866 11.0945 23.8565 11.4046 22.2327C11.7147 20.609 13.2961 19.5785 14.9396 19.922C16.49 20.2655 17.5133 21.7643 17.2032 23.2945C16.8931 24.8246 15.4357 25.8551 13.8543 25.6365Z" fill="#D8DEE8"/>
<path d="M26.0717 32.7873C23.9321 37.0029 21.0483 37.4714 20.2111 37.5026C20.2111 37.5026 20.2421 37.5026 20.1801 37.5026C20.118 37.5026 20.1491 37.5026 20.1491 37.5026C19.3738 37.4714 17.3583 37.1591 15.4358 34.6609C15.0327 34.1301 14.6296 33.5056 14.2575 32.7873C11.7768 27.8847 13.5753 25.3554 13.5753 25.3554L20.118 25.3241H20.1491H20.1801H22.9708H26.7538C26.7538 25.3241 28.5213 27.8535 26.0717 32.7873Z" fill="#2FAC66"/>
<path d="M20.1495 26.2922C23.8143 26.2922 26.7853 25.9147 26.7853 25.4491C26.7853 24.9834 23.8143 24.6059 20.1495 24.6059C16.4846 24.6059 13.5137 24.9834 13.5137 25.4491C13.5137 25.9147 16.4846 26.2922 20.1495 26.2922Z" fill="#1A1B1D"/>
<path opacity="0.15" d="M26.8154 25.4178C26.8154 25.7925 25.296 26.0736 23.0944 26.1985C23.4355 27.1665 23.7766 28.8215 22.3502 29.7583C20.7067 30.82 15.4353 32.3814 15.4043 34.6609C17.3268 37.1591 19.3114 37.4713 20.1176 37.5026C20.1176 37.5026 20.0866 37.5026 20.1486 37.5026C20.2106 37.5026 20.1796 37.5026 20.1796 37.5026C21.0478 37.4713 23.9316 37.0029 26.0402 32.7873C28.2728 28.3531 27.0635 25.855 26.8154 25.4178Z" fill="#1A1B1D"/>
<path d="M9.32646 19.4535C11.2445 19.4535 12.7994 17.4543 12.7994 14.9881C12.7994 12.5219 11.2445 10.5227 9.32646 10.5227C7.4084 10.5227 5.85352 12.5219 5.85352 14.9881C5.85352 17.4543 7.4084 19.4535 9.32646 19.4535Z" fill="#1A1B1D"/>
<path d="M29.9788 19.4535C31.8969 19.4535 33.4517 17.4543 33.4517 14.9881C33.4517 12.5219 31.8969 10.5226 29.9788 10.5226C28.0608 10.5226 26.5059 12.5219 26.5059 14.9881C26.5059 17.4543 28.0608 19.4535 29.9788 19.4535Z" fill="#1A1B1D"/>
<path d="M31.8394 14.5197C31.8394 20.0781 26.3819 24.5747 19.6531 24.5747C18.6298 24.5747 17.6065 24.481 16.6453 24.2624C11.3739 23.1695 7.4668 19.2037 7.4668 14.5197C7.4668 8.96132 12.9243 4.46467 19.6531 4.46467C21.5446 4.46467 23.3431 4.80816 24.9245 5.46393C29.0176 7.08772 31.8394 10.5539 31.8394 14.5197Z" fill="#2FAC66"/>
<path d="M25.1708 18.6416H14.1628C12.5504 18.6416 11.248 17.3301 11.248 15.7063V13.5204C11.248 12.5836 11.9922 11.8342 12.9225 11.8342C12.9225 11.8342 15.0001 10.9286 19.5273 10.9286C24.0545 10.9286 26.4112 11.8029 26.4112 11.8029C27.3414 11.8029 28.0856 12.5524 28.0856 13.4892V15.6751C28.0856 17.3301 26.7833 18.6416 25.1708 18.6416Z" fill="#F4F7FA"/>
<path d="M24.4578 17.4238H14.8452C13.5738 17.4238 12.5195 16.7056 12.5195 15.4253V14.4572C12.5195 13.7078 13.1087 13.1145 13.8529 13.1145C13.8529 13.1145 16.4576 12.2089 19.4964 12.2089C22.5352 12.2089 25.45 13.1145 25.45 13.1145C26.1942 13.1145 26.7834 13.7078 26.7834 14.4572V15.4253C26.7834 16.7056 25.7291 17.4238 24.4578 17.4238Z" fill="#1A1B1D"/>
<path d="M17.76 15.519C17.76 14.9257 17.1398 14.4573 16.3956 14.4573C15.6514 14.4573 15.0312 14.9257 15.0312 15.519C15.0312 15.7063 15.0933 15.8937 15.1863 16.0498H17.6049C17.698 15.8625 17.76 15.7063 17.76 15.519Z" fill="#F4F7FA"/>
<path d="M24.2717 15.519C24.2717 14.9256 23.6515 14.4572 22.9073 14.4572C22.1631 14.4572 21.543 14.9256 21.543 15.519C21.543 15.7063 21.605 15.8937 21.698 16.0498H24.0857C24.2097 15.8624 24.2717 15.7063 24.2717 15.519Z" fill="#F4F7FA"/>
<path opacity="0.15" d="M31.9308 14.5197C31.9308 20.078 26.4733 24.5747 19.7445 24.5747C18.7212 24.5747 17.698 24.481 16.7367 24.2624C15.7754 21.2334 21.1399 17.9546 24.2407 15.8312C28.0238 13.2394 25.0159 5.43268 25.0159 5.43268C29.1091 7.0877 31.9308 10.5539 31.9308 14.5197Z" fill="#1A1B1D"/>
<path d="M21.9466 28.5093V27.7911H21.3574L20.2721 28.884L19.1868 27.7911H18.5977V28.5093L19.807 29.6959H20.7372L21.9466 28.5093Z" fill="#1A1B1D"/>
<path d="M21.9466 29.9769V29.29H21.3574L20.2721 30.3829L19.1868 29.29H18.5977V29.9769L19.807 31.1948H20.7372L21.9466 29.9769Z" fill="white"/>
</g>
</svg>
