<svg width="9" height="6" viewBox="0 0 9 6" fill="none" xmlns="http://www.w3.org/2000/svg">
<path d="M4.74219 5.48535L4.36072 5.80859C4.45572 5.9207 4.59523 5.98535 4.74219 5.98535C4.88914 5.98535 5.02865 5.9207 5.12366 5.80859L4.74219 5.48535ZM1.69027 1.11022C1.51175 0.899539 1.19624 0.873468 0.985566 1.05199C0.774887 1.23051 0.748817 1.54601 0.927336 1.75669L1.69027 1.11022ZM8.55704 1.75669C8.73556 1.54601 8.70949 1.23051 8.49881 1.05199C8.28813 0.873468 7.97262 0.899539 7.7941 1.11022L8.55704 1.75669ZM5.12366 5.16211L1.69027 1.11022L0.927336 1.75669L4.36072 5.80859L5.12366 5.16211ZM7.7941 1.11022L4.36072 5.16211L5.12366 5.80859L8.55704 1.75669L7.7941 1.11022Z" fill="#FF6205"/>
</svg>
