<svg width="17" height="18" viewBox="0 0 17 18" fill="none" xmlns="http://www.w3.org/2000/svg">
<path d="M14.8789 4.98513H15.6323C15.9495 4.98513 16.2073 4.72739 16.2073 4.41016V2.42751C16.2073 2.11028 15.9495 1.85254 15.6323 1.85254H14.8789" stroke="#fff"/>
<path d="M14.8789 13.9665H15.6323C15.9495 13.9665 16.2073 13.7088 16.2073 13.3916V11.4287C16.2073 11.1115 15.9495 10.8538 15.6323 10.8538H14.8789" stroke="#fff"/>
<path d="M14.8789 9.48557H15.6323C15.9495 9.48557 16.2073 9.22782 16.2073 8.9106V6.94777C16.2073 6.63055 15.9495 6.3728 15.6323 6.3728H14.8789" stroke="#fff"/>
<path d="M13.3123 1H1V17.1784H13.3123C13.6295 17.1784 13.8872 16.9207 13.8872 16.6035V1.57497C13.8872 1.25774 13.6295 1 13.3123 1Z" stroke="#fff"/>
<path d="M3.73633 5.38159H11.1514" stroke="#fff"/>
<path d="M3.73633 7.0271H11.1514" stroke="#fff"/>
<path d="M3.73633 8.67261H11.1514" stroke="#fff"/>
</svg>
