<svg width="16" height="16" viewBox="0 0 16 16" fill="none" xmlns="http://www.w3.org/2000/svg">
<path d="M11.4285 2.85742H1.71428C0.767509 2.85742 0 3.62493 0 4.5717V14.2859C0 15.2327 0.767509 16.0002 1.71428 16.0002H11.4285C12.3753 16.0002 13.1428 15.2327 13.1428 14.2859V4.5717C13.1428 3.62493 12.3753 2.85742 11.4285 2.85742ZM12 14.286C12 14.6016 11.7441 14.8574 11.4285 14.8574H1.71428C1.39868 14.8574 1.14284 14.6016 1.14284 14.286V4.5717C1.14284 4.2561 1.39868 4.00026 1.71428 4.00026H11.4285C11.7441 4.00026 12 4.2561 12 4.5717V14.286Z" fill="#FF6205"/>
<path d="M14.2851 0H3.99944C3.05266 0 2.28516 0.767509 2.28516 1.71428C2.28516 2.02988 2.54099 2.28572 2.85659 2.28572C3.1722 2.28572 3.428 2.02988 3.428 1.71428C3.428 1.39868 3.68383 1.14284 3.99944 1.14284H14.2851C14.6007 1.14284 14.8566 1.39868 14.8566 1.71428V12C14.8566 12.3156 14.6007 12.5714 14.2851 12.5714C13.9695 12.5714 13.7137 12.8272 13.7137 13.1428C13.7137 13.4584 13.9695 13.7143 14.2851 13.7143C15.2319 13.7143 15.9994 12.9468 15.9994 12V1.71428C15.9994 0.767509 15.2319 0 14.2851 0Z" fill="#FF6205"/>
</svg>
