<svg width="79" height="10" viewBox="0 0 79 10" fill="none" xmlns="http://www.w3.org/2000/svg">
<path d="M0 0.14502H2.46377L4.27536 5.50734L6.08696 0.14502H8.47826V7.97111H6.81159V2.3914L4.92754 7.97111H3.55072L1.66667 2.46386V7.97111H0V0.14502Z" fill="#9899A6"/>
<path d="M15.4348 5.14509C15.4348 6.95668 14.2754 8.18857 12.5362 8.18857C10.7971 8.18857 9.6377 6.95668 9.6377 5.14509C9.6377 3.33349 10.7971 2.17407 12.6087 2.17407C14.2754 2.17407 15.4348 3.33349 15.4348 5.14509ZM11.087 5.14509C11.087 6.30451 11.5942 6.95668 12.4638 6.95668C13.3333 6.95668 13.8406 6.30451 13.8406 5.14509C13.8406 3.98567 13.3333 3.33349 12.4638 3.33349C11.5942 3.33349 11.087 3.98567 11.087 5.14509Z" fill="#9899A6"/>
<path d="M20.2894 7.97117V4.63784C20.2894 3.9132 20.1445 3.40596 19.3474 3.40596C18.4053 3.40596 18.1155 4.05813 18.1155 4.9277V7.97117H16.5938V2.319H18.043V3.1161C18.4778 2.46393 19.0575 2.17407 19.9271 2.17407C21.159 2.17407 21.8836 2.89871 21.8836 4.20306V7.97117H20.2894Z" fill="#9899A6"/>
<path d="M26.3769 4.42038L28.7682 7.97111H26.8841L25.3624 5.43488L24.7102 6.01459V7.97111H23.1885V0.14502H24.7102V4.34792L26.7392 2.31893H28.5508L26.3769 4.42038Z" fill="#9899A6"/>
<path d="M32.0294 8.11605C30.2903 8.11605 29.1309 6.95663 29.1309 5.14504C29.1309 3.40591 30.3627 2.10156 31.9569 2.10156C33.6961 2.17403 34.783 3.40591 34.783 5.36243V5.50736H30.7251C30.7251 6.52185 31.2323 7.0291 32.0294 7.0291C32.6091 7.0291 32.9714 6.81171 33.1888 6.232H34.7106C34.3482 7.46388 33.3338 8.11605 32.0294 8.11605ZM31.9569 3.26098C31.2323 3.26098 30.7975 3.76823 30.7251 4.56533H33.1888C33.1164 3.84069 32.754 3.26098 31.9569 3.26098Z" fill="#9899A6"/>
<path d="M38.6959 7.97102C38.2611 9.20291 37.9712 10 36.5219 10C36.0147 10 36.2321 10 35.5074 10V8.69566H36.2321C36.7393 8.69566 37.0292 8.4058 37.0292 7.97102C37.0292 7.89856 37.0292 7.82609 36.9567 7.75363L34.9277 2.31885H36.5944L37.8987 6.15943L39.1306 2.31885H40.7248L38.6959 7.97102Z" fill="#9899A6"/>
<path d="M48.8401 7.97101H47.7532L47.6082 7.10145C47.0285 7.82609 46.2314 8.18841 45.2894 8.18841C43.1155 8.18841 41.5938 6.52174 41.5938 4.13043C41.5938 1.73913 43.188 0 45.4343 0C47.2459 0 48.5503 1.08696 48.7677 2.75362H47.101C46.8836 1.88406 46.2314 1.44928 45.3619 1.44928C44.0575 1.44928 43.2604 2.46377 43.2604 4.13043C43.2604 5.86957 44.0575 6.81159 45.4343 6.81159C46.5213 6.81159 47.2459 6.08696 47.3184 5.07246H45.5793V3.76812H48.8401V7.97101Z" fill="#9899A6"/>
<path d="M53.6953 7.97093C53.6228 7.75354 53.6228 7.68107 53.6228 7.46368C53.1156 7.97093 52.4634 8.18832 51.8112 8.18832C50.5793 8.18832 49.7822 7.53615 49.7822 6.44919C49.7822 4.99991 51.159 4.78252 52.246 4.6376C53.2605 4.49267 53.6228 4.4202 53.6228 3.98542C53.6228 3.47818 53.2605 3.26078 52.6083 3.26078C51.8837 3.26078 51.5938 3.47818 51.5214 4.13035H50.0721C50.0721 2.826 51.0141 2.17383 52.6083 2.17383C53.7677 2.17383 55.0721 2.39122 55.0721 3.98542V6.44919C55.0721 6.95644 55.0721 7.53615 55.2895 7.97093H53.6953ZM52.4634 5.50716C51.9561 5.57963 51.304 5.65209 51.304 6.37673C51.304 6.88397 51.5938 7.10136 52.1735 7.10136C52.9706 7.10136 53.5503 6.66658 53.5503 5.86948V5.21731C53.2605 5.4347 52.8982 5.4347 52.4634 5.50716Z" fill="#9899A6"/>
<path d="M59.9994 3.69557C59.7095 3.6231 59.5646 3.6231 59.4197 3.6231C58.3327 3.6231 57.8979 4.4202 57.8979 5.4347V7.97093H56.3037V2.31876H57.753V3.33325C58.1153 2.60861 58.7675 2.17383 59.5646 2.17383C59.7095 2.17383 59.782 2.17383 59.9269 2.17383V3.69557H59.9994Z" fill="#9899A6"/>
<path d="M64.4919 7.97111V7.24647C64.1296 7.82618 63.5499 8.11603 62.7528 8.11603C61.1586 8.11603 60.2165 6.95661 60.2165 5.07256C60.1441 3.33343 61.1586 2.17401 62.6803 2.17401C63.3325 2.17401 64.0571 2.46386 64.4194 3.04357V0.14502H65.9412V7.97111H64.4919ZM63.1151 3.40589C62.2455 3.40589 61.8107 4.05806 61.8107 5.14502C61.8107 6.23198 62.318 6.88415 63.1151 6.88415C63.9847 6.88415 64.4919 6.23198 64.4919 5.14502C64.4194 4.05806 63.9122 3.40589 63.1151 3.40589Z" fill="#9899A6"/>
<path d="M69.7823 8.18832C68.0432 8.18832 66.8838 7.0289 66.8838 5.21731C66.8838 3.40571 68.1157 2.17383 69.7099 2.17383C71.449 2.17383 72.536 3.40571 72.536 5.4347V5.57963H68.478C68.478 6.59412 68.9852 7.10136 69.7823 7.10136C70.362 7.10136 70.7244 6.88397 70.9418 6.30426H72.4635C72.1012 7.46368 71.0867 8.18832 69.7823 8.18832ZM69.7099 3.26078C68.9852 3.26078 68.5505 3.76803 68.478 4.56513H70.9418C70.8693 3.84049 70.507 3.26078 69.7099 3.26078Z" fill="#9899A6"/>
<path d="M77.1732 7.97093V4.71006C77.1732 3.98542 77.0283 3.47818 76.2312 3.47818C75.2891 3.47818 74.9993 4.13035 74.9993 4.99992V7.97093H73.4775V2.31876H74.9268V3.11586C75.3616 2.53615 76.0138 2.17383 76.8109 2.17383C78.0428 2.17383 78.7674 2.89847 78.7674 4.20281V7.97093H77.1732Z" fill="#9899A6"/>
</svg>
