<svg width="15" height="10" viewBox="0 0 15 10" fill="none" xmlns="http://www.w3.org/2000/svg">
<path d="M7.89941 8.79883L7.51795 9.12207C7.61295 9.23418 7.75246 9.29883 7.89941 9.29883C8.04637 9.29883 8.18588 9.23418 8.28088 9.12207L7.89941 8.79883ZM1.7941 0.820237C1.61558 0.609558 1.30007 0.583488 1.0894 0.762007C0.878716 0.940526 0.852646 1.25603 1.03116 1.46671L1.7941 0.820237ZM14.7677 1.46671C14.9462 1.25603 14.9201 0.940526 14.7094 0.762007C14.4988 0.583488 14.1832 0.609558 14.0047 0.820237L14.7677 1.46671ZM8.28088 8.47559L1.7941 0.820237L1.03116 1.46671L7.51795 9.12207L8.28088 8.47559ZM14.0047 0.820237L7.51795 8.47559L8.28088 9.12207L14.7677 1.46671L14.0047 0.820237Z" fill="#FF6205"/>
</svg>
