<svg width="20" height="20" viewBox="0 0 20 20" fill="none" xmlns="http://www.w3.org/2000/svg">
<path d="M20 4.6152H0V6.15348H20V4.6152Z" fill="#F5F5F5"/>
<path d="M18.9556 1.53833H1.04436C0.665137 1.98318 0.373301 2.50478 0.195801 3.07681H19.8042C19.6267 2.50478 19.3348 1.98318 18.9556 1.53833Z" fill="#F5F5F5"/>
<path d="M20 7.6922H0V9.23048H20V7.6922Z" fill="#F5F5F5"/>
<path d="M20 10.7691H0V12.3074H20V10.7691Z" fill="#F5F5F5"/>
<path d="M20 13.846H0V15.3843H20V13.846Z" fill="#F5F5F5"/>
<path d="M19.8042 16.923H0.195801C0.373262 17.495 0.665137 18.0166 1.04436 18.4614H18.9556C19.3348 18.0166 19.6267 17.495 19.8042 16.923Z" fill="#F5F5F5"/>
<path d="M15.625 0H4.37497C3.04106 0 1.8468 0.597148 1.04434 1.53848H18.9556C18.1531 0.597148 16.9589 0 15.625 0Z" fill="#FF4B55"/>
<path d="M20 6.15387H0V7.69215H20V6.15387Z" fill="#FF4B55"/>
<path d="M20 4.37495C20 3.92296 19.9314 3.48702 19.8042 3.0769H0.19582C0.0685547 3.48702 0 3.92296 0 4.37495V4.61534H20V4.37495Z" fill="#FF4B55"/>
<path d="M20 9.23077H0V10.7691H20V9.23077Z" fill="#FF4B55"/>
<path d="M20 15.6251V15.3847H0V15.6251C0 16.0771 0.0685547 16.513 0.19582 16.9232H19.8042C19.9314 16.513 20 16.0771 20 15.6251Z" fill="#FF4B55"/>
<path d="M18.9556 18.4615H1.04434C1.8468 19.4029 3.04106 20 4.37497 20H15.625C16.9589 20 18.1531 19.4029 18.9556 18.4615Z" fill="#FF4B55"/>
<path d="M20 12.3077H0V13.846H20V12.3077Z" fill="#FF4B55"/>
<path d="M10.7692 0H4.375C1.95875 0 0 1.95875 0 4.375V10.7692H10.7692V0Z" fill="#41479B"/>
<path d="M1.16188 1.68211C1.15164 1.71449 1.18848 1.74129 1.21613 1.72152L1.42953 1.56902L1.64293 1.72152C1.67055 1.74129 1.70742 1.71449 1.69719 1.68211L1.61808 1.43203L1.8291 1.27621C1.8564 1.25601 1.84234 1.21269 1.80836 1.21242L1.54609 1.21039L1.50133 1.07617C1.38891 1.17418 1.28168 1.27793 1.17984 1.3868L1.24105 1.43203L1.16188 1.68211Z" fill="#F5F5F5"/>
<path d="M1.46305 3.03729L1.54602 3.28612L1.80828 3.28815C1.84223 3.28843 1.85633 3.33175 1.82903 3.35194L1.61801 3.50776L1.69711 3.75784C1.70735 3.79022 1.67051 3.81698 1.64285 3.79726L1.42945 3.64472L1.21605 3.79726C1.18844 3.81702 1.15156 3.79022 1.1618 3.75784L1.2409 3.50776L1.02988 3.35194C1.00258 3.33179 1.01664 3.28843 1.05059 3.28815L1.31285 3.28612L1.39582 3.03729C1.40672 3.00507 1.45231 3.00507 1.46305 3.03729Z" fill="#F5F5F5"/>
<path d="M1.46305 5.33926L1.54602 5.58809L1.80828 5.59012C1.84223 5.59039 1.85633 5.63371 1.82903 5.65391L1.61801 5.80973L1.69711 6.0598C1.70735 6.09218 1.67051 6.11894 1.64285 6.09922L1.42945 5.94672L1.21605 6.09922C1.18844 6.11894 1.15156 6.09218 1.1618 6.0598L1.2409 5.80973L1.02988 5.65391C1.00258 5.63375 1.01664 5.59039 1.05059 5.59012L1.31285 5.58809L1.39582 5.33926C1.40672 5.30704 1.45231 5.30704 1.46305 5.33926Z" fill="#F5F5F5"/>
<path d="M1.46305 7.45441L1.54602 7.70323L1.80828 7.70526C1.84223 7.70554 1.85633 7.74886 1.82903 7.76905L1.61801 7.92487L1.69711 8.17494C1.70735 8.20733 1.67051 8.23408 1.64285 8.21436L1.42945 8.06182L1.21605 8.21436C1.18844 8.23408 1.15156 8.20733 1.1618 8.17494L1.2409 7.92487L1.02988 7.76905C1.00258 7.7489 1.01664 7.70554 1.05059 7.70526L1.31285 7.70323L1.39582 7.45441C1.40672 7.42218 1.45231 7.42218 1.46305 7.45441Z" fill="#F5F5F5"/>
<path d="M1.46305 9.37906L1.54602 9.62788L1.80828 9.62991C1.84223 9.63019 1.85633 9.67351 1.82903 9.6937L1.61801 9.84952L1.69711 10.0996C1.70735 10.132 1.67051 10.1587 1.64285 10.139L1.42945 9.98651L1.21605 10.139C1.18844 10.1587 1.15156 10.132 1.1618 10.0996L1.2409 9.84952L1.02988 9.6937C1.00258 9.67355 1.01664 9.63019 1.05059 9.62991L1.31285 9.62788L1.39582 9.37906C1.40672 9.34683 1.45231 9.34683 1.46305 9.37906Z" fill="#F5F5F5"/>
<path d="M2.4733 1.94443L2.55627 2.19326L2.81854 2.19529C2.85248 2.19556 2.86658 2.23888 2.83928 2.25904L2.62826 2.41486L2.70736 2.66494C2.7176 2.69732 2.68076 2.72412 2.65311 2.70435L2.43979 2.55181L2.22639 2.70435C2.19877 2.72412 2.1619 2.69732 2.17213 2.66494L2.25123 2.41486L2.04026 2.25904C2.01295 2.23888 2.02702 2.19552 2.06096 2.19529L2.32323 2.19326L2.40619 1.94443C2.41697 1.9122 2.46256 1.9122 2.4733 1.94443Z" fill="#F5F5F5"/>
<path d="M2.47329 4.2467L2.55626 4.49553L2.81852 4.49756C2.85247 4.49784 2.86657 4.54116 2.83926 4.56135L2.62825 4.71717L2.70735 4.96725C2.71758 4.99964 2.68075 5.02643 2.65309 5.00667L2.4397 4.85413L2.2263 5.00667C2.19868 5.02643 2.16181 4.99964 2.17204 4.96725L2.25114 4.71717L2.04017 4.56135C2.01286 4.5412 2.02692 4.49784 2.06087 4.49756L2.32313 4.49553L2.4061 4.2467C2.41696 4.21448 2.46255 4.21448 2.47329 4.2467Z" fill="#F5F5F5"/>
<path d="M2.47329 6.43393L2.55626 6.68276L2.81852 6.68479C2.85247 6.68507 2.86657 6.72839 2.83926 6.74858L2.62825 6.9044L2.70735 7.15448C2.71758 7.18687 2.68075 7.21363 2.65309 7.1939L2.4397 7.04136L2.2263 7.1939C2.19868 7.21366 2.16181 7.18687 2.17204 7.15448L2.25114 6.9044L2.04017 6.74858C2.01286 6.72843 2.02692 6.68507 2.06087 6.68479L2.32313 6.68276L2.4061 6.43393C2.41696 6.40174 2.46255 6.40174 2.47329 6.43393Z" fill="#F5F5F5"/>
<path d="M2.47329 8.39807L2.55626 8.6469L2.81852 8.64893C2.85247 8.6492 2.86657 8.69252 2.83926 8.71272L2.62825 8.86854L2.70735 9.11861C2.71758 9.15099 2.68075 9.17779 2.65309 9.15803L2.4397 9.00553L2.2263 9.15803C2.19868 9.17779 2.16181 9.15099 2.17204 9.11861L2.25114 8.86854L2.04017 8.71272C2.01286 8.69256 2.02692 8.6492 2.06087 8.64893L2.32313 8.6469L2.4061 8.39807C2.41696 8.36584 2.46255 8.36584 2.47329 8.39807Z" fill="#F5F5F5"/>
<path d="M3.48361 0.961641L3.56657 1.21047L3.82884 1.2125C3.86278 1.21277 3.87689 1.25609 3.84958 1.27625L3.63857 1.43207L3.71767 1.68215C3.7279 1.71453 3.69107 1.74129 3.66341 1.72156L3.45001 1.56902L3.23661 1.72156C3.209 1.74133 3.17212 1.71453 3.18236 1.68215L3.26146 1.43207L3.05048 1.27625C3.02318 1.25609 3.03724 1.21273 3.07118 1.2125L3.33345 1.21047L3.41642 0.961641C3.42728 0.929453 3.47286 0.929453 3.48361 0.961641Z" fill="#F5F5F5"/>
<path d="M3.48361 3.03729L3.56657 3.28612L3.82884 3.28815C3.86278 3.28843 3.87689 3.33175 3.84958 3.35194L3.63857 3.50776L3.71767 3.75784C3.7279 3.79022 3.69107 3.81698 3.66341 3.79726L3.45001 3.64472L3.23661 3.79726C3.209 3.81702 3.17212 3.79022 3.18236 3.75784L3.26146 3.50776L3.05048 3.35194C3.02318 3.33179 3.03724 3.28843 3.07118 3.28815L3.33345 3.28612L3.41642 3.03729C3.42728 3.00507 3.47286 3.00507 3.48361 3.03729Z" fill="#F5F5F5"/>
<path d="M3.48361 5.33926L3.56657 5.58809L3.82884 5.59012C3.86278 5.59039 3.87689 5.63371 3.84958 5.65391L3.63857 5.80973L3.71767 6.0598C3.7279 6.09218 3.69107 6.11894 3.66341 6.09922L3.45001 5.94672L3.23661 6.09922C3.209 6.11894 3.17212 6.09218 3.18236 6.0598L3.26146 5.80973L3.05048 5.65391C3.02318 5.63375 3.03724 5.59039 3.07118 5.59012L3.33345 5.58809L3.41642 5.33926C3.42728 5.30704 3.47286 5.30704 3.48361 5.33926Z" fill="#F5F5F5"/>
<path d="M3.48361 7.45441L3.56657 7.70323L3.82884 7.70526C3.86278 7.70554 3.87689 7.74886 3.84958 7.76905L3.63857 7.92487L3.71767 8.17494C3.7279 8.20733 3.69107 8.23408 3.66341 8.21436L3.45001 8.06182L3.23661 8.21436C3.209 8.23408 3.17212 8.20733 3.18236 8.17494L3.26146 7.92487L3.05048 7.76905C3.02318 7.7489 3.03724 7.70554 3.07118 7.70526L3.33345 7.70323L3.41642 7.45441C3.42728 7.42218 3.47286 7.42218 3.48361 7.45441Z" fill="#F5F5F5"/>
<path d="M3.48361 9.37906L3.56657 9.62788L3.82884 9.62991C3.86278 9.63019 3.87689 9.67351 3.84958 9.6937L3.63857 9.84952L3.71767 10.0996C3.7279 10.132 3.69107 10.1587 3.66341 10.139L3.45001 9.98651L3.23661 10.139C3.209 10.1587 3.17212 10.132 3.18236 10.0996L3.26146 9.84952L3.05048 9.6937C3.02318 9.67355 3.03724 9.63019 3.07118 9.62991L3.33345 9.62788L3.41642 9.37906C3.42728 9.34683 3.47286 9.34683 3.48361 9.37906Z" fill="#F5F5F5"/>
<path d="M4.49387 1.94443L4.57684 2.19326L4.8391 2.19529C4.87305 2.19556 4.88715 2.23888 4.85981 2.25904L4.64883 2.41486L4.72793 2.66494C4.73817 2.69732 4.70133 2.72412 4.67367 2.70435L4.46027 2.55181L4.24688 2.70435C4.21926 2.72412 4.18238 2.69732 4.19262 2.66494L4.27172 2.41486L4.0607 2.25904C4.0334 2.23888 4.04746 2.19552 4.08145 2.19529L4.34371 2.19326L4.42668 1.94443C4.43758 1.9122 4.48313 1.9122 4.49387 1.94443Z" fill="#F5F5F5"/>
<path d="M4.49387 4.2467L4.57684 4.49553L4.8391 4.49756C4.87305 4.49784 4.88715 4.54116 4.85981 4.56135L4.64883 4.71717L4.72793 4.96725C4.73817 4.99964 4.70133 5.02643 4.67367 5.00667L4.46027 4.85413L4.24688 5.00667C4.21926 5.02643 4.18238 4.99964 4.19262 4.96725L4.27172 4.71717L4.0607 4.56135C4.0334 4.5412 4.04746 4.49784 4.08145 4.49756L4.34371 4.49553L4.42668 4.2467C4.43758 4.21448 4.48313 4.21448 4.49387 4.2467Z" fill="#F5F5F5"/>
<path d="M4.49387 6.43393L4.57684 6.68276L4.8391 6.68479C4.87305 6.68507 4.88715 6.72839 4.85981 6.74858L4.64883 6.9044L4.72793 7.15448C4.73817 7.18687 4.70133 7.21363 4.67367 7.1939L4.46027 7.04136L4.24688 7.1939C4.21926 7.21366 4.18238 7.18687 4.19262 7.15448L4.27172 6.9044L4.0607 6.74858C4.0334 6.72843 4.04746 6.68507 4.08145 6.68479L4.34371 6.68276L4.42668 6.43393C4.43758 6.40174 4.48313 6.40174 4.49387 6.43393Z" fill="#F5F5F5"/>
<path d="M4.49387 8.39807L4.57684 8.6469L4.8391 8.64893C4.87305 8.6492 4.88715 8.69252 4.85981 8.71272L4.64883 8.86854L4.72793 9.11861C4.73817 9.15099 4.70133 9.17779 4.67367 9.15803L4.46027 9.00553L4.24688 9.15803C4.21926 9.17779 4.18238 9.15099 4.19262 9.11861L4.27172 8.86854L4.0607 8.71272C4.0334 8.69256 4.04746 8.6492 4.08145 8.64893L4.34371 8.6469L4.42668 8.39807C4.43758 8.36584 4.48313 8.36584 4.49387 8.39807Z" fill="#F5F5F5"/>
<path d="M5.50412 0.961641L5.58709 1.21047L5.84935 1.2125C5.8833 1.21277 5.8974 1.25609 5.87006 1.27625L5.65908 1.43207L5.73818 1.68215C5.74842 1.71453 5.71158 1.74129 5.68392 1.72156L5.47052 1.56902L5.25712 1.72156C5.2295 1.74133 5.19263 1.71453 5.20286 1.68215L5.28197 1.43207L5.07099 1.27625C5.04368 1.25609 5.05775 1.21273 5.09173 1.2125L5.354 1.21047L5.43697 0.961641C5.44783 0.929453 5.49337 0.929453 5.50412 0.961641Z" fill="#F5F5F5"/>
<path d="M5.50416 3.03718L5.58713 3.28601L5.84939 3.28804C5.88334 3.28831 5.89744 3.33163 5.8701 3.35183L5.65912 3.50765L5.73826 3.75769C5.7485 3.79007 5.71166 3.81683 5.68401 3.7971L5.47061 3.64456L5.25721 3.7971C5.22959 3.81687 5.19272 3.79007 5.20295 3.75769L5.28205 3.50761L5.07108 3.35179C5.04377 3.33163 5.05784 3.28827 5.09182 3.288L5.35409 3.28597L5.43705 3.03714C5.44787 3.00495 5.49342 3.00495 5.50416 3.03718Z" fill="#F5F5F5"/>
<path d="M5.50412 5.33926L5.58709 5.58809L5.84935 5.59012C5.8833 5.59039 5.8974 5.63371 5.87006 5.65391L5.65908 5.80973L5.73818 6.0598C5.74842 6.09218 5.71158 6.11894 5.68392 6.09922L5.47052 5.94672L5.25712 6.09922C5.2295 6.11894 5.19263 6.09218 5.20286 6.0598L5.28197 5.80973L5.07099 5.65391C5.04368 5.63375 5.05775 5.59039 5.09173 5.59012L5.354 5.58809L5.43697 5.33926C5.44783 5.30704 5.49337 5.30704 5.50412 5.33926Z" fill="#F5F5F5"/>
<path d="M5.50412 7.45441L5.58709 7.70323L5.84935 7.70526C5.8833 7.70554 5.8974 7.74886 5.87006 7.76905L5.65908 7.92487L5.73818 8.17494C5.74842 8.20733 5.71158 8.23408 5.68392 8.21436L5.47052 8.06182L5.25712 8.21436C5.2295 8.23408 5.19263 8.20733 5.20286 8.17494L5.28197 7.92487L5.07099 7.76905C5.04368 7.7489 5.05775 7.70554 5.09173 7.70526L5.354 7.70323L5.43697 7.45441C5.44783 7.42218 5.49337 7.42218 5.50412 7.45441Z" fill="#F5F5F5"/>
<path d="M5.50412 9.37906L5.58709 9.62788L5.84935 9.62991C5.8833 9.63019 5.8974 9.67351 5.87006 9.6937L5.65908 9.84952L5.73818 10.0996C5.74842 10.132 5.71158 10.1587 5.68392 10.139L5.47052 9.98651L5.25712 10.139C5.2295 10.1587 5.19263 10.132 5.20286 10.0996L5.28197 9.84952L5.07099 9.6937C5.04368 9.67355 5.05775 9.63019 5.09173 9.62991L5.354 9.62788L5.43697 9.37906C5.44783 9.34683 5.49337 9.34683 5.50412 9.37906Z" fill="#F5F5F5"/>
<path d="M6.5144 1.94443L6.59737 2.19326L6.85964 2.19529C6.89358 2.19556 6.90768 2.23888 6.88034 2.25904L6.66933 2.41486L6.74843 2.66494C6.75866 2.69732 6.72179 2.72412 6.69417 2.70435L6.48077 2.55181L6.26738 2.70435C6.23976 2.72412 6.20288 2.69732 6.21312 2.66494L6.29222 2.41486L6.08124 2.25904C6.05394 2.23888 6.068 2.19552 6.10195 2.19529L6.36421 2.19326L6.44718 1.94443C6.45812 1.9122 6.50366 1.9122 6.5144 1.94443Z" fill="#F5F5F5"/>
<path d="M6.5144 4.2467L6.59737 4.49553L6.85964 4.49756C6.89358 4.49784 6.90768 4.54116 6.88034 4.56135L6.66933 4.71717L6.74843 4.96725C6.75866 4.99964 6.72179 5.02643 6.69417 5.00667L6.48077 4.85413L6.26738 5.00667C6.23976 5.02643 6.20288 4.99964 6.21312 4.96725L6.29222 4.71717L6.08124 4.56135C6.05394 4.5412 6.068 4.49784 6.10195 4.49756L6.36421 4.49553L6.44718 4.2467C6.45812 4.21448 6.50366 4.21448 6.5144 4.2467Z" fill="#F5F5F5"/>
<path d="M6.5144 6.43393L6.59737 6.68276L6.85964 6.68479C6.89358 6.68507 6.90768 6.72839 6.88034 6.74858L6.66933 6.9044L6.74843 7.15448C6.75866 7.18687 6.72179 7.21363 6.69417 7.1939L6.48077 7.04136L6.26738 7.1939C6.23976 7.21366 6.20288 7.18687 6.21312 7.15448L6.29222 6.9044L6.08124 6.74858C6.05394 6.72843 6.068 6.68507 6.10195 6.68479L6.36421 6.68276L6.44718 6.43393C6.45812 6.40174 6.50366 6.40174 6.5144 6.43393Z" fill="#F5F5F5"/>
<path d="M6.5144 8.39807L6.59737 8.6469L6.85964 8.64893C6.89358 8.6492 6.90768 8.69252 6.88034 8.71272L6.66933 8.86854L6.74843 9.11861C6.75866 9.15099 6.72179 9.17779 6.69417 9.15803L6.48077 9.00553L6.26738 9.15803C6.23976 9.17779 6.20288 9.15099 6.21312 9.11861L6.29222 8.86854L6.08124 8.71272C6.05394 8.69256 6.068 8.6492 6.10195 8.64893L6.36421 8.6469L6.44718 8.39807C6.45812 8.36584 6.50366 8.36584 6.5144 8.39807Z" fill="#F5F5F5"/>
<path d="M7.52467 0.961641L7.60764 1.21047L7.86991 1.2125C7.90385 1.21277 7.91795 1.25609 7.89061 1.27625L7.67959 1.43207L7.75869 1.68215C7.76893 1.71453 7.73205 1.74129 7.70444 1.72156L7.49104 1.56902L7.27764 1.72156C7.25002 1.74133 7.21315 1.71453 7.22338 1.68215L7.30248 1.43207L7.09146 1.27625C7.06416 1.25609 7.07822 1.21273 7.11221 1.2125L7.37447 1.21047L7.45744 0.961641C7.46838 0.929453 7.51393 0.929453 7.52467 0.961641Z" fill="#F5F5F5"/>
<path d="M7.52467 3.03729L7.60764 3.28612L7.86991 3.28815C7.90385 3.28843 7.91795 3.33175 7.89061 3.35194L7.67959 3.50776L7.75869 3.75784C7.76893 3.79022 7.73205 3.81698 7.70444 3.79726L7.49104 3.64472L7.27764 3.79726C7.25002 3.81702 7.21315 3.79022 7.22338 3.75784L7.30248 3.50776L7.09146 3.35194C7.06416 3.33179 7.07822 3.28843 7.11221 3.28815L7.37447 3.28612L7.45744 3.03729C7.46838 3.00507 7.51393 3.00507 7.52467 3.03729Z" fill="#F5F5F5"/>
<path d="M7.52467 5.33926L7.60764 5.58809L7.86991 5.59012C7.90385 5.59039 7.91795 5.63371 7.89061 5.65391L7.67959 5.80973L7.75869 6.0598C7.76893 6.09218 7.73205 6.11894 7.70444 6.09922L7.49104 5.94672L7.27764 6.09922C7.25002 6.11894 7.21315 6.09218 7.22338 6.0598L7.30248 5.80973L7.09146 5.65391C7.06416 5.63375 7.07822 5.59039 7.11221 5.59012L7.37447 5.58809L7.45744 5.33926C7.46838 5.30704 7.51393 5.30704 7.52467 5.33926Z" fill="#F5F5F5"/>
<path d="M7.52467 7.45441L7.60764 7.70323L7.86991 7.70526C7.90385 7.70554 7.91795 7.74886 7.89061 7.76905L7.67959 7.92487L7.75869 8.17494C7.76893 8.20733 7.73205 8.23408 7.70444 8.21436L7.49104 8.06182L7.27764 8.21436C7.25002 8.23408 7.21315 8.20733 7.22338 8.17494L7.30248 7.92487L7.09146 7.76905C7.06416 7.7489 7.07822 7.70554 7.11221 7.70526L7.37447 7.70323L7.45744 7.45441C7.46838 7.42218 7.51393 7.42218 7.52467 7.45441Z" fill="#F5F5F5"/>
<path d="M7.52467 9.37906L7.60764 9.62788L7.86991 9.62991C7.90385 9.63019 7.91795 9.67351 7.89061 9.6937L7.67959 9.84952L7.75869 10.0996C7.76893 10.132 7.73205 10.1587 7.70444 10.139L7.49104 9.98651L7.27764 10.139C7.25002 10.1587 7.21315 10.132 7.22338 10.0996L7.30248 9.84952L7.09146 9.6937C7.06416 9.67355 7.07822 9.63019 7.11221 9.62991L7.37447 9.62788L7.45744 9.37906C7.46838 9.34683 7.51393 9.34683 7.52467 9.37906Z" fill="#F5F5F5"/>
<path d="M8.53494 1.94443L8.61791 2.19326L8.88022 2.19529C8.91416 2.19556 8.92826 2.23888 8.90092 2.25904L8.6899 2.41486L8.769 2.66494C8.77924 2.69732 8.74236 2.72412 8.71475 2.70435L8.50135 2.55181L8.28795 2.70435C8.26034 2.72412 8.22346 2.69732 8.23369 2.66494L8.3128 2.41486L8.10178 2.25904C8.07448 2.23888 8.08854 2.19552 8.12248 2.19529L8.38479 2.19326L8.46776 1.94443C8.47865 1.9122 8.5242 1.9122 8.53494 1.94443Z" fill="#F5F5F5"/>
<path d="M8.53494 4.2467L8.61791 4.49553L8.88022 4.49756C8.91416 4.49784 8.92826 4.54116 8.90092 4.56135L8.6899 4.71717L8.769 4.96725C8.77924 4.99964 8.74236 5.02643 8.71475 5.00667L8.50135 4.85413L8.28795 5.00667C8.26034 5.02643 8.22346 4.99964 8.23369 4.96725L8.3128 4.71717L8.10178 4.56135C8.07448 4.5412 8.08854 4.49784 8.12248 4.49756L8.38479 4.49553L8.46776 4.2467C8.47865 4.21448 8.5242 4.21448 8.53494 4.2467Z" fill="#F5F5F5"/>
<path d="M8.53494 6.43393L8.61791 6.68276L8.88022 6.68479C8.91416 6.68507 8.92826 6.72839 8.90092 6.74858L8.6899 6.9044L8.769 7.15448C8.77924 7.18687 8.74236 7.21363 8.71475 7.1939L8.50135 7.04136L8.28795 7.1939C8.26034 7.21366 8.22346 7.18687 8.23369 7.15448L8.3128 6.9044L8.10178 6.74858C8.07448 6.72843 8.08854 6.68507 8.12248 6.68479L8.38479 6.68276L8.46776 6.43393C8.47865 6.40174 8.5242 6.40174 8.53494 6.43393Z" fill="#F5F5F5"/>
<path d="M8.53494 8.39807L8.61791 8.6469L8.88022 8.64893C8.91416 8.6492 8.92826 8.69252 8.90092 8.71272L8.6899 8.86854L8.769 9.11861C8.77924 9.15099 8.74236 9.17779 8.71475 9.15803L8.50135 9.00553L8.28795 9.15803C8.26034 9.17779 8.22346 9.15099 8.23369 9.11861L8.3128 8.86854L8.10178 8.71272C8.07448 8.69256 8.08854 8.6492 8.12248 8.64893L8.38479 8.6469L8.46776 8.39807C8.47865 8.36584 8.5242 8.36584 8.53494 8.39807Z" fill="#F5F5F5"/>
<path d="M9.54526 0.961641L9.62823 1.21047L9.8905 1.2125C9.92445 1.21277 9.93855 1.25609 9.91124 1.27625L9.70023 1.43207L9.77933 1.68215C9.78956 1.71453 9.75269 1.74129 9.72507 1.72156L9.51167 1.56902L9.29827 1.72156C9.27065 1.74133 9.23378 1.71453 9.24401 1.68215L9.32311 1.43207L9.1121 1.27625C9.08479 1.25609 9.09885 1.21273 9.1328 1.2125L9.39507 1.21047L9.47804 0.961641C9.48897 0.929453 9.53452 0.929453 9.54526 0.961641Z" fill="#F5F5F5"/>
<path d="M9.54526 3.03729L9.62823 3.28612L9.8905 3.28815C9.92445 3.28843 9.93855 3.33175 9.91124 3.35194L9.70023 3.50776L9.77933 3.75784C9.78956 3.79022 9.75269 3.81698 9.72507 3.79726L9.51167 3.64472L9.29827 3.79726C9.27065 3.81702 9.23378 3.79022 9.24401 3.75784L9.32311 3.50776L9.1121 3.35194C9.08479 3.33179 9.09885 3.28843 9.1328 3.28815L9.39507 3.28612L9.47804 3.03729C9.48897 3.00507 9.53452 3.00507 9.54526 3.03729Z" fill="#F5F5F5"/>
<path d="M9.54526 5.33926L9.62823 5.58809L9.8905 5.59012C9.92445 5.59039 9.93855 5.63371 9.91124 5.65391L9.70023 5.80973L9.77933 6.0598C9.78956 6.09218 9.75269 6.11894 9.72507 6.09922L9.51167 5.94672L9.29827 6.09922C9.27065 6.11894 9.23378 6.09218 9.24401 6.0598L9.32311 5.80973L9.1121 5.65391C9.08479 5.63375 9.09885 5.59039 9.1328 5.59012L9.39507 5.58809L9.47804 5.33926C9.48897 5.30704 9.53452 5.30704 9.54526 5.33926Z" fill="#F5F5F5"/>
<path d="M9.54526 7.45441L9.62823 7.70323L9.8905 7.70526C9.92445 7.70554 9.93855 7.74886 9.91124 7.76905L9.70023 7.92487L9.77933 8.17494C9.78956 8.20733 9.75269 8.23408 9.72507 8.21436L9.51167 8.06182L9.29827 8.21436C9.27065 8.23408 9.23378 8.20733 9.24401 8.17494L9.32311 7.92487L9.1121 7.76905C9.08479 7.7489 9.09885 7.70554 9.1328 7.70526L9.39507 7.70323L9.47804 7.45441C9.48897 7.42218 9.53452 7.42218 9.54526 7.45441Z" fill="#F5F5F5"/>
<path d="M9.54526 9.37906L9.62823 9.62788L9.8905 9.62991C9.92445 9.63019 9.93855 9.67351 9.91124 9.6937L9.70023 9.84952L9.77933 10.0996C9.78956 10.132 9.75269 10.1587 9.72507 10.139L9.51167 9.98651L9.29827 10.139C9.27065 10.1587 9.23378 10.132 9.24401 10.0996L9.32311 9.84952L9.1121 9.6937C9.08479 9.67355 9.09885 9.63019 9.1328 9.62991L9.39507 9.62788L9.47804 9.37906C9.48897 9.34683 9.53452 9.34683 9.54526 9.37906Z" fill="#F5F5F5"/>
</svg>
