<svg width="17" height="16" viewBox="0 0 17 16" fill="none" xmlns="http://www.w3.org/2000/svg">
<path d="M15.3222 1.58025C13.2153 -0.52675 9.7869 -0.52675 7.67963 1.58025L1.12863 8.13122C-0.376292 9.63631 -0.376193 12.0852 1.12883 13.5902C1.8814 14.3428 2.86963 14.719 3.85825 14.7189C4.8466 14.7188 5.83535 14.3427 6.5878 13.5902L12.5927 7.58514C13.0302 7.14772 13.2711 6.56611 13.2712 5.94749C13.2712 5.32883 13.0303 4.74726 12.5928 4.3097C11.6897 3.4067 10.2203 3.40673 9.31735 4.30987L5.39037 8.23675C5.08889 8.5382 5.08889 9.02703 5.39031 9.32855C5.69176 9.6301 6.18059 9.63 6.48211 9.32855L10.4091 5.40164C10.7101 5.10061 11.1999 5.10055 11.5009 5.40157C11.6467 5.54738 11.7271 5.74126 11.7271 5.94745C11.7271 6.15365 11.6468 6.34747 11.5009 6.49334L5.496 12.4984C4.59293 13.4013 3.12363 13.4015 2.22063 12.4984C1.31762 11.5954 1.31756 10.126 2.22046 9.22292L8.77143 2.67205C10.2766 1.16697 12.7255 1.16697 14.2304 2.67205C14.9595 3.40109 15.3611 4.37046 15.3611 5.4015C15.3611 6.43255 14.9595 7.40192 14.2304 8.13102L7.67953 14.6821C7.37808 14.9836 7.37808 15.4724 7.6796 15.7739C7.83036 15.9247 8.02794 16 8.22548 16C8.42306 16 8.62064 15.9246 8.7714 15.7739L15.3222 9.22286C16.343 8.20218 16.9051 6.84508 16.9051 5.40154C16.9051 3.95803 16.343 2.60093 15.3222 1.58025Z" fill="white"/>
</svg>
