<svg width="16" height="16" viewBox="0 0 16 16" fill="none" xmlns="http://www.w3.org/2000/svg">
<path d="M8 0C3.5888 0 0 3.58885 0 8.00005C0 12.4112 3.5888 16 8 16C12.4112 16 16 12.4112 16 8.00005C16 3.58885 12.4112 0 8 0ZM8 14.5455C4.39079 14.5455 1.45455 11.6092 1.45455 8.00005C1.45455 4.39088 4.39079 1.45455 8 1.45455C11.6092 1.45455 14.5455 4.39088 14.5455 8.00005C14.5455 11.6092 11.6092 14.5455 8 14.5455Z" fill="#7D818A"/>
<path d="M8.00075 3.39355C7.46616 3.39355 7.03125 3.82875 7.03125 4.36369C7.03125 4.89814 7.46616 5.33295 8.00075 5.33295C8.53535 5.33295 8.97026 4.89814 8.97026 4.36369C8.97026 3.82875 8.53535 3.39355 8.00075 3.39355Z" fill="#7D818A"/>
<path d="M8.00071 6.78809C7.59906 6.78809 7.27344 7.11371 7.27344 7.51536V11.879C7.27344 12.2806 7.59906 12.6063 8.00071 12.6063C8.40236 12.6063 8.72798 12.2806 8.72798 11.879V7.51536C8.72798 7.11371 8.40236 6.78809 8.00071 6.78809Z" fill="#7D818A"/>
</svg>
