<svg width="127" height="40" viewBox="0 0 127 40" fill="none" xmlns="http://www.w3.org/2000/svg">
<path d="M9.07875 3.76497V19.0003H5.93027V3.76497H0.916016V0.970215H14.093V3.76497H9.07875Z" fill="black"/>
<path d="M25.5011 19.0003L22.3526 11.567H19.0098V19.0003H15.8613V0.970215H23.5382C26.6089 0.970215 29.0577 2.93043 29.0577 6.15217C29.0577 8.46172 27.7167 10.2667 25.4428 11.1012L29.0189 19.0003H25.5011ZM23.0523 3.74557H19.0098V8.77225H22.9551C24.646 8.77225 25.8704 7.84067 25.8704 6.15217C25.8704 4.46367 24.7237 3.74557 23.0523 3.74557Z" fill="black"/>
<path d="M42.779 19.0003L41.3603 15.0022H34.6551L33.1975 19.0003H29.8936L36.7347 0.970215H39.2807L46.1024 19.0003H42.779ZM39.2224 8.69462L38.0369 4.98768H37.9591L36.793 8.61699L35.5686 12.3433H40.4274L39.2224 8.69462Z" fill="black"/>
<path d="M54.3044 0.970215C57.0059 0.970215 59.3187 1.96003 60.4459 4.3084C61.0873 5.62815 61.1456 7.45251 61.1456 9.66502C61.1456 12.1881 61.0873 14.0124 60.5042 15.4098C59.3187 18.1269 56.7727 18.9809 53.8574 18.9809H47.7354V0.970215H54.3044ZM50.8838 16.1473H53.974C57.0059 16.1473 58.0165 14.3812 58.0165 11.6641V8.30646C58.0165 5.08472 56.5589 3.8232 53.9157 3.8232H50.8838V16.1473Z" fill="black"/>
<path d="M63.9639 19.0003V0.970215H76.0525V3.8232H67.0929V8.53936H74.7309V11.2953H67.0929V16.1667H76.0525V19.0197H63.9639V19.0003Z" fill="black"/>
<path d="M87.5967 3.8232V8.69462H95.2347V11.4117H87.5967V19.0003H84.4482V0.970215H96.5368V3.8232H87.5967Z" fill="black"/>
<path d="M110.996 7.68549V12.3046C110.996 16.4967 108.353 19.1751 104.252 19.1751C99.7429 19.1751 97.5273 15.9921 97.5273 12.3046V7.68549C97.5273 4.05618 99.7235 0.853856 104.252 0.853856C108.411 0.834448 110.996 3.74566 110.996 7.68549ZM100.695 7.53023V12.3822C100.695 14.3425 101.842 16.2444 104.252 16.2444C106.448 16.2444 107.808 14.5559 107.808 12.3822V7.53023C107.808 5.49238 106.487 3.80388 104.252 3.80388C101.842 3.78447 100.695 5.62824 100.695 7.53023Z" fill="black"/>
<path d="M123.24 19.0003L119.295 12.3433L115.369 19.0003H111.832L117.663 9.78147L112.182 0.970215H115.738L119.295 7.18079L122.891 0.970215H126.428L120.947 9.78147L126.778 19.0003H123.24Z" fill="black"/>
<path d="M8.49556 36.2152L7.69873 33.9833H3.94776L3.13149 36.2152H1.28516L5.11386 26.0842H6.53262L10.3613 36.2152H8.49556ZM6.49375 30.4122L5.83296 28.3356H5.79409L5.1333 30.3734L4.45307 32.4695H7.17398L6.49375 30.4122Z" fill="black"/>
<path d="M12.7323 28.9955V33.2847C12.7323 34.2745 13.1015 34.7597 14.0733 34.7597C14.8507 34.7597 15.4532 34.2162 15.4532 33.2847V28.9955H17.1051V36.1959H15.4532V35.4778H15.4143C14.9867 36.0212 14.2288 36.2735 13.5874 36.2735C12.0909 36.2735 11.1191 35.4584 11.1191 33.7116V28.9761H12.7323V28.9955Z" fill="black"/>
<path d="M21.0121 36.2154C19.9432 36.2154 19.1658 35.5555 19.1658 34.4105V30.3348H18.3301V28.9956H19.1658V27.113H20.7595V28.9956H21.8673V30.3348H20.7789V33.9641C20.7789 34.4687 20.9538 34.7792 21.4397 34.7792H21.9839V36.2154H21.0121Z" fill="black"/>
<path d="M28.6499 30.1213C29.0192 30.6841 29.1941 31.5186 29.1747 32.4891C29.1747 33.5759 29.0192 34.3522 28.6888 34.9345C28.1446 35.8272 27.1146 36.293 25.9873 36.293C24.9184 36.293 24.0244 35.9243 23.4996 35.1674C23.0915 34.5657 22.9166 33.6924 22.936 32.6055C22.936 31.8292 23.0332 31.1111 23.3053 30.5677C23.7912 29.5002 24.8601 28.918 26.1817 28.918C27.2117 28.918 28.1252 29.3449 28.6499 30.1213ZM24.8018 31.2081C24.6269 31.5769 24.5686 32.0621 24.5491 32.6249C24.5491 33.1877 24.588 33.6535 24.7629 34.0029C24.9767 34.4881 25.4237 34.7986 25.9873 34.7986C26.6092 34.7986 27.1146 34.4687 27.3478 33.77C27.4449 33.4983 27.4838 33.1101 27.4838 32.4891C27.4838 31.9456 27.4255 31.5186 27.2895 31.2275C27.0757 30.6647 26.6092 30.393 26.0651 30.393C25.5209 30.393 25.035 30.7035 24.8018 31.2081Z" fill="black"/>
<path d="M32.7894 36.2154C31.7205 36.2154 30.9431 35.5555 30.9431 34.4105V30.3348H30.1074V28.9956H30.9431V27.113H32.5368V28.9956H33.6446V30.3348H32.5562V33.9641C32.5562 34.4687 32.7311 34.7792 33.217 34.7792H33.7612V36.2154H32.7894Z" fill="black"/>
<path d="M36.6569 31.8874V36.2154H35.0049V28.9956H36.618V29.8496H36.6763C37.1039 29.2285 37.7064 28.918 38.4255 28.918C38.9696 28.918 39.3972 29.015 39.7859 29.2867L39.1834 30.7617C38.7753 30.5094 38.3866 30.4318 37.9979 30.4318C37.2205 30.4512 36.6569 30.9558 36.6569 31.8874Z" fill="black"/>
<path d="M45.8304 31.3246V36.2154H44.1784V35.5749L44.159 35.5555C43.7703 36.0601 43.0123 36.2736 42.2738 36.2736C40.7385 36.2736 39.7861 35.4973 39.7861 34.0999C39.7861 32.9354 40.6218 31.9262 42.2349 31.9262H44.1784V31.4022C44.1784 30.8588 43.8675 30.3736 42.7597 30.3736C41.9823 30.3736 41.4575 30.5677 41.0494 30.9752L40.1748 29.869C40.8745 29.1703 41.8462 28.918 42.8569 28.918C44.47 28.9374 45.8304 29.4614 45.8304 31.3246ZM42.6236 34.8762C43.3622 34.8762 44.0813 34.6433 44.159 33.867C44.1784 33.7506 44.1784 33.6341 44.1784 33.1877H42.507C41.6713 33.1877 41.3409 33.5371 41.3409 33.9835C41.3409 34.4299 41.6713 34.8762 42.6236 34.8762Z" fill="black"/>
<path d="M51.4861 36.2153V35.5555L51.4667 35.536C50.9808 36.0795 50.2811 36.3124 49.6592 36.3124C47.3658 36.3124 47.0938 34.3522 47.0938 32.586C47.0938 30.9363 47.6185 28.9567 49.8341 28.9567C50.456 28.9567 51.0974 29.1896 51.4667 29.6554L51.4861 29.636V25.6768H53.1381V36.2347H51.4861V36.2153ZM50.1645 30.49C48.9012 30.49 48.7846 31.7321 48.7846 32.7025C48.7846 33.5952 48.9207 34.7403 50.1451 34.7403C51.3695 34.7403 51.5055 33.4788 51.5055 32.6054C51.4861 31.6933 51.3695 30.49 50.1645 30.49Z" fill="black"/>
<path d="M54.7119 27.5981V26.0842H56.3639V27.5981H54.7119ZM54.7119 36.2152V29.0148H56.3639V36.2152H54.7119Z" fill="black"/>
<path d="M62.37 36.2153V31.9455C62.37 31.0333 61.9619 30.4899 61.0485 30.4899C60.2711 30.4899 59.6686 31.0333 59.6686 31.9455V36.2153H58.0166V28.9955H59.6686V29.7524H59.688C60.1545 29.2284 60.9124 28.9373 61.5732 28.9373C63.0503 28.9373 64.022 29.7912 64.022 31.4797V36.2153H62.37Z" fill="black"/>
<path d="M71.3676 28.9955V35.9047C71.3676 38.3307 70.046 39.1459 68.1414 39.1459C67.4223 39.1459 66.3728 38.9518 65.6343 38.2725L66.4894 37.0692C66.9753 37.4186 67.5584 37.6515 68.258 37.6515C69.152 37.6515 69.7351 37.1274 69.7351 36.1765V35.5166H69.7157C69.2492 36.06 68.5884 36.2929 67.9859 36.2929C65.7509 36.2929 65.3428 34.4103 65.3428 32.78C65.3428 31.0721 65.6732 28.9373 68.0442 28.9373C68.6662 28.9373 69.3075 29.1507 69.7157 29.6554H69.7545V28.9955H71.3676ZM68.3941 34.7403C69.599 34.7403 69.7545 33.537 69.7545 32.6248C69.7545 31.7902 69.6768 30.4899 68.4135 30.4899C67.1502 30.4899 67.0336 31.6738 67.0336 32.6248C67.0142 33.6534 67.1308 34.7403 68.3941 34.7403Z" fill="black"/>
<path d="M79.0451 36.293C77.9761 36.293 76.9072 36.0795 75.916 35.2062L76.81 34.0223C77.4903 34.6434 78.2677 34.8762 79.1228 34.8762C79.8225 34.8762 80.3666 34.5657 80.3666 34.0417C80.3666 33.5565 79.9779 33.3236 79.0839 33.2266C77.8012 33.0907 76.3436 32.8578 76.3436 31.1693C76.3436 29.6943 77.5874 28.918 79.0451 28.918C80.1334 28.918 81.0274 29.1315 81.8048 29.7331L81.0274 30.9752C80.3472 30.5288 79.667 30.3542 79.0839 30.3542C78.3065 30.3542 77.9178 30.7035 77.9178 31.1305C77.9178 31.6157 78.4426 31.7904 79.6281 31.9068C80.8136 32.0427 81.9797 32.4696 81.9797 33.9835C81.9797 35.4585 80.6582 36.293 79.0451 36.293Z" fill="black"/>
<path d="M85.9447 37.671C85.5366 38.7773 84.7203 39.1266 83.8457 39.1266H83.2432V37.7486H83.6902C84.1178 37.7486 84.4093 37.3993 84.5648 36.9917L84.9341 35.8661L82.2715 28.9956H84.0401L84.973 31.6351L85.692 33.9058H85.7504L86.4695 31.6739L87.3829 28.9956H89.1126L85.9447 37.671Z" fill="black"/>
<path d="M92.3195 36.293C91.2505 36.293 90.1816 36.0795 89.1904 35.2062L90.0844 34.0223C90.7647 34.6434 91.5421 34.8762 92.3972 34.8762C93.0969 34.8762 93.641 34.5657 93.641 34.0417C93.641 33.5565 93.2524 33.3236 92.3583 33.2266C91.0756 33.0907 89.618 32.8578 89.618 31.1693C89.618 29.6943 90.8618 28.918 92.3195 28.918C93.4078 28.918 94.3018 29.1315 95.0792 29.7331L94.3018 30.9752C93.6216 30.5288 92.9414 30.3542 92.3583 30.3542C91.5809 30.3542 91.1922 30.7035 91.1922 31.1305C91.1922 31.6157 91.717 31.7904 92.9025 31.9068C94.0881 32.0427 95.2542 32.4696 95.2542 33.9835C95.2542 35.4585 93.9326 36.293 92.3195 36.293Z" fill="black"/>
<path d="M98.6938 36.2154C97.6248 36.2154 96.8474 35.5555 96.8474 34.4105V30.3348H96.0117V28.9956H96.8474V27.113H98.4411V28.9956H99.5489V30.3348H98.4605V33.9641C98.4605 34.4687 98.6355 34.7792 99.1213 34.7792H99.6655V36.2154H98.6938Z" fill="black"/>
<path d="M102.231 33.0712C102.231 33.9639 102.697 34.7985 103.766 34.7985C104.194 34.7985 104.932 34.6044 105.477 34.1192C105.826 34.5074 106.079 34.8761 106.429 35.2643C105.632 36.0018 104.602 36.2735 103.708 36.2735C102.173 36.2735 100.54 35.5554 100.54 32.6054C100.54 29.83 102.192 28.8984 103.689 28.8984C105.632 28.8984 106.798 30.257 106.798 32.3531V33.0712H102.231ZM102.25 31.9067H105.01C104.952 30.9363 104.388 30.4123 103.65 30.4123C102.892 30.4123 102.348 30.9751 102.25 31.9067Z" fill="black"/>
<path d="M116.827 36.2154V31.9262C116.827 31.014 116.399 30.4512 115.466 30.4512C114.708 30.4512 114.106 31.0529 114.106 31.9262V36.2154H112.454V31.9262C112.454 31.014 112.007 30.4512 111.093 30.4512C110.336 30.4512 109.733 31.0529 109.733 31.9262V36.2154H108.081V29.015H109.733V29.7913C109.752 29.7913 109.772 29.8107 109.772 29.8107C110.199 29.2673 110.977 28.9568 111.696 28.9568C112.59 28.9568 113.251 29.2867 113.698 29.9854C114.3 29.3449 115.097 28.9568 115.991 28.9568C117.449 28.9568 118.459 29.8496 118.459 31.4798V36.2154H116.827Z" fill="black"/>
<path d="M122.56 36.293C121.491 36.293 120.422 36.0795 119.431 35.2062L120.325 34.0223C121.005 34.6434 121.782 34.8762 122.637 34.8762C123.337 34.8762 123.881 34.5657 123.881 34.0417C123.881 33.5565 123.493 33.3236 122.599 33.2266C121.316 33.0907 119.858 32.8578 119.858 31.1693C119.858 29.6943 121.102 28.918 122.56 28.918C123.648 28.918 124.542 29.1315 125.319 29.7331L124.542 30.9752C123.862 30.5288 123.182 30.3542 122.599 30.3542C121.821 30.3542 121.432 30.7035 121.432 31.1305C121.432 31.6157 121.957 31.7904 123.143 31.9068C124.328 32.0427 125.494 32.4696 125.494 33.9835C125.494 35.4585 124.173 36.293 122.56 36.293Z" fill="black"/>
</svg>
