<svg width="18" height="18" viewBox="0 0 18 18" fill="none" xmlns="http://www.w3.org/2000/svg">
<path d="M14.8416 6.207V5.18538L13.6552 5.08651C13.5728 4.64161 13.408 4.24614 13.1938 3.86715L13.9847 2.92791L13.029 1.98867L12.1227 2.74665C11.7602 2.49949 11.3648 2.31823 10.9363 2.21936L10.8375 1H9.48628L9.38742 2.18641C8.94251 2.26879 8.53057 2.43357 8.16805 2.64779L7.22881 1.85685L6.28958 2.81256L7.06404 3.71885C6.81687 4.08136 6.63561 4.47683 6.53674 4.90525L5.31738 5.00412V6.19053" stroke="#fff"/>
<path d="M8.2174 6.20692C8.20092 6.05862 8.16797 5.91032 8.16797 5.7785C8.16797 4.72392 9.02482 3.88354 10.0629 3.88354C11.1175 3.88354 11.9579 4.74039 11.9579 5.7785C11.9579 5.9268 11.9414 6.0751 11.9084 6.20692" stroke="#fff"/>
<path d="M6.48699 15.6324C6.48699 16.5057 5.77844 17.2143 4.90512 17.2143C4.03179 17.2143 3.32324 16.5057 3.32324 15.6324C3.32324 14.7591 4.03179 14.0505 4.90512 14.0505C5.77844 14.0505 6.48699 14.7591 6.48699 15.6324Z" stroke="#fff"/>
<path d="M14.3473 15.6324C14.3473 16.5057 13.6388 17.2143 12.7655 17.2143C11.8921 17.2143 11.1836 16.5057 11.1836 15.6324C11.1836 14.7591 11.8921 14.0505 12.7655 14.0505C13.6388 14.0505 14.3473 14.7591 14.3473 15.6324Z" stroke="#fff"/>
<path d="M6.71777 15.6323H11.1833" stroke="#fff"/>
<path d="M1 4.46045L3.14212 5.07013L4.5 12.5181L5.1689 14.0011" stroke="#fff"/>
<path d="M15.0392 12.0402C15.0392 12.3203 14.8085 12.518 14.5284 12.518H4.5L3.5 7.0144H16.4892L15.0392 12.0402Z" stroke="#fff"/>
<path d="M5.5 8.84351H14.3141" stroke="#fff"/>
<path d="M6 10.6233H13.7868" stroke="#fff"/>
</svg>
