<svg width="18" height="18" viewBox="0 0 18 18" fill="none" xmlns="http://www.w3.org/2000/svg">
<path d="M5.77019 7.95652H3.18634C1.99379 7.95652 1 6.96273 1 5.77019V3.18634C1 1.99379 1.99379 1 3.18634 1H5.77019C6.96273 1 7.95652 1.99379 7.95652 3.18634V5.77019C7.95652 6.96273 6.96273 7.95652 5.77019 7.95652Z" stroke="white" stroke-miterlimit="10"/>
<path d="M14.8132 7.95652H12.2293C11.0368 7.95652 10.043 6.96273 10.043 5.77019V3.18634C10.043 1.99379 11.0368 1 12.2293 1H14.8132C16.0057 1 16.9995 1.99379 16.9995 3.18634V5.77019C16.9995 6.96273 16.0057 7.95652 14.8132 7.95652Z" stroke="white" stroke-miterlimit="10"/>
<path d="M5.77019 17.0002H3.18634C1.99379 17.0002 1 16.0064 1 14.8139V12.23C1 11.0375 1.99379 10.0437 3.18634 10.0437H5.77019C6.96273 10.0437 7.95652 11.0375 7.95652 12.23V14.8139C7.95652 16.0064 6.96273 17.0002 5.77019 17.0002Z" stroke="white" stroke-miterlimit="10"/>
<path d="M14.8132 17.0002H12.2293C11.0368 17.0002 10.043 16.0064 10.043 14.8139V12.23C10.043 11.0375 11.0368 10.0437 12.2293 10.0437H14.8132C16.0057 10.0437 16.9995 11.0375 16.9995 12.23V14.8139C16.9995 16.0064 16.0057 17.0002 14.8132 17.0002Z" stroke="white" stroke-miterlimit="10"/>
</svg>
