<svg width="246" height="135" viewBox="0 0 246 135" fill="none" xmlns="http://www.w3.org/2000/svg">
<path d="M128.68 89.487L128.881 24.1665L128.781 13.7517C128.781 11.3249 129.886 7.78587 135.617 7.48253C136.22 7.2803 136.823 7.2803 137.426 7.2803L246 15.8751V0H0V106.07C37.3976 105.059 55.9959 82.6112 93.6951 82.4089C107.669 82.3078 118.828 85.3413 128.68 89.487Z" fill="url(#paint0_linear)"/>
<path d="M23.8971 127.709C49.702 126.597 64.9641 119.114 91.6727 116.081C103.42 114.766 111.654 113.957 124.004 114.665C125.51 114.766 126.916 114.867 128.322 114.968L128.422 89.4872C118.582 85.3415 107.437 82.4092 93.48 82.4092C55.9273 82.7125 37.3518 105.059 0 106.07V127.507C8.73551 128.417 16.6678 128.012 23.8971 127.709Z" fill="url(#paint1_linear)"/>
<path d="M23.8971 127.709C49.702 126.597 64.9641 119.114 91.6727 116.081C103.42 114.766 111.654 113.957 124.004 114.665C125.51 114.766 126.916 114.867 128.322 114.968L128.422 89.4872C118.582 85.3415 107.437 82.4092 93.48 82.4092C55.9273 82.7125 37.3518 105.059 0 106.07V127.507C8.73551 128.417 16.6678 128.012 23.8971 127.709Z" fill="#145F55"/>
<path d="M245.798 127.506L144.587 128.315L135.851 128.416C130.63 128.517 128.421 125.686 128.421 123.158V115.069C127.016 114.968 125.509 114.866 124.104 114.765C111.753 114.057 103.52 114.866 91.7723 116.181C64.9633 119.214 49.8016 126.596 23.9968 127.809C16.667 128.113 8.83512 128.517 0.0996094 127.708V135.999H245.899V127.506H245.798Z" fill="url(#paint2_linear)"/>
<path opacity="0.32" d="M245.798 127.506L144.587 128.315L135.851 128.416C130.63 128.517 128.421 125.686 128.421 123.158V115.069C127.016 114.968 125.509 114.866 124.104 114.765C111.753 114.057 103.52 114.866 91.7723 116.181C64.9633 119.214 49.8016 126.596 23.9968 127.809C16.667 128.113 8.83512 128.517 0.0996094 127.708V135.999H245.899V127.506H245.798Z" fill="#6165D7"/>
<path d="M245.999 126.507L144.705 127.316L135.962 127.417C130.737 127.518 128.526 124.687 128.526 122.159V114.07C127.119 113.969 125.612 113.867 124.205 113.766C111.845 113.058 103.605 113.867 91.8472 115.182C65.0163 118.215 49.8423 125.597 24.0163 126.81C16.6805 127.113 8.84226 127.518 0.0996094 126.709V135H246.1V126.507H245.999Z" fill="#124E4F"/>
<path d="M131.836 123.664L132.137 23.6611L128.723 24.1667L128.522 89.4872L128.422 114.968V123.057C128.422 125.585 130.631 128.518 135.852 128.315L144.588 128.214L136.957 128.315C134.145 128.315 131.836 126.293 131.836 123.664Z" fill="black"/>
<path d="M132.238 11.6281C132.238 9.60584 133.643 8.08911 135.451 7.48242C129.728 7.78577 128.623 11.3248 128.623 13.7516L128.723 24.1664L132.137 23.6609L132.238 11.6281Z" fill="#1A1B1D"/>
<path d="M132.137 23.6611L131.836 123.664C131.836 126.192 134.145 128.315 136.856 128.315L144.487 128.214L245.699 127.405V118.507H209.251C207.945 118.507 206.941 117.496 206.941 116.283L207.142 82.308C207.142 81.1957 207.945 80.3868 209.05 80.1846C209.451 79.9823 209.853 79.8812 210.255 79.8812L245.699 80.8924V76.0388L209.953 74.8254C208.648 74.8254 207.644 73.7132 207.644 72.4998L207.845 38.424C207.845 37.3117 208.749 36.4017 209.853 36.3005C210.154 36.0983 210.556 35.9972 211.058 36.0983L239.976 37.9184V37.7162L240.98 37.8173V38.0195L245.799 38.3228V31.3459L132.137 23.6611ZM200.314 62.186H200.013V71.8931C200.013 73.0054 199.109 73.9154 198.005 74.0165C197.704 74.2187 197.302 74.3199 196.9 74.2188L145.19 72.4998C143.785 72.4998 142.68 71.3875 142.68 70.073L142.78 34.2782C142.78 33.166 143.684 32.2559 144.889 32.0537C145.291 31.8515 145.692 31.7504 146.194 31.7504L170.995 33.2671V33.0649L172.1 33.166V33.3682L198.005 34.986C199.31 35.0872 200.314 36.0983 200.314 37.4128L200.214 60.9727H200.515L200.314 62.186ZM142.379 116.283L142.479 80.589C142.479 79.4767 143.282 78.5667 144.487 78.3645C144.889 78.1622 145.391 78.0611 145.893 78.0611L197.603 79.5779C198.909 79.5779 199.913 80.6901 199.913 81.9035L199.812 104.857H200.214V105.868H199.812L199.712 116.08C199.712 117.193 198.909 118.103 197.804 118.305C197.402 118.507 197.001 118.608 196.599 118.608H144.889C143.483 118.608 142.379 117.597 142.379 116.283Z" fill="#1A1B1D"/>
<path d="M137.358 7.2799C136.756 7.17879 136.053 7.2799 135.551 7.48213C133.643 7.98771 132.338 9.60555 132.338 11.6279V23.7617L245.799 31.3453V15.8747L137.358 7.2799ZM142.278 18.6048C140.873 18.5037 139.768 17.3914 139.768 16.0769C139.768 14.7624 140.873 13.8524 142.278 13.9535C143.684 14.0546 144.788 15.1669 144.788 16.4814C144.788 17.6948 143.684 18.7059 142.278 18.6048ZM153.022 19.3126C151.616 19.2115 150.512 18.0992 150.612 16.8859C150.612 15.5714 151.717 14.6613 153.122 14.7624C154.528 14.8635 155.532 15.9758 155.532 17.1892C155.532 18.5037 154.428 19.4137 153.022 19.3126ZM163.665 20.1215C162.36 20.0204 161.255 18.9082 161.255 17.6948C161.255 16.4814 162.36 15.4702 163.665 15.5714C164.971 15.6725 166.075 16.7847 166.075 17.9981C166.075 19.2115 164.971 20.2227 163.665 20.1215Z" fill="#2E2E33"/>
<path d="M142.278 13.954C140.872 13.8528 139.768 14.7629 139.768 16.0774C139.768 17.3919 140.872 18.5041 142.278 18.6053C143.683 18.7064 144.788 17.7963 144.788 16.4818C144.788 15.1673 143.683 14.0551 142.278 13.954Z" fill="white"/>
<path d="M153.022 14.7625C151.616 14.6614 150.512 15.5715 150.512 16.886C150.512 18.2005 151.616 19.3127 152.922 19.3127C154.327 19.4138 155.432 18.5038 155.432 17.1893C155.532 15.9759 154.428 14.8637 153.022 14.7625Z" fill="white"/>
<path d="M163.666 15.5721C162.36 15.471 161.256 16.381 161.256 17.6955C161.256 18.9089 162.36 20.0212 163.666 20.1223C164.971 20.2234 166.075 19.3134 166.075 17.9989C166.075 16.7855 164.971 15.6732 163.666 15.5721Z" fill="white"/>
<path d="M196.599 118.608C197.001 118.608 197.403 118.507 197.804 118.305C197.704 118.305 197.503 118.305 197.403 118.305H145.692C144.287 118.305 143.182 117.294 143.182 115.979V105.261V104.25L143.283 80.2854C143.283 79.4765 143.785 78.7687 144.487 78.3643C143.383 78.5665 142.58 79.4765 142.479 80.5888L142.379 116.282C142.379 117.597 143.483 118.608 144.889 118.608H196.599Z" fill="black"/>
<path d="M143.282 80.2856L143.182 104.25L199.711 104.756L199.812 81.8023C199.812 80.589 198.808 79.4767 197.502 79.4767L145.792 77.96C145.29 77.96 144.788 78.0611 144.387 78.2633C143.784 78.7689 143.282 79.4767 143.282 80.2856ZM195.293 100.61L149.507 100.003V95.9585L195.293 96.6663V100.61ZM195.293 94.5429L149.608 93.7339V82.3079L195.394 83.5213L195.293 94.5429Z" fill="#2E2E33"/>
<path d="M143.182 105.261V115.979C143.182 117.293 144.286 118.305 145.692 118.305H197.402C197.502 118.305 197.703 118.305 197.804 118.305C198.908 118.102 199.711 117.192 199.711 116.08L199.812 105.867L143.182 105.261ZM149.407 108.598C149.407 108.496 149.507 108.395 149.608 108.395L164.167 108.496C164.267 108.496 164.368 108.598 164.368 108.699V110.418C164.368 110.519 164.267 110.62 164.167 110.62L149.608 110.519C149.507 110.519 149.407 110.418 149.407 110.317V108.598ZM177.722 114.361C177.722 114.462 177.622 114.563 177.521 114.563L149.507 114.462C149.407 114.462 149.307 114.361 149.307 114.26V112.541C149.307 112.44 149.407 112.339 149.507 112.339L177.521 112.44C177.622 112.44 177.722 112.541 177.722 112.642V114.361Z" fill="#2E2E33"/>
<path d="M143.182 104.25V105.261L199.711 105.767H200.113V104.857H199.711L143.182 104.25Z" fill="white"/>
<path d="M149.607 93.7336L195.293 94.5426L195.394 83.521L149.607 82.3076V93.7336Z" fill="black"/>
<path d="M149.508 100.003L195.294 100.609V96.6658L149.608 95.958L149.508 100.003Z" fill="black"/>
<path d="M149.507 110.519L164.067 110.62C164.167 110.62 164.267 110.519 164.267 110.418V108.699C164.267 108.598 164.167 108.497 164.067 108.497L149.507 108.396C149.407 108.396 149.307 108.497 149.307 108.598V110.317C149.407 110.418 149.507 110.519 149.507 110.519Z" fill="#2E2E33"/>
<path d="M149.507 110.519L164.067 110.62C164.167 110.62 164.267 110.519 164.267 110.418V108.699C164.267 108.598 164.167 108.497 164.067 108.497L149.507 108.396C149.407 108.396 149.307 108.497 149.307 108.598V110.317C149.407 110.418 149.507 110.519 149.507 110.519Z" fill="url(#paint3_linear)"/>
<path d="M177.521 112.44L149.507 112.339C149.407 112.339 149.307 112.44 149.307 112.541V114.26C149.307 114.361 149.407 114.462 149.507 114.462L177.521 114.563C177.622 114.563 177.722 114.462 177.722 114.361V112.642C177.722 112.541 177.622 112.44 177.521 112.44Z" fill="black"/>
<path d="M145.793 72.3981C144.387 72.3981 143.283 71.2858 143.283 69.9713V59.8598V58.8486L143.383 34.2776C143.383 33.4687 143.885 32.6598 144.588 32.3564C143.383 32.4576 142.479 33.3676 142.479 34.581L142.379 70.3758C142.379 71.6903 143.483 72.8025 144.889 72.8025L196.599 74.5215C197.001 74.5215 197.403 74.4204 197.704 74.3193C197.603 74.3193 197.503 74.3193 197.403 74.3193L145.793 72.3981Z" fill="black"/>
<path d="M171.799 60.063L200.014 61.2763L200.114 37.7165C200.114 36.5031 199.11 35.3908 197.805 35.2897L171.899 33.6719L171.799 60.063ZM195.696 57.6362L191.278 57.434L191.378 38.1209L195.796 38.4243L195.696 57.6362ZM183.948 37.7165L188.366 38.0198L188.266 57.434L183.848 57.2317L183.948 45.8057V37.7165ZM180.836 57.0295L176.317 56.8273L176.418 37.312L180.936 37.6154L180.836 57.0295Z" fill="#2E2E33"/>
<path d="M143.483 34.1767L143.383 58.7477L170.694 59.86L170.794 33.4689L145.993 31.9521C145.491 31.9521 145.09 32.0533 144.688 32.2555C143.985 32.66 143.483 33.3678 143.483 34.1767ZM165.874 56.6243L149.709 55.9165V51.2652L165.874 52.0741V56.6243ZM165.874 49.5462L149.709 48.7373V35.5923L165.874 36.6034V49.5462Z" fill="#2E2E33"/>
<path d="M143.383 59.8604V69.9719C143.383 71.2864 144.487 72.3986 145.893 72.3986L197.603 74.1176C197.704 74.1176 197.804 74.1176 197.904 74.1176C199.009 74.0165 199.913 73.1064 199.913 71.9942V62.2871L143.383 59.8604ZM149.608 63.3994C149.608 63.2983 149.709 63.1972 149.809 63.1972L157.741 63.5005C157.842 63.5005 157.942 63.6016 157.942 63.7027V65.4217C157.942 65.5228 157.842 65.6239 157.741 65.5228L149.809 65.2195C149.709 65.2195 149.608 65.1183 149.608 65.0172V63.3994ZM169.389 69.7696C169.389 69.8708 169.288 69.9719 169.188 69.8708L149.608 69.163C149.508 69.163 149.407 69.0618 149.407 68.9607V67.2418C149.407 67.1406 149.508 67.0395 149.608 67.0395L169.188 67.7473C169.288 67.7473 169.389 67.8485 169.389 67.9496V69.7696Z" fill="#2E2E33"/>
<path d="M171.799 60.062V60.6687H170.695V59.9609L143.384 58.8486H143.283V59.8598H143.384L199.913 62.1854H200.315V61.2754L199.913 61.1743L171.799 60.062Z" fill="white"/>
<path d="M170.693 59.961V60.6688H171.798V60.0621L171.898 33.5699V33.3677L170.794 33.2666V33.5699L170.693 59.961Z" fill="white"/>
<path d="M149.709 48.7372L165.875 49.5461L165.975 36.6034L149.809 35.6934L149.709 48.7372Z" fill="black"/>
<path d="M149.709 55.9164L165.875 56.6242V52.074L149.709 51.3662V55.9164Z" fill="black"/>
<path d="M149.709 65.3202L157.641 65.6235C157.741 65.6235 157.842 65.5224 157.842 65.5224V63.8034C157.842 63.7023 157.741 63.6012 157.641 63.6012L149.709 63.2979C149.608 63.2979 149.508 63.399 149.508 63.5001V65.219C149.508 65.219 149.608 65.219 149.709 65.3202Z" fill="#2E2E33"/>
<path d="M149.709 65.3202L157.641 65.6235C157.741 65.6235 157.842 65.5224 157.842 65.5224V63.8034C157.842 63.7023 157.741 63.6012 157.641 63.6012L149.709 63.2979C149.608 63.2979 149.508 63.399 149.508 63.5001V65.219C149.508 65.219 149.608 65.219 149.709 65.3202Z" fill="url(#paint4_linear)"/>
<path d="M169.288 67.8484L149.709 67.1406C149.608 67.1406 149.508 67.2417 149.508 67.3429V69.0618C149.508 69.1629 149.608 69.264 149.709 69.264L169.288 69.9718C169.389 69.9718 169.489 69.8707 169.489 69.8707V68.1518C169.389 67.9495 169.389 67.8484 169.288 67.8484Z" fill="black"/>
<path d="M176.316 56.8268V48.4343C177.019 48.4343 177.722 48.3332 178.525 48.1309C179.429 47.9287 180.132 47.7265 180.734 47.4231V56.928L180.835 37.4127L176.316 37.1094V56.8268Z" fill="white"/>
<path d="M188.365 44.2883L188.265 57.4333L188.365 38.0192L183.947 37.7158V45.7039C184.55 45.2995 185.152 44.895 185.855 44.6928C186.457 44.3894 187.261 44.2883 188.365 44.2883Z" fill="white"/>
<path d="M191.277 57.4331L191.378 44.5915C192.683 44.8948 194.089 45.4004 195.796 46.2093L195.695 57.6354L195.796 38.4235L191.378 38.1201L191.277 57.4331Z" fill="white"/>
<path d="M178.627 48.1311C177.824 48.3333 177.02 48.3333 176.418 48.4345V56.827L180.936 57.0292V47.5244C180.233 47.7266 179.43 47.9289 178.627 48.1311Z" fill="white"/>
<path d="M178.627 48.1311C177.824 48.3333 177.02 48.3333 176.418 48.4345V56.827L180.936 57.0292V47.5244C180.233 47.7266 179.43 47.9289 178.627 48.1311Z" fill="url(#paint5_linear)"/>
<path d="M188.266 57.3325L188.366 44.1875C187.362 44.1875 186.458 44.3897 185.856 44.592C185.153 44.8953 184.551 45.1987 183.948 45.6031L183.848 57.0291L188.266 57.3325Z" fill="white"/>
<path d="M188.266 57.3325L188.366 44.1875C187.362 44.1875 186.458 44.3897 185.856 44.592C185.153 44.8953 184.551 45.1987 183.948 45.6031L183.848 57.0291L188.266 57.3325Z" fill="url(#paint6_linear)"/>
<path d="M191.278 44.5918L191.178 57.4334L195.596 57.6357L195.696 46.2096C193.989 45.5018 192.583 44.9963 191.278 44.5918Z" fill="white"/>
<path d="M191.278 44.5918L191.178 57.4334L195.596 57.6357L195.696 46.2096C193.989 45.5018 192.583 44.9963 191.278 44.5918Z" fill="url(#paint7_linear)"/>
<path d="M210.054 118.304C208.749 118.304 207.745 117.293 207.745 116.08L207.945 82.1052C207.945 81.2963 208.347 80.5885 209.05 80.2852C207.945 80.4874 207.243 81.2963 207.142 82.4086L206.941 116.383C206.941 117.597 207.945 118.608 209.251 118.608H245.699V118.304H210.054Z" fill="black"/>
<path d="M210.254 79.8809C209.752 79.8809 209.351 79.982 209.049 80.1842C208.447 80.5887 207.945 81.2965 207.945 82.0043L207.744 115.979C207.744 117.192 208.748 118.204 210.054 118.204H245.698V106.171L207.744 105.867V104.856L245.698 105.261V101.216L238.067 101.115V94.3403L245.598 94.4415V88.3745C245.397 88.3745 245.196 88.4757 244.996 88.4757C243.389 88.779 242.285 89.1835 241.381 89.4868C239.975 89.9924 238.77 90.3968 236.662 90.3968C235.156 90.3968 234.151 90.0935 233.348 89.8913C232.244 89.5879 231.44 89.3857 230.035 89.7902C228.729 90.0935 228.127 90.5991 227.424 91.0035C226.721 91.5091 226.018 92.0147 224.713 92.1158C223.006 92.2169 221.902 91.6102 220.898 91.1046C219.994 90.5991 219.191 90.1946 218.187 90.2957C216.379 90.3968 214.672 92.1158 213.066 95.1493C212.965 95.3515 212.865 95.3515 212.664 95.3515C212.564 95.3515 212.564 95.3515 212.463 95.2504C212.263 95.1493 212.162 94.8459 212.263 94.6437C214.07 91.3069 215.978 89.4868 218.086 89.3857C219.391 89.2846 220.396 89.7902 221.299 90.2957C222.303 90.8013 223.207 91.3069 224.613 91.2058C225.717 91.1046 226.219 90.7002 226.822 90.1946C227.525 89.689 228.227 89.0823 229.734 88.779C231.34 88.3745 232.344 88.6779 233.449 88.8801C234.252 89.0823 235.256 89.2846 236.561 89.2846C238.569 89.2846 239.574 88.8801 240.879 88.3745C241.883 87.9701 242.987 87.5656 244.594 87.2623C244.895 87.1612 245.096 87.1612 245.397 87.1612V80.892L210.254 79.8809ZM242.385 112.844V114.462C242.385 114.563 242.285 114.563 242.285 114.563L214.17 114.462C214.07 114.462 213.969 114.361 213.969 114.361V112.743C213.969 112.642 214.07 112.642 214.17 112.642L242.285 112.743C242.385 112.743 242.385 112.844 242.385 112.844ZM229.734 109.002C229.834 109.002 229.934 109.103 229.934 109.103V110.721C229.934 110.822 229.834 110.822 229.734 110.822L214.17 110.721C214.07 110.721 213.969 110.62 213.969 110.519V108.901C213.969 108.8 214.07 108.8 214.17 108.8L229.734 109.002ZM222.805 85.6444C222.805 85.7455 222.705 85.7455 222.605 85.7455L214.17 85.5433C214.07 85.5433 213.969 85.4422 213.969 85.3411V83.7232C213.969 83.6221 214.07 83.6221 214.17 83.6221L222.605 83.8244C222.705 83.8244 222.805 83.9255 222.805 84.0266V85.6444Z" fill="#2E2E33"/>
<path d="M207.846 104.856V105.868L245.8 106.272V105.261L207.846 104.856Z" fill="white"/>
<path d="M213.971 109.002V110.62C213.971 110.721 214.071 110.721 214.172 110.822L229.735 110.923C229.835 110.923 229.936 110.822 229.936 110.822V109.204C229.936 109.103 229.835 109.103 229.735 109.103L214.071 109.002C214.071 108.901 213.971 109.002 213.971 109.002Z" fill="#2E2E33"/>
<path d="M213.971 109.002V110.62C213.971 110.721 214.071 110.721 214.172 110.822L229.735 110.923C229.835 110.923 229.936 110.822 229.936 110.822V109.204C229.936 109.103 229.835 109.103 229.735 109.103L214.071 109.002C214.071 108.901 213.971 109.002 213.971 109.002Z" fill="url(#paint8_linear)"/>
<path d="M214.172 112.643C214.071 112.643 213.971 112.744 213.971 112.744V114.362C213.971 114.463 214.071 114.463 214.172 114.463L242.286 114.564C242.386 114.564 242.386 114.463 242.386 114.463V112.845C242.386 112.744 242.286 112.744 242.286 112.744L214.172 112.643Z" fill="black"/>
<path d="M244.996 87.6666C243.289 87.9699 242.184 88.3744 241.281 88.7788C239.975 89.2844 238.871 89.6889 236.963 89.6889C235.557 89.6889 234.654 89.4866 233.851 89.2844C232.746 88.9811 231.742 88.7788 230.135 89.1833C228.629 89.4866 227.926 90.0933 227.224 90.5989C226.521 91.1045 226.019 91.5089 225.015 91.6101C223.609 91.7112 222.705 91.2056 221.701 90.7C220.797 90.1944 219.793 89.6889 218.488 89.79C216.379 89.9922 214.371 91.7112 212.664 95.048C212.564 95.2502 212.664 95.5536 212.865 95.6547C212.966 95.6547 212.966 95.6547 213.066 95.7558C213.267 95.7558 213.367 95.6547 213.468 95.5536C215.074 92.5201 216.781 90.9023 218.588 90.7C219.593 90.5989 220.396 91.0034 221.299 91.5089C222.304 92.0145 223.408 92.7223 225.115 92.5201C226.42 92.419 227.123 91.9134 227.826 91.4078C228.428 90.9023 229.131 90.4978 230.437 90.1944C231.842 89.8911 232.646 90.0933 233.75 90.2956C234.654 90.4978 235.557 90.7 237.064 90.8011C239.172 90.8011 240.377 90.3967 241.783 89.8911C242.686 89.4866 243.791 89.0822 245.397 88.88C245.598 88.88 245.799 88.7788 246 88.7788V87.8688C245.498 87.5655 245.197 87.6666 244.996 87.6666Z" fill="#2E2E33"/>
<path d="M244.996 87.6666C243.289 87.9699 242.184 88.3744 241.281 88.7788C239.975 89.2844 238.871 89.6889 236.963 89.6889C235.557 89.6889 234.654 89.4866 233.851 89.2844C232.746 88.9811 231.742 88.7788 230.135 89.1833C228.629 89.4866 227.926 90.0933 227.224 90.5989C226.521 91.1045 226.019 91.5089 225.015 91.6101C223.609 91.7112 222.705 91.2056 221.701 90.7C220.797 90.1944 219.793 89.6889 218.488 89.79C216.379 89.9922 214.371 91.7112 212.664 95.048C212.564 95.2502 212.664 95.5536 212.865 95.6547C212.966 95.6547 212.966 95.6547 213.066 95.7558C213.267 95.7558 213.367 95.6547 213.468 95.5536C215.074 92.5201 216.781 90.9023 218.588 90.7C219.593 90.5989 220.396 91.0034 221.299 91.5089C222.304 92.0145 223.408 92.7223 225.115 92.5201C226.42 92.419 227.123 91.9134 227.826 91.4078C228.428 90.9023 229.131 90.4978 230.437 90.1944C231.842 89.8911 232.646 90.0933 233.75 90.2956C234.654 90.4978 235.557 90.7 237.064 90.8011C239.172 90.8011 240.377 90.3967 241.783 89.8911C242.686 89.4866 243.791 89.0822 245.397 88.88C245.598 88.88 245.799 88.7788 246 88.7788V87.8688C245.498 87.5655 245.197 87.6666 244.996 87.6666Z" fill="url(#paint9_linear)"/>
<path d="M238.168 94.3408V101.116L245.799 101.217V94.543L238.168 94.3408Z" fill="black"/>
<path d="M222.705 83.9259L214.271 83.7236C214.171 83.7236 214.07 83.8247 214.07 83.8247V85.4426C214.07 85.5437 214.171 85.6448 214.271 85.6448L222.705 85.8471C222.806 85.8471 222.906 85.7459 222.906 85.7459V84.1281C222.806 83.9259 222.806 83.9259 222.705 83.9259Z" fill="black"/>
<path d="M210.856 74.6235C209.551 74.6235 208.547 73.5112 208.547 72.2978V62.5907V61.5796L208.647 38.1209C208.647 37.3119 209.149 36.6041 209.752 36.3008C208.647 36.4019 207.744 37.3119 207.744 38.4242L207.543 72.5C207.543 73.7134 208.547 74.7246 209.852 74.8257L245.598 76.0391V75.7357L210.856 74.6235Z" fill="black"/>
<path d="M240.88 38.0195L240.779 62.995L245.8 63.2983V60.366L243.39 60.2649L243.49 49.2433L245.8 49.3444V47.0188L243.49 46.9177V41.3563L245.8 41.4575V38.3229L240.88 38.0195Z" fill="#2E2E33"/>
<path d="M208.749 38.2211L208.648 61.6798L239.875 62.9943L239.976 37.9177L211.058 36.0977C210.657 36.0977 210.255 36.1988 209.853 36.2999C209.15 36.7043 208.749 37.4122 208.749 38.2211ZM232.345 54.2984C230.839 57.2307 227.726 59.253 224.111 59.0508C218.99 58.8486 214.874 54.6017 214.874 49.546C214.874 44.5913 219.091 40.749 224.111 41.0523C229.132 41.3556 233.248 45.6025 233.148 50.5571C233.148 51.8716 232.847 53.1861 232.345 54.2984Z" fill="#2E2E33"/>
<path d="M220.094 49.85C220.094 51.9734 221.901 53.8946 224.11 53.9957C225.717 54.0968 227.022 53.1868 227.725 51.9734C228.026 51.4678 228.126 50.8612 228.126 50.2545C228.126 48.131 226.319 46.2099 224.11 46.1087C221.901 46.0076 220.094 47.7266 220.094 49.85Z" fill="#2E2E33"/>
<path d="M208.547 62.6914V72.3985C208.547 73.6119 209.551 74.623 210.856 74.7241L245.798 75.8364V64.2081L208.547 62.6914ZM238.268 70.6795V72.2974C238.268 72.3985 238.167 72.3985 238.067 72.3985L214.873 71.5896C214.772 71.5896 214.672 71.4884 214.672 71.3873V69.7695C214.672 69.6684 214.772 69.6684 214.873 69.6684L238.167 70.4773C238.268 70.4773 238.268 70.5784 238.268 70.6795ZM233.448 66.736V68.3539C233.448 68.455 233.348 68.455 233.247 68.455L214.873 67.8483C214.772 67.8483 214.672 67.7472 214.672 67.6461V66.0282C214.672 65.9271 214.772 65.9271 214.873 65.9271L233.247 66.6349C233.348 66.6349 233.448 66.736 233.448 66.736Z" fill="#2E2E33"/>
<path d="M240.778 62.9952V63.703H239.774V62.9952L208.647 61.6807H208.547V62.6918L245.798 64.2085V63.2985L240.778 62.9952Z" fill="white"/>
<path d="M239.775 62.9946V63.7024H240.779V62.9946L240.88 38.0192V37.7158H239.976V37.9181L239.775 62.9946Z" fill="white"/>
<path d="M214.873 65.9268C214.772 65.9268 214.672 66.0279 214.672 66.0279V67.6457C214.672 67.7468 214.772 67.8479 214.873 67.8479L233.247 68.5558C233.348 68.5558 233.448 68.4546 233.448 68.4546V66.8368C233.448 66.7357 233.348 66.6346 233.348 66.6346L214.873 65.9268Z" fill="#2E2E33"/>
<path d="M214.873 65.9268C214.772 65.9268 214.672 66.0279 214.672 66.0279V67.6457C214.672 67.7468 214.772 67.8479 214.873 67.8479L233.247 68.5558C233.348 68.5558 233.448 68.4546 233.448 68.4546V66.8368C233.448 66.7357 233.348 66.6346 233.348 66.6346L214.873 65.9268Z" fill="url(#paint10_linear)"/>
<path d="M214.873 69.668C214.772 69.668 214.672 69.7691 214.672 69.7691V71.3869C214.672 71.488 214.772 71.5892 214.873 71.5892L238.167 72.3981C238.268 72.3981 238.268 72.297 238.368 72.297V70.6791C238.368 70.578 238.268 70.578 238.268 70.4769L214.873 69.668Z" fill="black"/>
<path d="M243.49 41.3564V46.9178L245.8 47.0189V41.4576L243.49 41.3564Z" fill="black"/>
<path d="M243.489 49.2432L243.389 60.2647L245.798 60.3658V49.3443L243.489 49.2432Z" fill="black"/>
<path d="M224.11 41.0527L224.01 46.1085C226.219 46.2096 228.026 48.1308 228.026 50.2542C228.026 50.8609 227.825 51.4676 227.624 51.9732L232.243 54.2988C232.846 53.1866 233.147 51.8721 233.147 50.5576C233.247 45.6029 229.231 41.3561 224.11 41.0527Z" fill="white"/>
<path d="M227.725 51.9734C227.123 53.2879 225.717 54.0968 224.111 53.9957C221.902 53.8946 220.094 52.0745 220.094 49.85C220.094 47.7265 221.902 46.0076 224.111 46.1087V41.0529C219.09 40.7496 214.873 44.592 214.873 49.5466C214.873 54.5013 218.99 58.8492 224.111 59.0514C227.725 59.2537 230.938 57.2314 232.344 54.299L227.725 51.9734Z" fill="#2E2E33"/>
<path d="M227.725 51.9734C227.123 53.2879 225.717 54.0968 224.111 53.9957C221.902 53.8946 220.094 52.0745 220.094 49.85C220.094 47.7265 221.902 46.0076 224.111 46.1087V41.0529C219.09 40.7496 214.873 44.592 214.873 49.5466C214.873 54.5013 218.99 58.8492 224.111 59.0514C227.725 59.2537 230.938 57.2314 232.344 54.299L227.725 51.9734Z" fill="url(#paint11_linear)"/>
<path d="M227.727 51.9736L232.345 54.2993L227.727 51.9736Z" fill="white"/>
<path d="M227.727 51.9736L232.345 54.2993L227.727 51.9736Z" fill="url(#paint12_linear)"/>
<path d="M107.939 89.5877L106.132 89.2844C106.232 88.071 106.132 86.8576 105.931 85.7453L107.537 85.1386C108.039 84.9364 108.24 84.4308 108.039 84.0264L107.638 82.813C107.437 82.3074 106.935 82.1052 106.533 82.2063L104.927 82.813C104.425 81.7007 103.722 80.6896 103.019 79.7795L104.123 78.465C104.425 78.0606 104.425 77.555 104.023 77.1505L103.019 76.2405C102.617 75.9372 102.115 75.9371 101.714 76.3416L100.609 77.6561C99.605 76.9483 98.5005 76.3416 97.2956 75.9371L97.5968 74.2182C97.6972 73.7126 97.396 73.207 96.894 73.1059L95.4883 72.8026C94.9862 72.7015 94.4842 73.0048 94.3838 73.5104L94.0825 75.2293C92.7772 75.1282 91.4719 75.1282 90.267 75.3305L89.6646 73.6115C89.4638 73.1059 88.9617 72.8026 88.3593 73.0048L86.9536 73.4093C86.4515 73.6115 86.1503 74.1171 86.3511 74.6227L86.9536 76.4427C85.7487 76.9483 84.6442 77.6561 83.7405 78.5661L82.2344 77.2516C81.8327 76.8472 81.1299 76.9483 80.7283 77.3528L79.7242 78.465C79.3225 78.8695 79.423 79.4762 79.8246 79.8806L81.4311 81.1951C80.7283 82.2063 80.1258 83.4197 79.8246 84.6331L77.716 83.9253C77.1136 83.8241 76.6115 84.1275 76.5111 84.7342L76.3103 86.1498C76.2099 86.6554 76.6115 87.1609 77.214 87.2621L79.423 87.6665C79.423 88.981 79.5234 90.1944 79.8246 91.4078L77.716 92.1156C77.214 92.3178 76.9128 92.8234 77.1136 93.4301L77.6156 94.7446C77.8164 95.2502 78.4189 95.5535 78.9209 95.3513L81.1299 94.5424C81.7323 95.6546 82.5356 96.5647 83.3389 97.4747L81.8327 99.1937C81.4311 99.5981 81.5315 100.205 81.9332 100.508L83.0376 101.418C83.4393 101.722 84.1421 101.62 84.4434 101.216L85.9495 99.497C86.9536 100.104 88.0581 100.609 89.263 100.913L88.8613 103.036C88.7609 103.542 89.1625 104.047 89.6646 104.047L91.0703 104.249C91.5723 104.351 92.0744 103.946 92.1748 103.44L92.5764 101.317C93.7813 101.317 94.9862 101.216 96.0907 100.913L96.7936 102.834C96.9944 103.339 97.4964 103.542 97.9985 103.339L99.3038 102.834C99.8058 102.632 100.007 102.126 99.9062 101.62L99.2034 99.6992C100.207 99.1937 101.212 98.4858 102.015 97.6769L103.421 99.0925C103.822 99.3959 104.324 99.2948 104.625 98.9914L105.429 97.9803C105.73 97.5758 105.73 97.0702 105.328 96.7669L103.923 95.5535C104.525 94.6435 105.027 93.5312 105.429 92.4189L107.236 92.7223C107.738 92.8234 108.14 92.5201 108.24 92.0145L108.441 90.7C108.642 90.0933 108.34 89.5877 107.939 89.5877ZM91.5723 97.4747C86.3511 96.6658 82.7364 91.8122 83.6401 86.5542C84.6442 81.2963 89.765 77.9595 94.9862 79.0717C100.007 80.184 103.22 85.0375 102.316 89.8911C101.412 94.8457 96.6932 98.1825 91.5723 97.4747Z" fill="#97A6B7"/>
<path d="M90.1675 73.0055L88.8622 72.7021L88.2598 73.8144L90.1675 73.0055Z" fill="#97A6B7"/>
<path d="M102.518 75.8369L103.923 76.1403L103.722 77.2525L102.518 75.8369Z" fill="#97A6B7"/>
<path d="M107.035 82.1055L108.441 82.4088L107.939 83.2177L107.035 82.1055Z" fill="#97A6B7"/>
<path d="M108.039 89.5879L109.445 89.9924L108.842 90.599L108.039 89.5879Z" fill="#97A6B7"/>
<path d="M103.723 99.1946L105.128 99.7002L105.43 98.5879L103.723 99.1946Z" fill="#97A6B7"/>
<path d="M97.2949 103.442L98.4998 103.947L98.801 103.037L97.2949 103.442Z" fill="#97A6B7"/>
<path d="M90.4678 104.554L89.3633 104.048L90.6686 102.835L90.4678 104.554Z" fill="#97A6B7"/>
<path d="M84.5436 102.127L83.2383 101.621L84.5436 100.509V102.127Z" fill="#97A6B7"/>
<path d="M81.5312 76.7471L82.937 77.0504L82.2341 77.9605L81.5312 76.7471Z" fill="#97A6B7"/>
<path d="M76.7129 87.1619L78.0182 87.5664L78.1186 86.4541L76.7129 87.1619Z" fill="#97A6B7"/>
<path d="M78.0176 95.3517L79.2225 95.7562L79.5237 94.9473L78.0176 95.3517Z" fill="#97A6B7"/>
<path d="M109.344 89.8911L107.537 89.5877C107.637 88.3743 107.537 87.1609 107.336 86.0487L109.043 85.442C109.545 85.2398 109.746 84.7342 109.545 84.3297L109.144 83.0152C108.943 82.5096 108.441 82.3074 108.039 82.4085L106.433 83.0152C105.931 81.9029 105.228 80.8918 104.424 79.9818L105.529 78.6673C105.83 78.2628 105.83 77.6561 105.428 77.3528L104.424 76.4427C104.023 76.1394 103.42 76.1394 103.119 76.5438L102.015 77.8583C101.011 77.1505 99.906 76.5438 98.7011 76.1394L99.0024 74.4204C99.1028 73.9148 98.8016 73.4093 98.1991 73.3082L96.8938 72.8026C96.3918 72.7015 95.8897 73.0048 95.7893 73.5104L95.3877 75.2293C94.0824 75.1282 92.7771 75.1282 91.4718 75.4316L90.8693 73.7126C90.6685 73.207 90.066 72.9037 89.564 73.0048L88.1583 73.4093C87.6562 73.6115 87.355 74.1171 87.5558 74.6227L88.2587 76.4427C87.0538 76.9483 85.9493 77.7572 84.9452 78.5661L83.4391 77.2516C83.0375 76.8472 82.3346 76.9483 81.933 77.3528L80.9289 78.465C80.5273 78.8695 80.6277 79.4762 81.0293 79.8806L82.6358 81.1951C81.933 82.2063 81.3305 83.4197 80.9289 84.7342L78.8203 84.3297C78.2179 84.2286 77.7158 84.5319 77.6154 85.1386L77.3142 86.5542C77.2138 87.0598 77.6154 87.6665 78.2179 87.7676L80.4269 88.1721C80.4269 89.4866 80.5273 90.7 80.8285 91.9134L78.7199 92.6212C78.2179 92.8234 77.9167 93.4301 78.1175 93.9357L78.6195 95.2502C78.8203 95.7557 79.4228 96.0591 79.9248 95.8569L82.1338 95.0479C82.7362 96.1602 83.5395 97.1714 84.4432 97.9803L82.9371 99.6992C82.5354 100.104 82.6358 100.71 83.0375 101.014L84.142 101.924C84.5436 102.227 85.2464 102.126 85.5477 101.722L87.0538 100.003C88.0579 100.609 89.2628 101.115 90.4677 101.418L90.066 103.643C89.9656 104.148 90.3673 104.654 90.8693 104.654L92.275 104.856C92.7771 104.957 93.2791 104.553 93.3795 104.047L93.7811 101.924C94.986 101.924 96.1909 101.823 97.2954 101.519L97.9983 103.44C98.1991 103.946 98.7011 104.148 99.2032 103.946L100.508 103.44C101.011 103.238 101.211 102.733 101.111 102.227L100.408 100.306C101.412 99.8003 102.416 99.0925 103.32 98.2836L104.826 99.5981C105.228 99.9015 105.73 99.8003 106.031 99.497L106.834 98.4858C107.135 98.0814 107.135 97.5758 106.734 97.1713L105.228 95.958C105.83 94.9468 106.433 93.9357 106.734 92.8234L108.541 93.1267C109.043 93.2279 109.445 92.9245 109.545 92.4189L109.746 91.1044C110.047 90.4977 109.746 89.9922 109.344 89.8911ZM92.8775 97.8792C87.5558 97.0702 83.9411 92.1156 84.9452 86.8576C85.9493 81.5996 91.0701 78.2628 96.3918 79.3751C101.412 80.4873 104.726 85.3409 103.722 90.2955C102.818 95.2502 97.9983 98.6881 92.8775 97.8792Z" fill="#D8DEE8"/>
<path d="M63.0561 77.8592L61.2487 77.5559C61.3491 76.3425 61.2487 75.1291 61.0479 74.0168L62.6544 73.4101C63.1565 73.2079 63.3573 72.7023 63.1565 72.2979L62.7548 71.0845C62.554 70.5789 62.052 70.3767 61.6503 70.4778L60.0438 71.0845C59.5418 69.9722 58.8389 68.9611 58.1361 68.051L59.2406 66.7365C59.5418 66.3321 59.5418 65.8265 59.1401 65.422L58.1361 64.512C57.7344 64.2087 57.2324 64.2087 56.8308 64.6131L55.7263 65.9276C54.7222 65.2198 53.6177 64.6131 52.4128 64.2087L52.714 62.4897C52.8144 61.9841 52.5132 61.4785 52.0112 61.3774L50.6054 61.0741C50.1034 60.973 49.6014 61.2763 49.501 61.7819L49.1997 63.5009C47.8944 63.3997 46.5891 63.3997 45.3842 63.602L44.7818 61.6808C44.581 61.1752 44.0789 60.8719 43.4765 61.0741L42.1712 61.4785C41.6691 61.6808 41.3679 62.1864 41.5687 62.6919L42.1712 64.512C40.9663 65.0176 39.8618 65.7254 38.9581 66.6354L37.452 65.3209C37.0503 64.9165 36.3475 65.0176 35.9459 65.422L34.9418 66.5343C34.5401 66.9388 34.6406 67.5455 35.0422 67.9499L36.6487 69.2644C35.9459 70.2756 35.3434 71.489 35.0422 72.7023L32.9336 72.2979C32.3312 72.1968 31.8291 72.5001 31.7287 73.1068L31.4275 74.5224C31.3271 75.028 31.7287 75.5336 32.3312 75.6347L34.5401 76.0391C34.5401 77.3536 34.6405 78.567 34.9418 79.7804L32.8332 80.4882C32.3312 80.6904 32.0299 81.196 32.2308 81.8027L32.7328 83.1172C32.9336 83.6228 33.5361 83.9261 34.0381 83.7239L36.1467 82.915C36.7491 84.0272 37.5524 84.9373 38.3557 85.8473L36.8495 87.5663C36.4479 87.9707 36.5483 88.5774 36.9499 88.8808L38.0544 89.7908C38.4561 90.0942 39.1589 89.993 39.4601 89.5886L40.9663 87.8696C41.9703 88.4763 43.0748 88.9819 44.2797 89.2852L43.8781 91.4087C43.7777 91.9142 44.1793 92.4198 44.6814 92.4198L46.0871 92.622C46.5891 92.7232 47.0912 92.3187 47.1916 91.8131L47.5932 89.6897C48.7981 89.6897 50.003 89.5886 51.1075 89.2852L51.8103 91.2064C52.0112 91.712 52.5132 91.9142 53.0152 91.712L54.3205 91.2064C54.8226 91.0042 55.0234 90.4986 54.923 89.993L54.2201 88.173C55.2242 87.6674 56.2283 86.9596 57.0316 86.1507L58.5377 87.364C58.9393 87.6674 59.4414 87.5663 59.7426 87.2629L60.5459 86.2518C60.8471 85.8473 60.8471 85.3417 60.4454 85.0384L59.0397 83.825C59.6422 82.915 60.1442 81.8027 60.5459 80.6904L62.3532 80.9938C62.8552 81.0949 63.2569 80.7916 63.3573 80.286L63.5581 78.9715C63.8593 78.4659 63.5581 77.9603 63.0561 77.8592ZM46.7899 85.7462C41.5687 84.9373 37.954 80.0838 38.8577 74.8258C39.8618 69.5678 44.9826 66.231 50.2038 67.3432C55.2242 68.4555 58.4373 73.309 57.5336 78.1626C56.6299 83.1172 51.9108 86.5551 46.7899 85.7462Z" fill="#97A6B7"/>
<path d="M45.2847 61.2755L44.0798 61.0732L43.377 62.0844L45.2847 61.2755Z" fill="#97A6B7"/>
<path d="M57.6348 64.209L59.1409 64.5123L58.9401 65.6246L57.6348 64.209Z" fill="#97A6B7"/>
<path d="M62.252 70.4775L63.6577 70.7809L63.1556 71.4887L62.252 70.4775Z" fill="#97A6B7"/>
<path d="M63.1562 77.96L64.6624 78.2633L63.9595 78.9711L63.1562 77.96Z" fill="#97A6B7"/>
<path d="M58.8398 87.5662L60.2456 87.9707L60.6472 86.8584L58.8398 87.5662Z" fill="#97A6B7"/>
<path d="M52.5137 91.8132L53.7186 92.2176L54.0198 91.3076L52.5137 91.8132Z" fill="#97A6B7"/>
<path d="M45.6846 92.8244L44.5801 92.42L45.8854 91.1055L45.6846 92.8244Z" fill="#97A6B7"/>
<path d="M39.7623 90.3976L38.457 89.892L39.6619 88.8809L39.7623 90.3976Z" fill="#97A6B7"/>
<path d="M36.75 65.0176L38.1557 65.3209L37.3525 66.231L36.75 65.0176Z" fill="#97A6B7"/>
<path d="M31.9297 75.4329L33.1346 75.9384L33.235 74.8262L31.9297 75.4329Z" fill="#97A6B7"/>
<path d="M33.2344 83.6227L34.4393 84.1283L34.6401 83.3193L33.2344 83.6227Z" fill="#97A6B7"/>
<path d="M64.462 78.264L62.6546 77.9607C62.755 76.7473 62.6546 75.5339 62.4538 74.4216L64.1607 73.8149C64.6628 73.6127 64.8636 73.1071 64.6628 72.7027L64.2611 71.3882C64.0603 70.8826 63.5583 70.6804 63.1567 70.7815L61.5501 71.3882C61.0481 70.2759 60.3452 69.2648 59.542 68.3547L60.6464 67.0402C60.9477 66.6358 60.9477 66.0291 60.546 65.7257L59.542 64.8157C59.1403 64.5123 58.5379 64.5123 58.2366 64.9168L57.1322 66.2313C56.1281 65.5235 55.0236 64.9168 53.8187 64.5123L54.1199 62.7934C54.2203 62.2878 53.9191 61.7822 53.3166 61.6811L51.9109 61.3778C51.4089 61.2767 50.9069 61.58 50.8064 62.0856L50.5052 63.8045C49.1999 63.7034 47.8946 63.7034 46.5893 64.0068L45.9869 62.2878C45.786 61.7822 45.1836 61.4789 44.6815 61.58L43.3762 61.6811C42.8742 61.8833 42.573 62.3889 42.7738 62.8945L43.4766 64.7146C42.2717 65.2202 41.1673 66.0291 40.1632 66.838L38.6571 65.5235C38.2554 65.119 37.5526 65.2202 37.1509 65.6246L36.1469 66.7369C35.7452 67.1413 35.8456 67.748 36.2473 68.1525L37.8538 69.467C37.1509 70.4781 36.5485 71.6915 36.1469 73.006L34.0383 72.6016C33.4358 72.5005 32.9338 72.8038 32.8334 73.4105L32.6326 74.8261C32.5322 75.3317 32.9338 75.9384 33.5362 76.0395L35.7452 76.4439C35.7452 77.7584 35.8456 78.9718 36.1469 80.1852L33.9379 80.893C33.4358 81.0952 33.1346 81.7019 33.3354 82.2075L33.8375 83.522C34.0383 84.0276 34.6407 84.3309 35.1428 84.1287L37.3517 83.3198C37.9542 84.432 38.7575 85.4432 39.6611 86.2521L38.155 87.9711C37.7534 88.3755 37.8538 88.9822 38.2554 89.2856L39.3599 90.1956C39.7615 90.499 40.4644 90.3978 40.7656 89.9934L42.2717 88.2744C43.2758 88.8811 44.4807 89.3867 45.6856 89.69L45.284 91.9146C45.1836 92.4202 45.5852 92.9257 46.0873 92.9257L47.493 93.128C47.995 93.2291 48.4971 92.8246 48.5975 92.319L48.9991 90.1956C50.204 90.1956 51.4089 90.0945 52.5134 89.7912L53.2162 91.7123C53.4171 92.2179 53.9191 92.4201 54.4211 92.2179L55.7264 91.7123C56.2285 91.5101 56.4293 91.0045 56.3289 90.499L55.626 88.5778C56.6301 88.0722 57.6342 87.3644 58.5379 86.5555L60.044 87.87C60.4456 88.1733 60.9477 88.0722 61.2489 87.7689L62.0522 86.7577C62.3534 86.3532 62.3534 85.8477 61.9518 85.4432L60.4456 84.2298C61.0481 83.2187 61.6505 82.2075 61.9518 81.0952L63.7591 81.3986C64.2611 81.4997 64.6628 81.1964 64.7632 80.6908L64.964 79.3763C65.2652 78.7696 64.964 78.3651 64.462 78.264ZM48.0954 86.2521C42.7738 85.4432 39.1591 80.4886 40.1632 75.2306C41.1673 69.9726 46.2881 66.6358 51.6097 67.748C56.6301 68.8603 59.9436 73.7138 58.9395 78.6685C57.9354 83.6231 53.2162 86.9599 48.0954 86.2521Z" fill="#D8DEE8"/>
<path d="M87.6548 109.407C80.7266 123.057 71.3886 124.574 68.6776 124.675C68.6776 124.675 68.778 124.675 68.5772 124.675C68.3764 124.675 68.4768 124.675 68.4768 124.675C65.9666 124.574 59.44 123.563 53.2147 115.474C51.9094 113.755 50.6041 111.732 49.3992 109.407C41.3666 93.5317 47.1903 85.3413 47.1903 85.3413L68.3764 85.2402H68.4768H68.5772H77.6139H89.8637C89.8637 85.2402 95.587 93.4306 87.6548 109.407Z" fill="#2FAC66"/>
<path d="M68.4776 88.3753C80.3447 88.3753 89.9649 87.1529 89.9649 85.6451C89.9649 84.1373 80.3447 82.915 68.4776 82.915C56.6104 82.915 46.9902 84.1373 46.9902 85.6451C46.9902 87.1529 56.6104 88.3753 68.4776 88.3753Z" fill="#1A1B1D"/>
<path opacity="0.15" d="M90.0654 85.5439C90.0654 86.7573 85.1454 87.6674 78.0165 88.0718C79.1209 91.2064 80.2254 96.5655 75.6067 99.599C70.285 103.037 53.2156 108.093 53.1152 115.474C59.3405 123.563 65.7667 124.574 68.3773 124.676C68.3773 124.676 68.2769 124.676 68.4777 124.676C68.6785 124.676 68.5781 124.676 68.5781 124.676C71.3895 124.574 80.7275 123.058 87.5552 109.407C94.7846 95.0488 90.8687 86.9596 90.0654 85.5439Z" fill="#1A1B1D"/>
<path d="M33.4352 66.2305C39.646 66.2305 44.6809 59.7568 44.6809 51.771C44.6809 43.7853 39.646 37.3115 33.4352 37.3115C27.2243 37.3115 22.1895 43.7853 22.1895 51.771C22.1895 59.7568 27.2243 66.2305 33.4352 66.2305Z" fill="#1A1B1D"/>
<path d="M100.306 66.2305C106.517 66.2305 111.552 59.7568 111.552 51.771C111.552 43.7853 106.517 37.3115 100.306 37.3115C94.0954 37.3115 89.0605 43.7853 89.0605 51.771C89.0605 59.7568 94.0954 66.2305 100.306 66.2305Z" fill="#1A1B1D"/>
<path d="M106.331 50.2544C106.331 68.2529 88.6591 82.8135 66.8706 82.8135C63.5571 82.8135 60.2436 82.5102 57.131 81.8024C40.0616 78.2633 27.4102 65.4217 27.4102 50.2544C27.4102 32.2559 45.082 17.6953 66.8706 17.6953C72.9955 17.6953 78.8191 18.8076 83.9399 20.931C97.1938 26.189 106.331 37.4128 106.331 50.2544Z" fill="#2FAC66"/>
<path d="M84.7434 63.6014H49.0985C43.8773 63.6014 39.6602 59.3546 39.6602 54.0966V47.0185C39.6602 43.9851 42.07 41.5583 45.0822 41.5583C45.0822 41.5583 51.8095 38.626 66.4691 38.626C81.1287 38.626 88.7597 41.4572 88.7597 41.4572C91.772 41.4572 94.1818 43.884 94.1818 46.9174V53.9955C94.1818 59.3546 89.9646 63.6014 84.7434 63.6014Z" fill="#F4F7FA"/>
<path d="M82.4345 59.6577H51.308C47.1912 59.6577 43.7773 57.3321 43.7773 53.1864V50.0518C43.7773 47.625 45.6851 45.7038 48.0949 45.7038C48.0949 45.7038 56.5292 42.7715 66.3692 42.7715C76.2092 42.7715 85.6476 45.7038 85.6476 45.7038C88.0573 45.7038 89.9651 47.625 89.9651 50.0518V53.1864C89.9651 57.3321 86.5512 59.6577 82.4345 59.6577Z" fill="#1A1B1D"/>
<path d="M60.7461 53.4897C60.7461 51.5685 58.7379 50.0518 56.3281 50.0518C53.9183 50.0518 51.9102 51.5685 51.9102 53.4897C51.9102 54.0964 52.111 54.7031 52.4122 55.2086H60.244C60.5453 54.6019 60.7461 54.0964 60.7461 53.4897Z" fill="#F4F7FA"/>
<path d="M81.832 53.4897C81.832 51.5685 79.8239 50.0518 77.4141 50.0518C75.0043 50.0518 72.9961 51.5685 72.9961 53.4897C72.9961 54.0964 73.1969 54.7031 73.4981 55.2086H81.2296C81.6312 54.6019 81.832 54.0964 81.832 53.4897Z" fill="#F4F7FA"/>
<path opacity="0.15" d="M106.632 50.2546C106.632 68.2531 88.9606 82.8137 67.1721 82.8137C63.8586 82.8137 60.5451 82.5104 57.4325 81.8026C54.3198 71.9944 71.6904 61.3773 81.7312 54.5015C93.981 46.1089 84.2414 20.8301 84.2414 20.8301C97.4953 26.1892 106.632 37.413 106.632 50.2546Z" fill="#1A1B1D"/>
<path d="M74.3011 95.5542V93.2285H72.3934L68.8791 96.7675L65.3648 93.2285H63.457V95.5542L67.3729 99.3966H70.3852L74.3011 95.5542Z" fill="#1A1B1D"/>
<path d="M74.3011 100.307V98.082H72.3934L68.8791 101.621L65.3648 98.082H63.457V100.307L67.3729 104.25H70.3852L74.3011 100.307Z" fill="white"/>
<defs>
<linearGradient id="paint0_linear" x1="338.899" y1="-26.0785" x2="-421.359" y2="167.734" gradientUnits="userSpaceOnUse">
<stop stop-color="#05A01F"/>
<stop offset="1" stop-color="#3C3CAA"/>
</linearGradient>
<linearGradient id="paint1_linear" x1="353.919" y1="34.5428" x2="-405.521" y2="227.909" gradientUnits="userSpaceOnUse">
<stop stop-color="#E25203"/>
<stop offset="0.1155" stop-color="#DA510B"/>
<stop offset="0.2998" stop-color="#C34E23"/>
<stop offset="0.5296" stop-color="#9D4948"/>
<stop offset="0.7935" stop-color="#69427C"/>
<stop offset="1" stop-color="#3C3CAA"/>
</linearGradient>
<linearGradient id="paint2_linear" x1="362.874" y1="69.7154" x2="-396.566" y2="263.082" gradientUnits="userSpaceOnUse">
<stop stop-color="#E25203"/>
<stop offset="0.1155" stop-color="#DA510B"/>
<stop offset="0.2998" stop-color="#C34E23"/>
<stop offset="0.5296" stop-color="#9D4948"/>
<stop offset="0.7935" stop-color="#69427C"/>
<stop offset="1" stop-color="#3C3CAA"/>
</linearGradient>
<linearGradient id="paint3_linear" x1="136.02" y1="119.548" x2="370.613" y2="8.16949" gradientUnits="userSpaceOnUse">
<stop stop-color="#05A01F"/>
<stop offset="1" stop-color="#3C3CAA"/>
</linearGradient>
<linearGradient id="paint4_linear" x1="117.996" y1="81.5842" x2="352.589" y2="-29.7948" gradientUnits="userSpaceOnUse">
<stop stop-color="#05A01F"/>
<stop offset="1" stop-color="#3C3CAA"/>
</linearGradient>
<linearGradient id="paint5_linear" x1="118.111" y1="81.8248" x2="352.704" y2="-29.5541" gradientUnits="userSpaceOnUse">
<stop stop-color="#05A01F"/>
<stop offset="1" stop-color="#3C3CAA"/>
</linearGradient>
<linearGradient id="paint6_linear" x1="119.024" y1="83.7484" x2="353.617" y2="-27.6305" gradientUnits="userSpaceOnUse">
<stop stop-color="#05A01F"/>
<stop offset="1" stop-color="#3C3CAA"/>
</linearGradient>
<linearGradient id="paint7_linear" x1="120.286" y1="86.407" x2="354.879" y2="-24.972" gradientUnits="userSpaceOnUse">
<stop stop-color="#05A01F"/>
<stop offset="1" stop-color="#3C3CAA"/>
</linearGradient>
<linearGradient id="paint8_linear" x1="148.29" y1="145.389" x2="382.883" y2="34.0097" gradientUnits="userSpaceOnUse">
<stop stop-color="#05A01F"/>
<stop offset="1" stop-color="#3C3CAA"/>
</linearGradient>
<linearGradient id="paint9_linear" x1="142.03" y1="132.206" x2="376.623" y2="20.8273" gradientUnits="userSpaceOnUse">
<stop stop-color="#05A01F"/>
<stop offset="1" stop-color="#3C3CAA"/>
</linearGradient>
<linearGradient id="paint10_linear" x1="132.189" y1="111.48" x2="366.782" y2="0.101406" gradientUnits="userSpaceOnUse">
<stop stop-color="#05A01F"/>
<stop offset="1" stop-color="#3C3CAA"/>
</linearGradient>
<linearGradient id="paint11_linear" x1="125.541" y1="97.4781" x2="360.135" y2="-13.9008" gradientUnits="userSpaceOnUse">
<stop stop-color="#05A01F"/>
<stop offset="1" stop-color="#3C3CAA"/>
</linearGradient>
<linearGradient id="paint12_linear" x1="214.741" y1="52.552" x2="232.357" y2="53.2092" gradientUnits="userSpaceOnUse">
<stop stop-color="#FF9085"/>
<stop offset="1" stop-color="#FF6205"/>
</linearGradient>
</defs>
</svg>
