<svg width="18" height="17" viewBox="0 0 18 17" fill="none" xmlns="http://www.w3.org/2000/svg">
<path d="M14.9551 4.82837C15.2986 5.54821 15.4786 6.33348 15.4786 7.1842V12.2885" stroke="white"/>
<path d="M7.93565 16.1982C4.90907 16.1982 2.45508 15.3148 2.45508 12.2882V7.1839C2.45508 6.33318 2.6514 5.51519 2.99496 4.79535" stroke="white"/>
<path d="M9.26183 15.6583C9.26183 15.9528 9.01643 16.1982 8.72195 16.1982H7.49496C7.20048 16.1982 6.95508 15.9528 6.95508 15.6583C6.95508 15.3639 7.20048 15.1185 7.49496 15.1185H8.72195C9.01643 15.1185 9.26183 15.3475 9.26183 15.6583Z" stroke="white"/>
<path d="M14.709 5.05726C14.4636 5.05726 14.2346 4.94274 14.1037 4.7137C13.2366 3.27403 11.6988 2.40695 10.0137 2.40695H7.93602C6.25095 2.40695 4.72947 3.27403 3.84604 4.7137C3.64972 5.0409 3.208 5.15542 2.8808 4.9591C2.5536 4.76278 2.43909 4.32106 2.6354 3.99386C3.7806 2.11247 5.74379 1 7.93602 1H10.0137C12.1896 1 14.1691 2.11247 15.298 3.97751C15.4943 4.3047 15.3961 4.74642 15.0526 4.94274C14.9544 5.02454 14.8235 5.05726 14.709 5.05726Z" stroke="white"/>
<path d="M2.75051 7.49493C1.78528 7.49493 1 8.28021 1 9.24545V11.4213C1 12.3865 1.78528 13.1718 2.75051 13.1718" stroke="white"/>
<path d="M4.33817 13.0246C4.33817 13.3518 4.07641 13.6135 3.74921 13.6135H3.09482C2.76762 13.6135 2.50586 13.3518 2.50586 13.0246V7.65854C2.50586 7.33134 2.76762 7.06958 3.09482 7.06958H3.74921C4.07641 7.06958 4.33817 7.33134 4.33817 7.65854V13.0246Z" stroke="white"/>
<path d="M15.25 13.2045C16.2152 13.2045 17.0005 12.4193 17.0005 11.454V9.27816C17.0005 8.31292 16.2152 7.52765 15.25 7.52765" stroke="white"/>
<path d="M13.6621 7.6586C13.6621 7.3314 13.9239 7.06964 14.2511 7.06964H14.9055C15.2327 7.06964 15.4944 7.3314 15.4944 7.6586V13.0247C15.4944 13.3519 15.2327 13.6136 14.9055 13.6136H14.2511C13.9239 13.6136 13.6621 13.3519 13.6621 13.0247V7.6586Z" stroke="white"/>
</svg>
