<svg width="18" height="20" viewBox="0 0 18 20" fill="none" xmlns="http://www.w3.org/2000/svg">
<path d="M1.8457 13.1408V7.02448" stroke="white"/>
<path d="M7.98075 17.6039L2.83789 14.6284" stroke="white"/>
<path d="M14.9777 14.5551L9.72461 17.604" stroke="white"/>
<path d="M15.8418 7.04291V13.0858" stroke="white"/>
<path d="M9.72461 2.4325L14.8491 5.40801" stroke="white"/>
<path d="M2.7832 5.42632L7.92606 2.46918" stroke="white"/>
<path d="M5.70203 8.19993L2.81836 6.5285" stroke="white"/>
<path d="M14.9426 13.5265L12.2793 12.002" stroke="white"/>
<path d="M12.3145 8.01638L14.9226 6.51025" stroke="white"/>
<path d="M2.76367 13.5266L5.64735 11.8552" stroke="white"/>
<path d="M8.84375 6.16124V2.91022" stroke="white"/>
<path d="M8.84375 16.9979V13.7469" stroke="white"/>
<path d="M2.94749 6.01418C2.94749 6.54683 2.50668 6.98765 1.97402 6.98765C1.44137 6.98765 1.00055 6.54683 1.00055 6.01418C0.982187 5.48153 1.423 5.04071 1.95566 5.04071C2.50668 5.04071 2.94749 5.48153 2.94749 6.01418Z" stroke="white"/>
<path d="M16.7223 6.01418C16.7223 6.54683 16.2815 6.98765 15.7489 6.98765C15.2162 6.98765 14.7754 6.54683 14.7754 6.01418C14.7754 5.48153 15.2162 5.04071 15.7489 5.04071C16.2815 5.04071 16.7223 5.48153 16.7223 6.01418Z" stroke="white"/>
<path d="M9.7985 1.97347C9.7985 2.50612 9.35768 2.94694 8.82503 2.94694C8.29238 2.94694 7.85156 2.50612 7.85156 1.97347C7.85156 1.44082 8.29238 1 8.82503 1C9.35768 1 9.7985 1.44082 9.7985 1.97347Z" stroke="white"/>
<path d="M9.7985 18.0266C9.7985 18.5592 9.35768 19 8.82503 19C8.29238 19 7.85156 18.5592 7.85156 18.0266C7.85156 17.4939 8.29238 17.0531 8.82503 17.0531C9.35768 17.0347 9.7985 17.4756 9.7985 18.0266Z" stroke="white"/>
<path d="M2.94749 14.096C2.94749 14.6287 2.50668 15.0695 1.97402 15.0695C1.44137 15.0695 1.00055 14.6287 1.00055 14.096C0.982187 13.5634 1.423 13.1226 1.95566 13.1226C2.50668 13.1226 2.94749 13.5634 2.94749 14.096Z" stroke="white"/>
<path d="M16.7223 14.096C16.7223 14.6287 16.2815 15.0695 15.7489 15.0695C15.2162 15.0695 14.7754 14.6287 14.7754 14.096C14.7754 13.5634 15.2162 13.1226 15.7489 13.1226C16.2815 13.1226 16.7223 13.5634 16.7223 14.096Z" stroke="white"/>
<path d="M9.0446 13.7469C11.1241 13.7469 12.8099 12.0611 12.8099 9.98162C12.8099 7.90209 11.1241 6.21631 9.0446 6.21631C6.96508 6.21631 5.2793 7.90209 5.2793 9.98162C5.2793 12.0611 6.96508 13.7469 9.0446 13.7469Z" stroke="white"/>
<path d="M11.598 12.7184C11.598 12.4062 11.598 12.0756 11.598 11.5429C11.598 11.1756 11.3041 10.7348 10.9368 10.6246C9.6694 10.2388 8.29185 10.2388 7.02451 10.6246C6.65716 10.7348 6.36328 11.1756 6.36328 11.5429C6.36328 11.9837 6.36328 12.296 6.36328 12.5715" stroke="white"/>
<path d="M10.3129 8.97125C10.3129 9.70595 9.72511 10.2937 8.99042 10.2937C8.25572 10.2937 7.66797 9.70595 7.66797 8.97125C7.66797 8.23656 8.25572 7.6488 8.99042 7.6488C9.72511 7.6488 10.3129 8.23656 10.3129 8.97125Z" stroke="white"/>
<path d="M10.3129 8.97125C10.3129 9.70595 9.72511 10.2937 8.99042 10.2937C8.25572 10.2937 7.66797 9.70595 7.66797 8.97125C7.66797 8.23656 8.25572 7.6488 8.99042 7.6488C9.72511 7.6488 10.3129 8.23656 10.3129 8.97125Z" stroke="white"/>
<path d="M7.57617 11.7815V13.508" stroke="white"/>
<path d="M10.4043 11.7816V13.5081" stroke="white"/>
</svg>
