<svg width="21" height="24" viewBox="0 0 21 24" fill="none" xmlns="http://www.w3.org/2000/svg">
<path d="M18.1799 18.8288H19.1911C19.7509 18.8288 20.2023 18.3774 20.2023 17.8176C20.2023 17.2577 19.7509 16.8064 19.1911 16.8064H18.1799V8.72983C18.1799 4.27275 14.556 0.648926 10.099 0.648926C5.64188 0.648926 2.01806 4.27275 2.01806 8.72983V16.8107H1.0112C0.45135 16.8107 0 17.2621 0 17.8176C0 18.3731 0.45135 18.8288 1.0112 18.8288H2.0224H18.1799ZM16.1618 16.8107H14.1438H6.05851H4.04045V8.72983C4.04045 5.3881 6.75723 2.67132 10.099 2.67132C13.4407 2.67132 16.1575 5.3881 16.1575 8.72983V16.8107H16.1618Z" fill="#fff"/>
<path d="M6.66602 19.918C6.66602 21.8102 8.20668 23.3509 10.0989 23.3509C11.9911 23.3509 13.5317 21.8102 13.5317 19.918C13.5317 19.7878 6.66602 19.918 6.66602 19.918Z" fill="#fff"/>
</svg>
