<svg width="18" height="20" viewBox="0 0 18 20" fill="none" xmlns="http://www.w3.org/2000/svg">
<path d="M1.8457 13.1407V7.02441" stroke="#fff"/>
<path d="M7.98075 17.6039L2.83789 14.6284" stroke="#fff"/>
<path d="M14.9786 14.5552L9.72559 17.6042" stroke="#fff"/>
<path d="M15.8418 7.04297V13.0858" stroke="#fff"/>
<path d="M9.72559 2.43262L14.8501 5.40813" stroke="#fff"/>
<path d="M2.78223 5.42638L7.92508 2.46924" stroke="#fff"/>
<path d="M5.70301 8.19999L2.81934 6.52856" stroke="#fff"/>
<path d="M14.9416 13.5264L12.2783 12.002" stroke="#fff"/>
<path d="M12.3154 8.01638L14.9236 6.51025" stroke="#fff"/>
<path d="M2.76367 13.5267L5.64735 11.8552" stroke="#fff"/>
<path d="M8.84375 6.16142V2.9104" stroke="#fff"/>
<path d="M8.84375 16.9978V13.7468" stroke="#fff"/>
<path d="M2.94749 6.01424C2.94749 6.54689 2.50668 6.98771 1.97402 6.98771C1.44137 6.98771 1.00055 6.54689 1.00055 6.01424C0.982187 5.48159 1.423 5.04077 1.95566 5.04077C2.50668 5.04077 2.94749 5.48159 2.94749 6.01424Z" stroke="#fff"/>
<path d="M16.7233 6.01424C16.7233 6.54689 16.2825 6.98771 15.7498 6.98771C15.2172 6.98771 14.7764 6.54689 14.7764 6.01424C14.7764 5.48159 15.2172 5.04077 15.7498 5.04077C16.2825 5.04077 16.7233 5.48159 16.7233 6.01424Z" stroke="#fff"/>
<path d="M9.7985 1.97347C9.7985 2.50612 9.35768 2.94694 8.82503 2.94694C8.29238 2.94694 7.85156 2.50612 7.85156 1.97347C7.85156 1.44082 8.29238 1 8.82503 1C9.35768 1 9.7985 1.44082 9.7985 1.97347Z" stroke="#fff"/>
<path d="M9.7985 18.0265C9.7985 18.5592 9.35768 19 8.82503 19C8.29238 19 7.85156 18.5592 7.85156 18.0265C7.85156 17.4939 8.29238 17.053 8.82503 17.053C9.35768 17.0347 9.7985 17.4755 9.7985 18.0265Z" stroke="#fff"/>
<path d="M2.94749 14.096C2.94749 14.6287 2.50668 15.0695 1.97402 15.0695C1.44137 15.0695 1.00055 14.6287 1.00055 14.096C0.982187 13.5634 1.423 13.1226 1.95566 13.1226C2.50668 13.1226 2.94749 13.5634 2.94749 14.096Z" stroke="#fff"/>
<path d="M16.7233 14.096C16.7233 14.6287 16.2825 15.0695 15.7498 15.0695C15.2172 15.0695 14.7764 14.6287 14.7764 14.096C14.7764 13.5634 15.2172 13.1226 15.7498 13.1226C16.2825 13.1226 16.7233 13.5634 16.7233 14.096Z" stroke="#fff"/>
<path d="M9.04558 13.7469C11.1251 13.7469 12.8109 12.0611 12.8109 9.98162C12.8109 7.90209 11.1251 6.21631 9.04558 6.21631C6.96606 6.21631 5.28027 7.90209 5.28027 9.98162C5.28027 12.0611 6.96606 13.7469 9.04558 13.7469Z" stroke="#fff"/>
<path d="M11.599 12.7186C11.599 12.4064 11.599 12.0758 11.599 11.5431C11.599 11.1758 11.3051 10.7349 10.9377 10.6247C9.67038 10.239 8.29283 10.239 7.02548 10.6247C6.65814 10.7349 6.36426 11.1758 6.36426 11.5431C6.36426 11.9839 6.36426 12.2962 6.36426 12.5717" stroke="#fff"/>
<path d="M10.3129 8.97138C10.3129 9.70607 9.72511 10.2938 8.99042 10.2938C8.25572 10.2938 7.66797 9.70607 7.66797 8.97138C7.66797 8.23668 8.25572 7.64893 8.99042 7.64893C9.72511 7.64893 10.3129 8.23668 10.3129 8.97138Z" stroke="#fff"/>
<path d="M10.3129 8.97138C10.3129 9.70607 9.72511 10.2938 8.99042 10.2938C8.25572 10.2938 7.66797 9.70607 7.66797 8.97138C7.66797 8.23668 8.25572 7.64893 8.99042 7.64893C9.72511 7.64893 10.3129 8.23668 10.3129 8.97138Z" stroke="#fff"/>
<path d="M7.57617 11.7815V13.508" stroke="#fff"/>
<path d="M10.4043 11.7815V13.508" stroke="#fff"/>
</svg>
