<svg width="14" height="12" viewBox="0 0 14 12" fill="none" xmlns="http://www.w3.org/2000/svg">
<path d="M10.6627 3.3315V5.29184C11.2066 5.43915 11.6032 5.93773 11.6032 6.52697V8.78193C11.6032 9.49581 11.0253 10.0624 10.3228 10.0624H6.52672C5.93749 10.0624 5.43891 9.66578 5.2916 9.12187C5.2576 9.00856 5.24627 8.89524 5.24627 8.7706V8.66861V6.74227V6.51564C5.24627 6.43632 5.2576 6.357 5.26893 6.28901C5.38225 5.68844 5.90349 5.23518 6.53806 5.23518H7.84117V3.30884H6.52672C4.82701 3.30884 3.44457 4.62329 3.31993 6.28901C3.31993 6.36833 3.30859 6.44765 3.30859 6.51564V6.74227V8.66861V8.7706C3.30859 8.88391 3.31993 9.00856 3.33126 9.12187C3.51256 10.7423 4.87233 12.0001 6.52672 12.0001H10.3114C12.0905 12.0001 13.5182 10.561 13.5182 8.79326V6.52697C13.5296 4.87258 12.2718 3.5128 10.6627 3.3315Z" fill="white"/>
<path d="M3.2068 1.92635H6.9915C7.58074 1.92635 8.07932 2.32295 8.22663 2.86686C8.26062 2.98017 8.27196 3.09348 8.27196 3.21813V3.32011V5.24646V5.47309C8.27196 5.55241 8.26063 5.63173 8.24929 5.69972C8.13598 6.30028 7.61473 6.75354 6.98017 6.75354H5.69972V8.67989H7.00283C8.69122 8.67989 10.085 7.36544 10.1983 5.69972C10.1983 5.6204 10.2096 5.54108 10.2096 5.47309V5.24646V3.32011V3.21813C10.2096 3.10482 10.1983 2.98017 10.187 2.86686C10.017 1.25779 8.65723 0 7.00283 0H3.2068C1.43909 0 0 1.43909 0 3.2068V5.46176C0 7.11615 1.25779 8.48725 2.86686 8.65723V6.70822C2.32295 6.56091 1.92635 6.06232 1.92635 5.47309V3.2068C1.92635 2.50425 2.50425 1.92635 3.2068 1.92635Z" fill="white"/>
</svg>
