<svg width="166" height="61" viewBox="0 0 166 61" fill="none" xmlns="http://www.w3.org/2000/svg">
<path d="M-22 37.6103C10.0312 36.7371 26.0468 17.6166 58.3642 17.4081C100.921 17.1344 113.254 50.0315 151.361 42.8108C168.327 39.5915 180.999 30.2072 189 22.791V-53H-22V37.6103Z" fill="#A3A3A3"/>
<path d="M58.3642 17.4079C26.0468 17.6165 10.0312 36.737 -22 37.6103V55.9487C-14.4541 56.6526 -7.70175 56.3528 -1.44383 56.0791C20.7126 55.0885 33.7879 48.7541 56.764 46.1734C66.8079 45.0525 73.8854 44.4008 84.4888 44.9874C117.379 46.786 134.877 55.7532 161.692 46.2256C173.817 41.9244 182.872 35.6682 188.987 30.572V22.8039C180.986 30.2201 168.327 39.6044 151.348 42.8238C113.254 50.0445 100.908 17.1342 58.3642 17.4079Z" fill="#989898"/>
<path d="M84.5024 44.9745C73.8991 44.388 66.8215 45.0397 56.7776 46.1606C33.7885 48.7413 20.7133 55.0756 -1.43016 56.0662C-7.68808 56.3399 -14.4534 56.6397 -21.9863 55.9359V63.0001H189.014V30.5723C182.886 35.6684 173.831 41.9116 161.718 46.2257C134.891 55.7273 117.392 46.7732 84.5024 44.9745Z" fill="#848484"/>
</svg>
