<svg width="20" height="20" viewBox="0 0 20 20" fill="none" xmlns="http://www.w3.org/2000/svg">
<path d="M19.3345 9.99961C19.3345 4.48561 14.8484 -6.49044e-07 9.33447 -4.08023e-07C6.75296 -2.95181e-07 4.28399 1.00132 2.43116 2.7692C2.43116 2.7692 1.85196 2.51167 1.13746 2.19281C0.422964 1.87473 -0.0812279 2.33262 0.0108476 3.2161L0.552903 8.39044C0.645175 9.27399 1.30278 9.56748 2.02173 9.04576L6.23268 5.98916C6.95149 5.46692 7.03768 4.82291 6.42474 4.54995L5.31539 4.05557C6.49327 3.25959 7.88729 2.81464 9.33447 2.81464C13.297 2.81464 16.5197 6.03781 16.5197 9.99954C16.5197 13.9619 13.2966 17.1852 9.33447 17.1852C8.08635 17.1852 6.85746 16.8609 5.78113 16.2464C5.10593 15.8611 4.24652 16.0959 3.86134 16.7711C3.47578 17.4465 3.71094 18.3056 4.38653 18.6911C5.88668 19.5473 7.59759 20 9.3344 20C14.8484 20 19.3345 15.5138 19.3345 9.99961Z" fill="black"/>
</svg>
