<svg width="102" height="16" viewBox="0 0 102 16" fill="none" xmlns="http://www.w3.org/2000/svg">
<path d="M15.9169 3.28679V0H13.0825L7.95845 5.12406L2.83439 0H0V3.28679L5.72418 9.01096H10.1927L15.9169 3.28679Z" fill="#FF6205"/>
<path d="M15.9169 10.2758V6.99829H13.0825L7.95845 12.1131L2.83439 6.99829H0V10.2758L5.72418 16H10.1927L15.9169 10.2758Z" fill="white"/>
<path d="M23.155 1.80947V9.05701H21.6593V1.80947H19.2773V0.47998H25.537V1.80947H23.155Z" fill="white"/>
<path d="M30.9563 9.05701L29.4606 5.52095H27.8726V9.05701H26.377V0.47998H30.0238C31.4825 0.47998 32.6458 1.41247 32.6458 2.94507C32.6458 4.04374 32.0088 4.90237 30.9286 5.29937L32.6181 9.05701H30.9563ZM29.8022 1.80023H27.8819V4.19146H29.7561C30.5593 4.19146 31.1409 3.7483 31.1409 2.94507C31.1409 2.14184 30.587 1.80023 29.8022 1.80023Z" fill="white"/>
<path d="M39.1647 9.05701L38.4907 7.15511H35.3147L34.6223 9.05701H33.0527L36.2934 0.47998H37.5028L40.7435 9.05701H39.1647ZM37.4751 4.15453L36.9119 2.39112H36.875L36.3211 4.1176L35.7394 5.89025H38.0476L37.4751 4.15453Z" fill="white"/>
<path d="M44.6382 0.47998C45.9215 0.47998 47.0202 0.95084 47.5557 2.06798C47.8603 2.69579 47.888 3.56365 47.888 4.61616C47.888 5.81639 47.8603 6.68425 47.5834 7.34899C47.0202 8.64155 45.8107 9.04778 44.4258 9.04778H41.5176V0.47998H44.6382ZM43.0132 7.69983H44.4812C45.9215 7.69983 46.4016 6.85966 46.4016 5.56711V3.96988C46.4016 2.43728 45.7092 1.83716 44.4535 1.83716H43.0132V7.69983Z" fill="white"/>
<path d="M49.2285 9.05702V0.47998H54.9712V1.83717H50.715V4.08067H54.3433V5.3917H50.715V7.70907H54.9712V9.06625H49.2285V9.05702Z" fill="white"/>
<path d="M60.4541 1.83716V4.15453H64.0733V5.44709H60.4449V9.05701H58.9492V0.47998H64.6919V1.83716H60.4541Z" fill="white"/>
<path d="M71.57 3.66526V5.8626C71.57 7.85683 70.3144 9.13092 68.3663 9.13092C66.2244 9.13092 65.1719 7.61679 65.1719 5.8626V3.66526C65.1719 1.93877 66.2151 0.415405 68.3663 0.415405C70.3421 0.415405 71.57 1.80029 71.57 3.66526ZM66.6768 3.5914V5.89953C66.6768 6.83202 67.2215 7.73681 68.3663 7.73681C69.4096 7.73681 70.0559 6.93358 70.0559 5.89953V3.5914C70.0559 2.62198 69.4281 1.81875 68.3663 1.81875C67.2215 1.81875 66.6768 2.69584 66.6768 3.5914Z" fill="white"/>
<path d="M77.3863 9.05701L75.5121 5.89025L73.6471 9.05701H71.9668L74.7366 4.67155L72.1422 0.47998H73.8318L75.5213 3.43439L77.2201 0.47998H78.9004L76.2969 4.67155L79.0666 9.05701H77.3863Z" fill="white"/>
<path d="M87.6077 6.63813C87.423 7.43212 87.063 8.04147 86.5275 8.4754C85.9828 8.9001 85.3365 9.11245 84.5886 9.11245C83.9147 9.09398 83.3515 8.9278 82.8991 8.61389C82.4375 8.30922 82.1051 7.96761 81.902 7.57061C81.8373 7.44136 81.7819 7.32133 81.7358 7.20131C81.6896 7.08129 81.6527 6.92433 81.6158 6.73968C81.5604 6.39808 81.5234 5.73334 81.5234 4.75469C81.5234 3.75757 81.5511 3.09283 81.6158 2.75123C81.6804 2.40962 81.7727 2.14188 81.902 1.92953C82.1143 1.53253 82.4467 1.18169 82.8991 0.867787C83.3515 0.553881 83.9147 0.396928 84.5886 0.387695C85.4196 0.396928 86.0935 0.636974 86.6106 1.1263C87.1276 1.61562 87.46 2.21574 87.5984 2.93588H86.232C86.1305 2.59427 85.9366 2.29883 85.6596 2.04955C85.3734 1.81874 85.0133 1.69872 84.5979 1.68948C84.2932 1.69872 84.0255 1.75411 83.8131 1.87413C83.5915 1.99416 83.4069 2.14188 83.2684 2.3173C83.1022 2.50195 82.9914 2.74199 82.936 3.0282C82.8714 3.33288 82.8437 3.90529 82.8437 4.75469C82.8437 5.59485 82.8714 6.16727 82.936 6.46271C82.9914 6.75815 83.1022 6.99819 83.2684 7.18285C83.4069 7.35826 83.5823 7.50598 83.8131 7.60754C84.0347 7.7368 84.2932 7.80143 84.5979 7.80143C85.3272 7.80143 85.872 7.41366 86.232 6.62889H87.6077V6.63813Z" fill="#6EA874"/>
<path d="M88.5312 0.461548H94.0061V1.68948H89.833V4.21919H93.3968V5.37326H89.833V9.03858H88.5312V0.461548Z" fill="#6EA874"/>
<path d="M94.9941 0.461548H97.9947C99.158 0.47078 100.026 0.950873 100.608 1.91106C100.82 2.2342 100.949 2.56657 101.005 2.92664C101.051 3.27747 101.069 3.88682 101.069 4.75468C101.069 5.67794 101.032 6.31498 100.968 6.68428C100.94 6.86893 100.894 7.03512 100.829 7.18284C100.764 7.32133 100.681 7.46905 100.589 7.626C100.34 8.03223 99.9889 8.36461 99.5458 8.62312C99.1026 8.90933 98.5579 9.04781 97.9209 9.04781H95.0126V0.461548H94.9941ZM96.2959 7.81065H97.847C98.5764 7.81065 99.1026 7.56137 99.435 7.06282C99.5827 6.87817 99.675 6.64735 99.712 6.36114C99.7489 6.08417 99.7674 5.55791 99.7674 4.80084C99.7674 4.05301 99.7489 3.52675 99.712 3.20361C99.6658 2.88047 99.555 2.62196 99.3796 2.41885C99.0195 1.92029 98.5117 1.68024 97.847 1.69871H96.2959V7.81065Z" fill="#6EA874"/>
<path d="M22.3708 14.3565C22.2785 14.7628 22.0938 15.0767 21.8261 15.289C21.5491 15.5014 21.2167 15.6122 20.8382 15.6122C20.4966 15.6029 20.2104 15.5198 19.9796 15.3629C19.7487 15.2059 19.5733 15.0305 19.4718 14.8274C19.4441 14.7628 19.4071 14.6981 19.3887 14.6427C19.361 14.5781 19.3425 14.5043 19.3333 14.4119C19.3056 14.2365 19.2871 13.8949 19.2871 13.3963C19.2871 12.8886 19.3056 12.547 19.3333 12.3808C19.361 12.2054 19.4164 12.0669 19.481 11.9653C19.5826 11.7622 19.758 11.5868 19.9888 11.4298C20.2196 11.2729 20.5058 11.1898 20.8474 11.1805C21.2721 11.1805 21.6137 11.3098 21.8722 11.5591C22.14 11.8084 22.3062 12.113 22.3708 12.4731H21.6691C21.6137 12.2977 21.5214 12.15 21.3737 12.0207C21.2259 11.9007 21.0505 11.8453 20.8382 11.8361C20.6812 11.8361 20.552 11.873 20.4412 11.9284C20.3304 11.9838 20.2381 12.0669 20.1642 12.15C20.0811 12.2423 20.0257 12.3623 19.998 12.51C19.9703 12.667 19.9519 12.9532 19.9519 13.3871C19.9519 13.8118 19.9703 14.1073 19.998 14.255C20.0257 14.4027 20.0811 14.5319 20.1642 14.6243C20.2381 14.7166 20.3304 14.7905 20.4412 14.8459C20.552 14.9105 20.6905 14.9474 20.8382 14.9474C21.2075 14.9474 21.4845 14.7535 21.6691 14.3565H22.3708Z" fill="white"/>
<path d="M22.6289 14.0149C22.6289 13.6917 22.6566 13.4332 22.712 13.2578C22.7674 13.0824 22.8505 12.9439 22.9705 12.8239C23.0536 12.7223 23.1736 12.63 23.3306 12.5469C23.4783 12.473 23.6722 12.4269 23.9122 12.4269C24.1615 12.4269 24.3554 12.473 24.5031 12.5469C24.6508 12.63 24.7709 12.7223 24.854 12.8239C24.974 12.9439 25.0663 13.0824 25.1217 13.2578C25.1679 13.4332 25.1956 13.6825 25.1956 14.0149C25.1956 14.338 25.1679 14.5873 25.1217 14.7627C25.0663 14.9381 24.9832 15.0859 24.854 15.2059C24.817 15.252 24.7616 15.2982 24.7062 15.3444C24.6508 15.3905 24.5862 15.4367 24.5031 15.4736C24.3554 15.5567 24.1523 15.6029 23.9122 15.6121C23.6722 15.6121 23.4783 15.5659 23.3306 15.4736C23.1736 15.3998 23.0536 15.3074 22.9705 15.2059C22.8505 15.0766 22.7674 14.9289 22.712 14.7627C22.6566 14.5965 22.6289 14.3472 22.6289 14.0149ZM24.5677 14.0241C24.5677 13.8025 24.5585 13.6456 24.54 13.544C24.5216 13.4425 24.4754 13.3594 24.42 13.2855C24.3739 13.2116 24.3092 13.1655 24.2169 13.1193C24.1338 13.0732 24.0323 13.0547 23.9215 13.0547C23.8199 13.0547 23.7183 13.0732 23.626 13.1193C23.5429 13.1563 23.4691 13.2116 23.4137 13.2855C23.3583 13.3594 23.3213 13.4425 23.2936 13.544C23.266 13.6456 23.2567 13.8025 23.2567 14.0241C23.2567 14.2365 23.266 14.3934 23.2936 14.495C23.3213 14.5965 23.3583 14.6889 23.4137 14.7627C23.4691 14.8181 23.5337 14.8735 23.626 14.9197C23.7183 14.9658 23.8107 14.9843 23.9215 14.9843C24.0323 14.9843 24.1338 14.9658 24.2169 14.9197C24.3092 14.8735 24.3739 14.8181 24.42 14.7627C24.4846 14.6889 24.5216 14.5965 24.54 14.495C24.5585 14.3934 24.5677 14.2365 24.5677 14.0241Z" fill="white"/>
<path d="M25.8516 12.4638H26.4794V12.7962H26.4886C26.6917 12.5469 26.9595 12.4269 27.2918 12.4269C27.5504 12.4269 27.7812 12.5192 27.9935 12.6946C28.2059 12.8793 28.3166 13.147 28.3259 13.4979V15.5659H27.6981V13.7194C27.6981 13.4979 27.6427 13.3409 27.5227 13.2209C27.4119 13.1009 27.2641 13.0455 27.0795 13.0455C26.9041 13.0455 26.7564 13.1009 26.6363 13.2209C26.5163 13.3317 26.4609 13.4979 26.4609 13.7194V15.5659H25.8516V12.4638Z" fill="white"/>
<path d="M29.1758 11.5221H29.8036V12.4638H30.256V12.9439H29.8036V14.7535C29.8036 14.9104 29.8774 14.9843 30.0252 14.9843H30.256V15.5752H29.9328C29.7113 15.5752 29.5358 15.5105 29.3973 15.3721C29.2496 15.2428 29.185 15.0582 29.185 14.8089V12.9439H28.8711V12.4638H29.185V11.5221H29.1758Z" fill="white"/>
<path d="M30.8379 12.4638H31.4657V12.7962H31.4749C31.6781 12.5469 31.9458 12.4269 32.2782 12.4269C32.5275 12.4269 32.749 12.51 32.9337 12.6669L32.4813 13.2116C32.352 13.1101 32.2135 13.0547 32.0751 13.0547C31.9181 13.0547 31.7796 13.1101 31.6688 13.2116C31.5396 13.3132 31.4749 13.4794 31.4749 13.701V15.5752H30.8379V12.4638Z" fill="white"/>
<path d="M34.7433 15.2982H34.7341C34.6787 15.3998 34.5864 15.4829 34.4664 15.5291C34.3463 15.5844 34.1802 15.6029 33.9678 15.6029C33.617 15.6029 33.3492 15.5106 33.1646 15.3259C32.9707 15.1505 32.8691 14.9289 32.8691 14.652C32.8691 14.3935 32.9522 14.1719 33.1277 14.0057C33.3031 13.8303 33.5523 13.7379 33.8847 13.7379H34.7526V13.4148C34.7526 13.1378 34.5402 13.0086 34.1155 13.0178C33.9586 13.0178 33.8386 13.0363 33.7462 13.064C33.6539 13.1009 33.58 13.1655 33.5247 13.2578L33.0353 12.8793C33.2754 12.5654 33.6262 12.4177 34.0878 12.4269C34.4756 12.4269 34.7895 12.5008 35.0203 12.6485C35.2511 12.8055 35.3712 13.0732 35.3804 13.4517V15.5752H34.7526V15.2982H34.7433ZM34.7433 14.255H33.9955C33.6354 14.2642 33.4508 14.3842 33.46 14.6335C33.46 14.7351 33.5062 14.8274 33.5985 14.9012C33.6908 14.9843 33.8386 15.0213 34.0417 15.0213C34.3002 15.0213 34.4848 14.9936 34.5956 14.9289C34.6972 14.8643 34.7433 14.7166 34.7433 14.4765V14.255Z" fill="white"/>
<path d="M38.4633 15.0675C38.3248 15.2244 38.1679 15.3537 37.9832 15.446C37.7986 15.5476 37.5862 15.603 37.3462 15.603C36.9769 15.603 36.6537 15.4737 36.3768 15.2244C36.0905 14.9751 35.9428 14.5689 35.9336 14.015C35.9428 13.4518 36.0905 13.0455 36.3768 12.787C36.6537 12.5377 36.9769 12.4177 37.3462 12.4177C37.5862 12.4177 37.7986 12.4731 37.9832 12.5654C38.1679 12.667 38.3248 12.7963 38.4633 12.9532L38.0017 13.3594C37.8447 13.1471 37.6324 13.0455 37.3739 13.0363C36.8476 13.0271 36.5706 13.3502 36.5706 14.0057C36.5799 14.652 36.8476 14.9751 37.3739 14.9659C37.6416 14.9659 37.8447 14.8551 38.0017 14.6428L38.4633 15.0675Z" fill="white"/>
<path d="M38.9336 11.5221H39.5614V12.4638H40.0138V12.9439H39.5614V14.7535C39.5614 14.9104 39.6353 14.9843 39.783 14.9843H40.0138V15.5752H39.6907C39.4691 15.5752 39.2937 15.5105 39.1552 15.3721C39.0074 15.2428 38.9428 15.0582 38.9428 14.8089V12.9439H38.6289V12.4638H38.9428V11.5221H38.9336Z" fill="white"/>
<path d="M41.6754 15.0212C41.8508 15.0212 41.9985 14.9843 42.1185 14.9197C42.2293 14.8458 42.2847 14.7535 42.2847 14.6242C42.2847 14.5134 42.2478 14.4303 42.1832 14.3934C42.1093 14.3472 42.017 14.3196 41.9062 14.3196L41.3522 14.2734C41.0937 14.2457 40.8814 14.1626 40.7152 14.0056C40.549 13.8579 40.4659 13.6548 40.4567 13.3871C40.4567 13.0639 40.5767 12.8331 40.7983 12.6669C41.0106 12.51 41.2876 12.4269 41.62 12.4269C41.7677 12.4269 41.8877 12.4361 42.0077 12.4546C42.1185 12.473 42.2293 12.5007 42.3309 12.5377C42.5248 12.6115 42.6909 12.7223 42.8479 12.8516L42.4601 13.304C42.3401 13.2209 42.2109 13.147 42.0816 13.0916C41.9523 13.0455 41.7954 13.0178 41.6292 13.0178C41.4353 13.0178 41.2968 13.0547 41.223 13.1193C41.1399 13.1932 41.1029 13.2763 41.1029 13.3871C41.1029 13.4609 41.1306 13.5163 41.1953 13.5717C41.2507 13.6271 41.3615 13.664 41.5092 13.6825L42.0262 13.7194C42.3493 13.7471 42.5802 13.8395 42.7279 14.0149C42.8571 14.1811 42.931 14.3934 42.931 14.6519C42.931 14.9566 42.8017 15.1874 42.5617 15.3444C42.3216 15.5106 42.017 15.5936 41.6477 15.6029C41.1399 15.6029 40.6875 15.4182 40.2812 15.0489L40.7152 14.6242C40.946 14.892 41.2691 15.0212 41.6754 15.0212Z" fill="white"/>
<path d="M45.1108 12.944H44.7969V12.4639H45.1108V12.0576C45.1108 11.7622 45.1939 11.5406 45.3601 11.4021C45.517 11.2729 45.7201 11.2083 45.9602 11.2083H46.3664V11.7991H46.0063C45.8217 11.7899 45.7294 11.8822 45.7386 12.0576V12.4639H46.3664V12.944H45.7386V15.5752H45.1108V12.944Z" fill="white"/>
<path d="M46.5605 14.0149C46.5605 13.6917 46.5882 13.4332 46.6436 13.2578C46.699 13.0824 46.7821 12.9439 46.9022 12.8239C46.9852 12.7223 47.1053 12.63 47.2622 12.5469C47.4099 12.473 47.6038 12.4269 47.8439 12.4269C48.0932 12.4269 48.287 12.473 48.4348 12.5469C48.5825 12.63 48.7025 12.7223 48.7856 12.8239C48.9056 12.9439 48.998 13.0824 49.0534 13.2578C49.0995 13.4332 49.1272 13.6825 49.1272 14.0149C49.1272 14.338 49.0995 14.5873 49.0534 14.7627C48.998 14.9381 48.9149 15.0859 48.7856 15.2059C48.7487 15.252 48.6933 15.2982 48.6379 15.3444C48.5825 15.3905 48.5179 15.4367 48.4348 15.4736C48.287 15.5567 48.0839 15.6029 47.8439 15.6121C47.6038 15.6121 47.4099 15.5659 47.2622 15.4736C47.1053 15.3998 46.9852 15.3074 46.9022 15.2059C46.7821 15.0766 46.699 14.9289 46.6436 14.7627C46.5882 14.5965 46.5605 14.3472 46.5605 14.0149ZM48.4902 14.0241C48.4902 13.8025 48.4809 13.6456 48.4625 13.544C48.444 13.4425 48.3978 13.3594 48.3424 13.2855C48.2963 13.2116 48.2317 13.1655 48.1393 13.1193C48.0562 13.0732 47.9547 13.0547 47.8439 13.0547C47.7423 13.0547 47.6408 13.0732 47.5484 13.1193C47.4653 13.1563 47.3915 13.2116 47.3361 13.2855C47.2807 13.3594 47.2438 13.4425 47.2161 13.544C47.1884 13.6456 47.1791 13.8025 47.1791 14.0241C47.1791 14.2365 47.1884 14.3934 47.2161 14.495C47.2438 14.5965 47.2807 14.6889 47.3361 14.7627C47.3915 14.8181 47.4561 14.8735 47.5484 14.9197C47.6408 14.9658 47.7331 14.9843 47.8439 14.9843C47.9547 14.9843 48.0562 14.9658 48.1393 14.9197C48.2317 14.8735 48.2963 14.8181 48.3424 14.7627C48.4071 14.6889 48.444 14.5965 48.4625 14.495C48.4809 14.3934 48.4902 14.2365 48.4902 14.0241Z" fill="white"/>
<path d="M49.7734 12.4638H50.4013V12.7962H50.4105C50.6136 12.5469 50.8813 12.4269 51.2137 12.4269C51.463 12.4269 51.6846 12.51 51.8692 12.6669L51.4168 13.2116C51.2876 13.1101 51.1491 13.0547 51.0106 13.0547C50.8536 13.0547 50.7152 13.1101 50.6044 13.2116C50.4751 13.3132 50.4105 13.4794 50.4105 13.701V15.5752H49.7827V12.4638H49.7734Z" fill="white"/>
<path d="M53.6875 11.2083H55.2109C55.8018 11.2083 56.2449 11.4575 56.5404 11.9469C56.642 12.113 56.7158 12.2792 56.7435 12.4639C56.762 12.6393 56.7804 12.9532 56.7804 13.3964C56.7804 13.8672 56.762 14.1904 56.725 14.375C56.7066 14.4673 56.6881 14.5504 56.6512 14.6243C56.6143 14.6982 56.5773 14.772 56.5312 14.8459C56.4019 15.049 56.2265 15.2244 55.9957 15.3537C55.7741 15.5014 55.4971 15.566 55.1647 15.566H53.6875V11.2083ZM54.343 14.9474H55.137C55.5063 14.9474 55.7741 14.8182 55.9403 14.5689C56.0141 14.4766 56.0603 14.3566 56.0788 14.2088C56.0972 14.0703 56.1065 13.8026 56.1065 13.4148C56.1065 13.0363 56.0972 12.7686 56.0788 12.6024C56.0511 12.4362 55.9957 12.3069 55.9126 12.2054C55.7279 11.9561 55.4694 11.8268 55.137 11.8361H54.343V14.9474Z" fill="white"/>
<path d="M57.5 11.2083H58.1279V11.8361H57.5V11.2083ZM57.5 12.4639H58.1279V15.566H57.5V12.4639Z" fill="white"/>
<path d="M59.0522 12.944H58.7383V12.4639H59.0522V12.0576C59.0522 11.7622 59.1353 11.5406 59.3015 11.4021C59.4584 11.2729 59.6616 11.2083 59.9016 11.2083H60.3079V11.7991H59.9478C59.7631 11.7899 59.6708 11.8822 59.68 12.0576V12.4639H60.3079V12.944H59.68V15.5752H59.0522V12.944Z" fill="white"/>
<path d="M60.6499 12.944H60.3359V12.4639H60.6499V12.0576C60.6499 11.7622 60.7329 11.5406 60.8991 11.4021C61.0561 11.2729 61.2592 11.2083 61.4993 11.2083H61.9055V11.7991H61.5454C61.3608 11.7899 61.2684 11.8822 61.2777 12.0576V12.4639H61.9055V12.944H61.2777V15.5752H60.6499V12.944Z" fill="white"/>
<path d="M62.7171 14.2549C62.7171 14.5042 62.791 14.6981 62.9295 14.8273C63.0587 14.9566 63.2342 15.0212 63.4557 15.0212C63.705 15.0212 63.9358 14.9197 64.139 14.7165L64.5914 15.1043C64.2774 15.4459 63.8989 15.6121 63.4742 15.6029C63.308 15.6029 63.1511 15.5752 62.9941 15.529C62.9202 15.5013 62.8372 15.4644 62.7633 15.4275C62.6894 15.3905 62.6156 15.3444 62.5417 15.289C62.4125 15.1689 62.3017 15.012 62.2186 14.8089C62.1262 14.6058 62.0801 14.3472 62.0801 14.0333C62.0801 13.7287 62.117 13.4702 62.2001 13.267C62.274 13.0639 62.3755 12.8977 62.4955 12.7777C62.6156 12.6577 62.7541 12.5654 62.911 12.51C63.0587 12.4546 63.2157 12.4269 63.3634 12.4269C63.7143 12.4269 64.0189 12.5469 64.2682 12.7777C64.5175 13.0085 64.6468 13.3317 64.6468 13.7379V14.2549H62.7171ZM64.0282 13.7379C64.0189 13.4979 63.9543 13.3132 63.8343 13.1932C63.7143 13.0732 63.5573 13.0178 63.3727 13.0178C63.188 13.0178 63.031 13.0732 62.911 13.1932C62.791 13.3132 62.7264 13.4979 62.7171 13.7379H64.0282Z" fill="white"/>
<path d="M65.3105 12.4638H65.9384V12.7962H65.9476C66.1507 12.5469 66.4185 12.4269 66.7508 12.4269C67.0001 12.4269 67.2217 12.51 67.4064 12.6669L66.954 13.2116C66.8247 13.1101 66.6862 13.0547 66.5477 13.0547C66.3908 13.0547 66.2523 13.1101 66.1415 13.2116C66.0122 13.3132 65.9476 13.4794 65.9476 13.701V15.5752H65.3198V12.4638H65.3105Z" fill="white"/>
<path d="M68.0628 14.2549C68.0628 14.5042 68.1367 14.6981 68.2752 14.8273C68.4044 14.9566 68.5799 15.0212 68.8014 15.0212C69.0507 15.0212 69.2815 14.9197 69.4846 14.7165L69.937 15.1043C69.6231 15.4459 69.2446 15.6121 68.8199 15.6029C68.6537 15.6029 68.4968 15.5752 68.3398 15.529C68.2659 15.5013 68.1829 15.4644 68.109 15.4275C68.0351 15.3905 67.9613 15.3444 67.8874 15.289C67.7582 15.1689 67.6474 15.012 67.5643 14.8089C67.4719 14.6058 67.4258 14.3472 67.4258 14.0333C67.4258 13.7287 67.4627 13.4702 67.5458 13.267C67.6197 13.0639 67.7212 12.8977 67.8412 12.7777C67.9613 12.6577 68.0998 12.5654 68.2567 12.51C68.4044 12.4546 68.5614 12.4269 68.7091 12.4269C69.06 12.4269 69.3646 12.5469 69.6139 12.7777C69.8632 13.0085 69.9924 13.3317 69.9924 13.7379V14.2549H68.0628ZM69.3646 13.7379C69.3554 13.4979 69.2908 13.3132 69.1707 13.1932C69.0507 13.0732 68.8938 13.0178 68.7091 13.0178C68.5245 13.0178 68.3675 13.0732 68.2475 13.1932C68.1275 13.3132 68.0628 13.4979 68.0536 13.7379H69.3646Z" fill="white"/>
<path d="M70.6474 12.4638H71.2752V12.7962H71.2844C71.4875 12.5469 71.7553 12.4269 72.0876 12.4269C72.3462 12.4269 72.577 12.5192 72.7893 12.6946C73.0017 12.8793 73.1125 13.147 73.1217 13.4979V15.5659H72.4939V13.7194C72.4939 13.4979 72.4385 13.3409 72.3185 13.2209C72.2077 13.1009 72.06 13.0455 71.8753 13.0455C71.6999 13.0455 71.5522 13.1009 71.4321 13.2209C71.3121 13.3317 71.2567 13.4979 71.2567 13.7194V15.5659H70.6289V12.4638H70.6474Z" fill="white"/>
<path d="M76.225 15.0675C76.0865 15.2244 75.9296 15.3537 75.7449 15.446C75.5603 15.5476 75.3479 15.603 75.1079 15.603C74.7386 15.603 74.4154 15.4737 74.1385 15.2244C73.8523 14.9751 73.7045 14.5689 73.6953 14.015C73.7045 13.4518 73.8523 13.0455 74.1385 12.787C74.4154 12.5377 74.7386 12.4177 75.1079 12.4177C75.3479 12.4177 75.5603 12.4731 75.7449 12.5654C75.9296 12.667 76.0865 12.7963 76.225 12.9532L75.7634 13.3594C75.6064 13.1471 75.3941 13.0455 75.1356 13.0363C74.6093 13.0271 74.3324 13.3502 74.3324 14.0057C74.3416 14.652 74.6093 14.9751 75.1356 14.9659C75.4033 14.9659 75.6064 14.8551 75.7634 14.6428L76.225 15.0675Z" fill="white"/>
<path d="M77.1292 14.2549C77.1292 14.5042 77.2031 14.6981 77.3416 14.8273C77.4708 14.9566 77.6463 15.0212 77.8678 15.0212C78.1171 15.0212 78.3479 14.9197 78.551 14.7165L79.0034 15.1043C78.6895 15.4459 78.311 15.6121 77.8863 15.6029C77.7201 15.6029 77.5632 15.5752 77.4062 15.529C77.3324 15.5013 77.2493 15.4644 77.1754 15.4275C77.1015 15.3905 77.0277 15.3444 76.9538 15.289C76.8246 15.1689 76.7138 15.012 76.6307 14.8089C76.5384 14.6058 76.4922 14.3472 76.4922 14.0333C76.4922 13.7287 76.5291 13.4702 76.6122 13.267C76.6861 13.0639 76.7876 12.8977 76.9077 12.7777C77.0277 12.6577 77.1662 12.5654 77.3231 12.51C77.4708 12.4546 77.6278 12.4269 77.7755 12.4269C78.1263 12.4269 78.431 12.5469 78.6803 12.7777C78.9296 13.0085 79.0588 13.3317 79.0588 13.7379V14.2549H77.1292ZM78.4402 13.7379C78.431 13.4979 78.3664 13.3132 78.2464 13.1932C78.1263 13.0732 77.9694 13.0178 77.7847 13.0178C77.6001 13.0178 77.4431 13.0732 77.3231 13.1932C77.2031 13.3132 77.1385 13.4979 77.1292 13.7379H78.4402Z" fill="white"/>
</svg>
