<svg width="102" height="16" viewBox="0 0 102 16" fill="none" xmlns="http://www.w3.org/2000/svg">
<path d="M15.9169 3.28679V0H13.0825L7.95845 5.12406L2.83439 0H0V3.28679L5.72418 9.01096H10.1927L15.9169 3.28679Z" fill="#FF6205"/>
<path d="M15.9169 10.2758V6.99829H13.0825L7.95845 12.1131L2.83439 6.99829H0V10.2758L5.72418 16H10.1927L15.9169 10.2758Z" fill="black"/>
<path d="M23.155 1.80947V9.05701H21.6593V1.80947H19.2773V0.47998H25.537V1.80947H23.155Z" fill="black"/>
<path d="M30.9563 9.05701L29.4606 5.52095H27.8726V9.05701H26.377V0.47998H30.0238C31.4825 0.47998 32.6458 1.41247 32.6458 2.94507C32.6458 4.04374 32.0088 4.90237 30.9286 5.29937L32.6181 9.05701H30.9563ZM29.8022 1.80023H27.8819V4.19146H29.7561C30.5593 4.19146 31.1409 3.7483 31.1409 2.94507C31.1409 2.14184 30.587 1.80023 29.8022 1.80023Z" fill="black"/>
<path d="M39.1647 9.05701L38.4907 7.15511H35.3147L34.6223 9.05701H33.0527L36.2934 0.47998H37.5028L40.7435 9.05701H39.1647ZM37.4751 4.15453L36.9119 2.39112H36.875L36.3211 4.1176L35.7394 5.89025H38.0476L37.4751 4.15453Z" fill="black"/>
<path d="M44.6392 0.47998C45.9225 0.47998 47.0211 0.95084 47.5566 2.06798C47.8613 2.69579 47.889 3.56365 47.889 4.61616C47.889 5.81639 47.8613 6.68425 47.5843 7.34899C47.0212 8.64155 45.8117 9.04778 44.4268 9.04778H41.5186V0.47998H44.6392ZM43.0142 7.69983H44.4822C45.9225 7.69983 46.4026 6.85966 46.4026 5.56711V3.96988C46.4026 2.43728 45.7101 1.83716 44.4545 1.83716H43.0142V7.69983Z" fill="black"/>
<path d="M49.2275 9.05702V0.47998H54.9702V1.83717H50.714V4.08067H54.3424V5.3917H50.714V7.70907H54.9702V9.06625H49.2275V9.05702Z" fill="black"/>
<path d="M60.4541 1.83716V4.15453H64.0733V5.44709H60.4449V9.05701H58.9492V0.47998H64.6919V1.83716H60.4541Z" fill="black"/>
<path d="M71.57 3.66514V5.86248C71.57 7.85671 70.3144 9.1308 68.3663 9.1308C66.2244 9.1308 65.1719 7.61666 65.1719 5.86248V3.66514C65.1719 1.93865 66.2151 0.415283 68.3663 0.415283C70.3421 0.415283 71.57 1.80016 71.57 3.66514ZM66.6768 3.59128V5.89941C66.6768 6.8319 67.2215 7.73669 68.3663 7.73669C69.4096 7.73669 70.0559 6.93346 70.0559 5.89941V3.59128C70.0559 2.62186 69.4281 1.81863 68.3663 1.81863C67.2215 1.81863 66.6768 2.69572 66.6768 3.59128Z" fill="black"/>
<path d="M77.3873 9.05701L75.5131 5.89025L73.6481 9.05701H71.9678L74.7375 4.67155L72.1432 0.47998H73.8327L75.5223 3.43439L77.2211 0.47998H78.9014L76.2978 4.67155L79.0676 9.05701H77.3873Z" fill="black"/>
<path d="M87.6077 6.63813C87.423 7.43212 87.063 8.04147 86.5275 8.4754C85.9828 8.9001 85.3365 9.11245 84.5886 9.11245C83.9147 9.09398 83.3515 8.9278 82.8991 8.61389C82.4375 8.30922 82.1051 7.96761 81.902 7.57061C81.8373 7.44136 81.7819 7.32133 81.7358 7.20131C81.6896 7.08129 81.6527 6.92433 81.6158 6.73968C81.5604 6.39808 81.5234 5.73334 81.5234 4.75469C81.5234 3.75757 81.5511 3.09283 81.6158 2.75123C81.6804 2.40962 81.7727 2.14188 81.902 1.92953C82.1143 1.53253 82.4467 1.18169 82.8991 0.867787C83.3515 0.553881 83.9147 0.396928 84.5886 0.387695C85.4196 0.396928 86.0935 0.636974 86.6106 1.1263C87.1276 1.61562 87.46 2.21574 87.5984 2.93588H86.232C86.1305 2.59427 85.9366 2.29883 85.6596 2.04955C85.3734 1.81874 85.0133 1.69872 84.5979 1.68948C84.2932 1.69872 84.0255 1.75411 83.8131 1.87413C83.5915 1.99416 83.4069 2.14188 83.2684 2.3173C83.1022 2.50195 82.9914 2.74199 82.936 3.0282C82.8714 3.33288 82.8437 3.90529 82.8437 4.75469C82.8437 5.59485 82.8714 6.16727 82.936 6.46271C82.9914 6.75815 83.1022 6.99819 83.2684 7.18285C83.4069 7.35826 83.5823 7.50598 83.8131 7.60754C84.0347 7.7368 84.2932 7.80143 84.5979 7.80143C85.3272 7.80143 85.872 7.41366 86.232 6.62889H87.6077V6.63813Z" fill="#6EA874"/>
<path d="M88.5312 0.46167H94.0061V1.6896H89.833V4.21932H93.3968V5.37338H89.833V9.0387H88.5312V0.46167Z" fill="#6EA874"/>
<path d="M94.9941 0.46167H97.9947C99.158 0.470902 100.026 0.950995 100.608 1.91118C100.82 2.23432 100.949 2.56669 101.005 2.92676C101.051 3.2776 101.069 3.88694 101.069 4.7548C101.069 5.67806 101.032 6.3151 100.968 6.68441C100.94 6.86906 100.894 7.03524 100.829 7.18296C100.764 7.32145 100.681 7.46917 100.589 7.62612C100.34 8.03236 99.9889 8.36473 99.5458 8.62324C99.1026 8.90945 98.5579 9.04794 97.9209 9.04794H95.0126V0.46167H94.9941ZM96.2959 7.81078H97.847C98.5764 7.81078 99.1026 7.5615 99.435 7.06294C99.5827 6.87829 99.675 6.64748 99.712 6.36127C99.7489 6.08429 99.7674 5.55803 99.7674 4.80097C99.7674 4.05313 99.7489 3.52687 99.712 3.20374C99.6658 2.8806 99.555 2.62209 99.3796 2.41897C99.0195 1.92041 98.5117 1.68037 97.847 1.69883H96.2959V7.81078Z" fill="#6EA874"/>
<path d="M22.3698 14.3564C22.2775 14.7626 22.0928 15.0765 21.8251 15.2889C21.5481 15.5012 21.2157 15.612 20.8372 15.612C20.4956 15.6028 20.2094 15.5197 19.9786 15.3628C19.7478 15.2058 19.5723 15.0304 19.4708 14.8273C19.4431 14.7626 19.4062 14.698 19.3877 14.6426C19.36 14.578 19.3415 14.5041 19.3323 14.4118C19.3046 14.2364 19.2861 13.8948 19.2861 13.3962C19.2861 12.8884 19.3046 12.5468 19.3323 12.3806C19.36 12.2052 19.4154 12.0667 19.48 11.9652C19.5816 11.7621 19.757 11.5867 19.9878 11.4297C20.2186 11.2727 20.5048 11.1897 20.8464 11.1804C21.2711 11.1804 21.6127 11.3097 21.8712 11.559C22.139 11.8082 22.3052 12.1129 22.3698 12.473H21.6681C21.6127 12.2976 21.5204 12.1498 21.3727 12.0206C21.225 11.9006 21.0495 11.8452 20.8372 11.8359C20.6802 11.8359 20.551 11.8729 20.4402 11.9283C20.3294 11.9836 20.2371 12.0667 20.1632 12.1498C20.0801 12.2422 20.0247 12.3622 19.997 12.5099C19.9693 12.6669 19.9509 12.9531 19.9509 13.387C19.9509 13.8117 19.9693 14.1071 19.997 14.2549C20.0247 14.4026 20.0801 14.5318 20.1632 14.6242C20.2371 14.7165 20.3294 14.7903 20.4402 14.8457C20.551 14.9104 20.6895 14.9473 20.8372 14.9473C21.2065 14.9473 21.4835 14.7534 21.6681 14.3564H22.3698Z" fill="black"/>
<path d="M22.6279 14.0148C22.6279 13.6916 22.6556 13.4331 22.711 13.2577C22.7664 13.0823 22.8495 12.9438 22.9695 12.8238C23.0526 12.7222 23.1726 12.6299 23.3296 12.5468C23.4773 12.4729 23.6712 12.4268 23.9113 12.4268C24.1605 12.4268 24.3544 12.4729 24.5021 12.5468C24.6499 12.6299 24.7699 12.7222 24.853 12.8238C24.973 12.9438 25.0653 13.0823 25.1207 13.2577C25.1669 13.4331 25.1946 13.6824 25.1946 14.0148C25.1946 14.3379 25.1669 14.5872 25.1207 14.7626C25.0653 14.938 24.9822 15.0857 24.853 15.2058C24.816 15.2519 24.7606 15.2981 24.7053 15.3442C24.6499 15.3904 24.5852 15.4366 24.5021 15.4735C24.3544 15.5566 24.1513 15.6028 23.9113 15.612C23.6712 15.612 23.4773 15.5658 23.3296 15.4735C23.1726 15.3996 23.0526 15.3073 22.9695 15.2058C22.8495 15.0765 22.7664 14.9288 22.711 14.7626C22.6556 14.5964 22.6279 14.3471 22.6279 14.0148ZM24.5668 14.024C24.5668 13.8024 24.5575 13.6455 24.5391 13.5439C24.5206 13.4423 24.4744 13.3592 24.419 13.2854C24.3729 13.2115 24.3083 13.1654 24.2159 13.1192C24.1328 13.073 24.0313 13.0546 23.9205 13.0546C23.8189 13.0546 23.7174 13.073 23.625 13.1192C23.542 13.1561 23.4681 13.2115 23.4127 13.2854C23.3573 13.3592 23.3204 13.4423 23.2927 13.5439C23.265 13.6455 23.2557 13.8024 23.2557 14.024C23.2557 14.2363 23.265 14.3933 23.2927 14.4948C23.3204 14.5964 23.3573 14.6887 23.4127 14.7626C23.4681 14.818 23.5327 14.8734 23.625 14.9195C23.7174 14.9657 23.8097 14.9842 23.9205 14.9842C24.0313 14.9842 24.1328 14.9657 24.2159 14.9195C24.3083 14.8734 24.3729 14.818 24.419 14.7626C24.4837 14.6887 24.5206 14.5964 24.5391 14.4948C24.5575 14.3933 24.5668 14.2363 24.5668 14.024Z" fill="black"/>
<path d="M25.8506 12.4637H26.4784V12.7961H26.4876C26.6907 12.5468 26.9585 12.4268 27.2909 12.4268C27.5494 12.4268 27.7802 12.5191 27.9925 12.6945C28.2049 12.8792 28.3157 13.1469 28.3249 13.4977V15.5658H27.6971V13.7193C27.6971 13.4977 27.6417 13.3408 27.5217 13.2208C27.4109 13.1007 27.2632 13.0453 27.0785 13.0453C26.9031 13.0453 26.7554 13.1007 26.6354 13.2208C26.5153 13.3315 26.4599 13.4977 26.4599 13.7193V15.5658H25.8506V12.4637Z" fill="black"/>
<path d="M29.1738 11.522H29.8016V12.4637H30.254V12.9438H29.8016V14.7534C29.8016 14.9103 29.8755 14.9842 30.0232 14.9842H30.254V15.5751H29.9309C29.7093 15.5751 29.5339 15.5104 29.3954 15.3719C29.2477 15.2427 29.183 15.058 29.183 14.8088V12.9438H28.8691V12.4637H29.183V11.522H29.1738Z" fill="black"/>
<path d="M30.8359 12.4637H31.4638V12.7961H31.473C31.6761 12.5468 31.9438 12.4268 32.2762 12.4268C32.5255 12.4268 32.7471 12.5098 32.9317 12.6668L32.4793 13.2115C32.3501 13.11 32.2116 13.0546 32.0731 13.0546C31.9161 13.0546 31.7777 13.11 31.6669 13.2115C31.5376 13.3131 31.473 13.4793 31.473 13.7008V15.5751H30.8359V12.4637Z" fill="black"/>
<path d="M34.7414 15.2982H34.7322C34.6768 15.3998 34.5844 15.4829 34.4644 15.5291C34.3444 15.5844 34.1782 15.6029 33.9659 15.6029C33.615 15.6029 33.3473 15.5106 33.1626 15.3259C32.9687 15.1505 32.8672 14.9289 32.8672 14.652C32.8672 14.3935 32.9503 14.1719 33.1257 14.0057C33.3011 13.8303 33.5504 13.7379 33.8828 13.7379H34.7506V13.4148C34.7506 13.1378 34.5383 13.0086 34.1136 13.0178C33.9566 13.0178 33.8366 13.0363 33.7443 13.064C33.652 13.1009 33.5781 13.1655 33.5227 13.2578L33.0334 12.8793C33.2734 12.5654 33.6243 12.4177 34.0859 12.4269C34.4737 12.4269 34.7876 12.5008 35.0184 12.6485C35.2492 12.8055 35.3692 13.0732 35.3784 13.4517V15.5752H34.7506V15.2982H34.7414ZM34.7414 14.255H33.9936C33.6335 14.2642 33.4488 14.3842 33.4581 14.6335C33.4581 14.7351 33.5042 14.8274 33.5966 14.9012C33.6889 14.9843 33.8366 15.0213 34.0397 15.0213C34.2982 15.0213 34.4829 14.9936 34.5937 14.9289C34.6952 14.8643 34.7414 14.7166 34.7414 14.4765V14.255Z" fill="black"/>
<path d="M38.4623 15.0672C38.3239 15.2242 38.1669 15.3534 37.9822 15.4458C37.7976 15.5473 37.5852 15.6027 37.3452 15.6027C36.9759 15.6027 36.6528 15.4735 36.3758 15.2242C36.0896 14.9749 35.9418 14.5687 35.9326 14.0147C35.9418 13.4515 36.0896 13.0453 36.3758 12.7868C36.6528 12.5375 36.9759 12.4175 37.3452 12.4175C37.5852 12.4175 37.7976 12.4729 37.9822 12.5652C38.1669 12.6668 38.3239 12.796 38.4623 12.953L38.0007 13.3592C37.8438 13.1469 37.6314 13.0453 37.3729 13.0361C36.8466 13.0268 36.5697 13.35 36.5697 14.0055C36.5789 14.6518 36.8466 14.9749 37.3729 14.9657C37.6406 14.9657 37.8438 14.8549 38.0007 14.6425L38.4623 15.0672Z" fill="black"/>
<path d="M38.9326 11.522H39.5604V12.4637H40.0128V12.9438H39.5604V14.7534C39.5604 14.9103 39.6343 14.9842 39.782 14.9842H40.0128V15.5751H39.6897C39.4681 15.5751 39.2927 15.5104 39.1542 15.3719C39.0065 15.2427 38.9418 15.058 38.9418 14.8088V12.9438H38.6279V12.4637H38.9418V11.522H38.9326Z" fill="black"/>
<path d="M41.6754 15.0211C41.8508 15.0211 41.9985 14.9842 42.1185 14.9195C42.2293 14.8457 42.2847 14.7534 42.2847 14.6241C42.2847 14.5133 42.2478 14.4302 42.1832 14.3933C42.1093 14.3471 42.017 14.3194 41.9062 14.3194L41.3522 14.2733C41.0937 14.2456 40.8814 14.1625 40.7152 14.0055C40.549 13.8578 40.4659 13.6547 40.4567 13.3869C40.4567 13.0638 40.5767 12.833 40.7983 12.6668C41.0106 12.5098 41.2876 12.4268 41.62 12.4268C41.7677 12.4268 41.8877 12.436 42.0077 12.4545C42.1185 12.4729 42.2293 12.5006 42.3309 12.5375C42.5248 12.6114 42.6909 12.7222 42.8479 12.8515L42.4601 13.3038C42.3401 13.2208 42.2109 13.1469 42.0816 13.0915C41.9523 13.0453 41.7954 13.0176 41.6292 13.0176C41.4353 13.0176 41.2968 13.0546 41.223 13.1192C41.1399 13.1931 41.1029 13.2762 41.1029 13.3869C41.1029 13.4608 41.1306 13.5162 41.1953 13.5716C41.2507 13.627 41.3615 13.6639 41.5092 13.6824L42.0262 13.7193C42.3493 13.747 42.5802 13.8393 42.7279 14.0148C42.8571 14.1809 42.931 14.3933 42.931 14.6518C42.931 14.9565 42.8017 15.1873 42.5617 15.3442C42.3216 15.5104 42.017 15.5935 41.6477 15.6028C41.1399 15.6028 40.6875 15.4181 40.2812 15.0488L40.7152 14.6241C40.946 14.8918 41.2691 15.0211 41.6754 15.0211Z" fill="black"/>
<path d="M45.1098 12.9437H44.7959V12.4636H45.1098V12.0574C45.1098 11.762 45.1929 11.5404 45.3591 11.4019C45.516 11.2726 45.7192 11.208 45.9592 11.208H46.3654V11.7989H46.0054C45.8207 11.7897 45.7284 11.882 45.7376 12.0574V12.4636H46.3654V12.9437H45.7376V15.575H45.1098V12.9437Z" fill="black"/>
<path d="M46.5586 14.0148C46.5586 13.6916 46.5863 13.4331 46.6417 13.2577C46.6971 13.0823 46.7802 12.9438 46.9002 12.8238C46.9833 12.7222 47.1033 12.6299 47.2603 12.5468C47.408 12.4729 47.6019 12.4268 47.8419 12.4268C48.0912 12.4268 48.2851 12.4729 48.4328 12.5468C48.5805 12.6299 48.7006 12.7222 48.7837 12.8238C48.9037 12.9438 48.996 13.0823 49.0514 13.2577C49.0976 13.4331 49.1253 13.6824 49.1253 14.0148C49.1253 14.3379 49.0976 14.5872 49.0514 14.7626C48.996 14.938 48.9129 15.0857 48.7837 15.2058C48.7467 15.2519 48.6913 15.2981 48.6359 15.3442C48.5805 15.3904 48.5159 15.4366 48.4328 15.4735C48.2851 15.5566 48.082 15.6028 47.8419 15.612C47.6019 15.612 47.408 15.5658 47.2603 15.4735C47.1033 15.3996 46.9833 15.3073 46.9002 15.2058C46.7802 15.0765 46.6971 14.9288 46.6417 14.7626C46.5863 14.5964 46.5586 14.3471 46.5586 14.0148ZM48.4882 14.024C48.4882 13.8024 48.479 13.6455 48.4605 13.5439C48.4421 13.4423 48.3959 13.3592 48.3405 13.2854C48.2943 13.2115 48.2297 13.1654 48.1374 13.1192C48.0543 13.073 47.9527 13.0546 47.8419 13.0546C47.7404 13.0546 47.6388 13.073 47.5465 13.1192C47.4634 13.1561 47.3895 13.2115 47.3341 13.2854C47.2787 13.3592 47.2418 13.4423 47.2141 13.5439C47.1864 13.6455 47.1772 13.8024 47.1772 14.024C47.1772 14.2363 47.1864 14.3933 47.2141 14.4948C47.2418 14.5964 47.2787 14.6887 47.3341 14.7626C47.3895 14.818 47.4542 14.8734 47.5465 14.9195C47.6388 14.9657 47.7311 14.9842 47.8419 14.9842C47.9527 14.9842 48.0543 14.9657 48.1374 14.9195C48.2297 14.8734 48.2943 14.818 48.3405 14.7626C48.4051 14.6887 48.4421 14.5964 48.4605 14.4948C48.479 14.3933 48.4882 14.2363 48.4882 14.024Z" fill="black"/>
<path d="M49.7725 12.4637H50.4003V12.7961H50.4095C50.6126 12.5468 50.8804 12.4268 51.2127 12.4268C51.462 12.4268 51.6836 12.5098 51.8682 12.6668L51.4159 13.2115C51.2866 13.11 51.1481 13.0546 51.0096 13.0546C50.8527 13.0546 50.7142 13.11 50.6034 13.2115C50.4741 13.3131 50.4095 13.4793 50.4095 13.7008V15.5751H49.7817V12.4637H49.7725Z" fill="black"/>
<path d="M53.6865 11.208H55.2099C55.8008 11.208 56.244 11.4573 56.5394 11.9466C56.641 12.1128 56.7148 12.279 56.7425 12.4636C56.761 12.6391 56.7795 12.953 56.7795 13.3961C56.7795 13.867 56.761 14.1901 56.7241 14.3748C56.7056 14.4671 56.6871 14.5502 56.6502 14.6241C56.6133 14.6979 56.5763 14.7718 56.5302 14.8456C56.4009 15.0488 56.2255 15.2242 55.9947 15.3534C55.7731 15.5011 55.4961 15.5658 55.1637 15.5658H53.6865V11.208ZM54.342 14.9472H55.1361C55.5054 14.9472 55.7731 14.8179 55.9393 14.5687C56.0132 14.4763 56.0593 14.3563 56.0778 14.2086C56.0963 14.0701 56.1055 13.8024 56.1055 13.4146C56.1055 13.0361 56.0963 12.7683 56.0778 12.6021C56.0501 12.4359 55.9947 12.3067 55.9116 12.2051C55.7269 11.9558 55.4684 11.8266 55.1361 11.8358H54.342V14.9472Z" fill="black"/>
<path d="M57.5 11.208H58.1279V11.8358H57.5V11.208ZM57.5 12.4636H58.1279V15.5658H57.5V12.4636Z" fill="black"/>
<path d="M59.0502 12.9437H58.7363V12.4636H59.0502V12.0574C59.0502 11.762 59.1333 11.5404 59.2995 11.4019C59.4565 11.2726 59.6596 11.208 59.8997 11.208H60.3059V11.7989H59.9458C59.7612 11.7897 59.6688 11.882 59.6781 12.0574V12.4636H60.3059V12.9437H59.6781V15.575H59.0502V12.9437Z" fill="black"/>
<path d="M60.6479 12.9437H60.334V12.4636H60.6479V12.0574C60.6479 11.762 60.731 11.5404 60.8972 11.4019C61.0541 11.2726 61.2573 11.208 61.4973 11.208H61.9036V11.7989H61.5435C61.3588 11.7897 61.2665 11.882 61.2757 12.0574V12.4636H61.9036V12.9437H61.2757V15.575H60.6479V12.9437Z" fill="black"/>
<path d="M62.7162 14.2548C62.7162 14.5041 62.79 14.698 62.9285 14.8272C63.0578 14.9565 63.2332 15.0211 63.4548 15.0211C63.704 15.0211 63.9349 14.9195 64.138 14.7164L64.5904 15.1042C64.2765 15.4458 63.8979 15.612 63.4732 15.6028C63.307 15.6028 63.1501 15.5751 62.9931 15.5289C62.9193 15.5012 62.8362 15.4643 62.7623 15.4273C62.6885 15.3904 62.6146 15.3442 62.5407 15.2888C62.4115 15.1688 62.3007 15.0119 62.2176 14.8088C62.1253 14.6056 62.0791 14.3471 62.0791 14.0332C62.0791 13.7285 62.116 13.47 62.1991 13.2669C62.273 13.0638 62.3745 12.8976 62.4946 12.7776C62.6146 12.6576 62.7531 12.5652 62.91 12.5099C63.0578 12.4545 63.2147 12.4268 63.3624 12.4268C63.7133 12.4268 64.018 12.5468 64.2672 12.7776C64.5165 13.0084 64.6458 13.3315 64.6458 13.7378V14.2548H62.7162ZM64.0272 13.7378C64.018 13.4977 63.9533 13.3131 63.8333 13.1931C63.7133 13.073 63.5563 13.0176 63.3717 13.0176C63.187 13.0176 63.0301 13.073 62.91 13.1931C62.79 13.3131 62.7254 13.4977 62.7162 13.7378H64.0272Z" fill="black"/>
<path d="M65.3105 12.4637H65.9384V12.7961H65.9476C66.1507 12.5468 66.4185 12.4268 66.7508 12.4268C67.0001 12.4268 67.2217 12.5098 67.4064 12.6668L66.954 13.2115C66.8247 13.11 66.6862 13.0546 66.5477 13.0546C66.3908 13.0546 66.2523 13.11 66.1415 13.2115C66.0122 13.3131 65.9476 13.4793 65.9476 13.7008V15.5751H65.3198V12.4637H65.3105Z" fill="black"/>
<path d="M68.0619 14.2548C68.0619 14.5041 68.1357 14.698 68.2742 14.8272C68.4035 14.9565 68.5789 15.0211 68.8005 15.0211C69.0497 15.0211 69.2806 14.9195 69.4837 14.7164L69.9361 15.1042C69.6222 15.4458 69.2436 15.612 68.8189 15.6028C68.6527 15.6028 68.4958 15.5751 68.3388 15.5289C68.265 15.5012 68.1819 15.4643 68.108 15.4273C68.0342 15.3904 67.9603 15.3442 67.8864 15.2888C67.7572 15.1688 67.6464 15.0119 67.5633 14.8088C67.471 14.6056 67.4248 14.3471 67.4248 14.0332C67.4248 13.7285 67.4617 13.47 67.5448 13.2669C67.6187 13.0638 67.7202 12.8976 67.8403 12.7776C67.9603 12.6576 68.0988 12.5652 68.2557 12.5099C68.4035 12.4545 68.5604 12.4268 68.7081 12.4268C69.059 12.4268 69.3636 12.5468 69.6129 12.7776C69.8622 13.0084 69.9915 13.3315 69.9915 13.7378V14.2548H68.0619ZM69.3636 13.7378C69.3544 13.4977 69.2898 13.3131 69.1698 13.1931C69.0497 13.073 68.8928 13.0176 68.7081 13.0176C68.5235 13.0176 68.3665 13.073 68.2465 13.1931C68.1265 13.3131 68.0619 13.4977 68.0526 13.7378H69.3636Z" fill="black"/>
<path d="M70.6464 12.4637H71.2742V12.7961H71.2834C71.4866 12.5468 71.7543 12.4268 72.0867 12.4268C72.3452 12.4268 72.576 12.5191 72.7884 12.6945C73.0007 12.8792 73.1115 13.1469 73.1207 13.4977V15.5658H72.4929V13.7193C72.4929 13.4977 72.4375 13.3408 72.3175 13.2208C72.2067 13.1007 72.059 13.0453 71.8743 13.0453C71.6989 13.0453 71.5512 13.1007 71.4312 13.2208C71.3111 13.3315 71.2557 13.4977 71.2557 13.7193V15.5658H70.6279V12.4637H70.6464Z" fill="black"/>
<path d="M76.2231 15.0672C76.0846 15.2242 75.9276 15.3534 75.743 15.4458C75.5583 15.5473 75.346 15.6027 75.1059 15.6027C74.7366 15.6027 74.4135 15.4735 74.1365 15.2242C73.8503 14.9749 73.7026 14.5687 73.6934 14.0147C73.7026 13.4515 73.8503 13.0453 74.1365 12.7868C74.4135 12.5375 74.7366 12.4175 75.1059 12.4175C75.346 12.4175 75.5583 12.4729 75.743 12.5652C75.9276 12.6668 76.0846 12.796 76.2231 12.953L75.7614 13.3592C75.6045 13.1469 75.3921 13.0453 75.1336 13.0361C74.6074 13.0268 74.3304 13.35 74.3304 14.0055C74.3396 14.6518 74.6074 14.9749 75.1336 14.9657C75.4014 14.9657 75.6045 14.8549 75.7614 14.6425L76.2231 15.0672Z" fill="black"/>
<path d="M77.1283 14.2548C77.1283 14.5041 77.2021 14.698 77.3406 14.8272C77.4699 14.9565 77.6453 15.0211 77.8669 15.0211C78.1161 15.0211 78.3469 14.9195 78.5501 14.7164L79.0025 15.1042C78.6886 15.4458 78.31 15.612 77.8853 15.6028C77.7191 15.6028 77.5622 15.5751 77.4052 15.5289C77.3314 15.5012 77.2483 15.4643 77.1744 15.4273C77.1006 15.3904 77.0267 15.3442 76.9528 15.2888C76.8236 15.1688 76.7128 15.0119 76.6297 14.8088C76.5374 14.6056 76.4912 14.3471 76.4912 14.0332C76.4912 13.7285 76.5281 13.47 76.6112 13.2669C76.6851 13.0638 76.7867 12.8976 76.9067 12.7776C77.0267 12.6576 77.1652 12.5652 77.3221 12.5099C77.4699 12.4545 77.6268 12.4268 77.7745 12.4268C78.1254 12.4268 78.43 12.5468 78.6793 12.7776C78.9286 13.0084 79.0579 13.3315 79.0579 13.7378V14.2548H77.1283ZM78.4393 13.7378C78.43 13.4977 78.3654 13.3131 78.2454 13.1931C78.1254 13.073 77.9684 13.0176 77.7838 13.0176C77.5991 13.0176 77.4422 13.073 77.3221 13.1931C77.2021 13.3131 77.1375 13.4977 77.1283 13.7378H78.4393Z" fill="black"/>
</svg>
