<svg width="19" height="19" viewBox="0 0 19 19" fill="none" xmlns="http://www.w3.org/2000/svg">
<path d="M18.2771 11.012V8.59036L16.1265 8.40964C15.9819 7.61446 15.6747 6.87349 15.2771 6.20482L16.7229 4.50602L15.006 2.78916L13.3614 4.18072C12.7108 3.74699 11.988 3.42169 11.2108 3.22289L11.012 1H8.57229L8.39157 3.1506C7.59639 3.29518 6.85542 3.58434 6.18675 4L4.48795 2.55422L2.77108 4.27108L4.16265 5.91566C3.72892 6.56626 3.40361 7.28916 3.20482 8.06626L1 8.28313V10.7048L3.1506 10.8855C3.29518 11.6807 3.58434 12.4217 4 13.0904L2.55422 14.7892L4.27108 16.506L5.91566 15.1145C6.56626 15.5482 7.28916 15.8735 8.06626 16.0723L8.24699 18.2952H10.6687L10.8494 16.1446C11.6446 16 12.3855 15.6928 13.0542 15.2952L14.753 16.741L16.4699 15.0241L15.0964 13.3434C15.5301 12.6928 15.8554 11.9699 16.0542 11.1928L18.2771 11.012Z" stroke="#fff"/>
<path d="M13.9401 8.77114C13.6148 7.01813 12.2413 5.64464 10.4883 5.31934V8.77114H13.9401Z" stroke="#fff" stroke-miterlimit="10"/>
<path d="M8.87957 5.31934C6.87354 5.69885 5.35547 7.46994 5.35547 9.5844C5.35547 10.488 5.62655 11.3374 6.11451 12.0242L8.87957 9.2591V5.31934Z" stroke="#fff" stroke-miterlimit="10"/>
<path d="M7.25293 13.1447C7.93968 13.6146 8.78907 13.9037 9.69269 13.9037C11.8071 13.9037 13.5602 12.3857 13.9397 10.3796H10.018L7.25293 13.1447Z" stroke="#fff" stroke-miterlimit="10"/>
</svg>
