<svg width="18" height="18" viewBox="0 0 18 18" fill="none" xmlns="http://www.w3.org/2000/svg">
<path d="M17 9C17 13.4308 13.4062 17 9 17C4.56923 17 1 13.4062 1 9C1 4.56923 4.59385 1 9 1C13.4308 1 17 4.59385 17 9Z" stroke="#fff"/>
<path d="M13.6275 9C13.6275 13.4308 11.5598 17 8.99976 17C6.43976 17 4.37207 13.4062 4.37207 9C4.37207 4.56923 6.43976 1 8.99976 1C11.5598 1 13.6275 4.59385 13.6275 9Z" stroke="#fff"/>
<path d="M9 17C13.4308 17 17 13.4062 17 9C17 4.56923 13.4062 1 9 1V17Z" stroke="#fff"/>
<path d="M1 8.99996C1 9.98457 1.19692 10.9446 1.51692 11.8307H16.4831C16.8031 10.9446 17 10.0092 17 8.99996C17 8.01534 16.8031 7.05534 16.4831 6.16919H1.51692C1.19692 7.05534 1 8.01534 1 8.99996Z" stroke="#fff"/>
</svg>
