<svg width="18" height="17" viewBox="0 0 18 17" fill="none" xmlns="http://www.w3.org/2000/svg">
<path d="M14.9551 4.82837C15.2986 5.54821 15.4786 6.33348 15.4786 7.1842V12.2885" stroke="#fff"/>
<path d="M7.93663 16.1983C4.91004 16.1983 2.45605 15.3148 2.45605 12.2883V7.18396C2.45605 6.33324 2.65237 5.51525 2.99593 4.79541" stroke="#fff"/>
<path d="M9.26183 15.6583C9.26183 15.9528 9.01643 16.1982 8.72195 16.1982H7.49496C7.20048 16.1982 6.95508 15.9528 6.95508 15.6583C6.95508 15.3638 7.20048 15.1184 7.49496 15.1184H8.72195C9.01643 15.1184 9.26183 15.3474 9.26183 15.6583Z" stroke="#fff"/>
<path d="M14.71 5.05726C14.4646 5.05726 14.2356 4.94274 14.1047 4.7137C13.2376 3.27403 11.6998 2.40695 10.0147 2.40695H7.93699C6.25192 2.40695 4.73045 3.27403 3.84701 4.7137C3.6507 5.0409 3.20898 5.15542 2.88178 4.9591C2.55458 4.76278 2.44006 4.32106 2.63638 3.99386C3.78158 2.11247 5.74477 1 7.93699 1H10.0147C12.1906 1 14.1701 2.11247 15.299 3.97751C15.4953 4.3047 15.3971 4.74642 15.0536 4.94274C14.9554 5.02454 14.8245 5.05726 14.71 5.05726Z" stroke="#fff"/>
<path d="M2.75051 7.49487C1.78528 7.49487 1 8.28015 1 9.24538V11.4213C1 12.3865 1.78528 13.1718 2.75051 13.1718" stroke="#fff"/>
<path d="M4.33719 13.0246C4.33719 13.3518 4.07544 13.6135 3.74824 13.6135H3.09384C2.76664 13.6135 2.50488 13.3518 2.50488 13.0246V7.65854C2.50488 7.33134 2.76664 7.06958 3.09384 7.06958H3.74824C4.07544 7.06958 4.33719 7.33134 4.33719 7.65854V13.0246Z" stroke="#fff"/>
<path d="M15.25 13.2045C16.2152 13.2045 17.0005 12.4192 17.0005 11.454V9.2781C17.0005 8.31286 16.2152 7.52759 15.25 7.52759" stroke="#fff"/>
<path d="M13.6631 7.65854C13.6631 7.33134 13.9248 7.06958 14.252 7.06958H14.9064C15.2336 7.06958 15.4954 7.33134 15.4954 7.65854V13.0246C15.4954 13.3518 15.2336 13.6135 14.9064 13.6135H14.252C13.9248 13.6135 13.6631 13.3518 13.6631 13.0246V7.65854Z" stroke="#fff"/>
</svg>
