<svg width="20" height="20" viewBox="0 0 20 20" fill="none" xmlns="http://www.w3.org/2000/svg">
<path d="M10 4.14062C6.76934 4.14062 4.14062 6.76934 4.14062 10C4.14062 13.2307 6.76934 15.8594 10 15.8594C13.2307 15.8594 15.8594 13.2307 15.8594 10C15.8594 6.76934 13.2307 4.14062 10 4.14062Z" fill="#585960"/>
<path d="M16.082 13.5156C15.4727 14.582 14.5704 15.4726 13.5039 16.0938L17.0312 17.043L16.082 13.5156Z" fill="#585960"/>
<path d="M9.99996 0L8.19531 3.2148C8.76953 3.05078 9.37883 2.96875 9.99996 2.96875C10.6211 2.96875 11.2304 3.05078 11.8046 3.2148L9.99996 0Z" fill="#585960"/>
<path d="M2.96875 2.96875L3.91797 6.48438C4.52738 5.41793 5.40629 4.53902 6.47266 3.91797L2.96875 2.96875Z" fill="#585960"/>
<path d="M3.21484 8.18359L0.0117188 10L3.21484 11.8164C3.05078 11.2422 2.96871 10.6328 2.96871 10C2.96871 9.36715 3.05074 8.75781 3.21484 8.18359Z" fill="#585960"/>
<path d="M3.91797 13.5156L2.96875 17.043L6.49609 16.0938C5.42969 15.4726 4.52738 14.582 3.91797 13.5156Z" fill="#585960"/>
<path d="M10 17.0313C9.36723 17.0313 8.75781 16.9493 8.17188 16.7852L10 20L11.8281 16.7852C11.2422 16.9492 10.6328 17.0313 10 17.0313Z" fill="#585960"/>
<path d="M13.5215 3.9239C14.5816 4.54089 15.4651 5.42507 16.0806 6.48625L17.0348 2.97046L13.5215 3.9239Z" fill="#585960"/>
<path d="M19.9889 10.0057L16.7877 8.1936C16.9416 8.77118 17.0316 9.37458 17.0316 10C17.0316 10.6303 16.9405 11.2384 16.7842 11.8201L19.9889 10.0057Z" fill="#585960"/>
</svg>
