<svg width="17" height="20" viewBox="0 0 17 20" fill="none" xmlns="http://www.w3.org/2000/svg">
<path d="M15.9628 17.6724C15.9137 17.5994 15.8348 17.5517 15.7473 17.5423H15.7074C10.5169 17.5478 6.30474 13.3446 6.29923 8.15409C6.29603 5.14537 7.73353 2.31699 10.1659 0.546169C10.3029 0.454529 10.3396 0.269255 10.2479 0.132347C10.1921 0.049005 10.0982 -0.000727177 9.99789 8.03959e-06L10 0.00210866C4.47773 0.00153099 0.000577726 4.47774 5.59064e-08 10C-0.000577614 15.5223 4.47563 19.9994 9.99789 20C12.1122 20.0002 14.1721 19.3303 15.8817 18.0863C16.0184 17.9944 16.0547 17.8091 15.9628 17.6724Z" fill="#808190"/>
<path d="M12.7537 11.7295C12.7181 11.6992 12.6758 11.6778 12.6304 11.6668L12.6283 11.6626L11.8216 11.4693L11.3889 10.7677C11.3036 10.6268 11.1202 10.5816 10.9793 10.6669C10.938 10.6918 10.9034 10.7264 10.8785 10.7677L10.4415 11.4693L9.6475 11.6626C9.4857 11.6936 9.37967 11.8499 9.41065 12.0117C9.42042 12.0628 9.44342 12.1104 9.47735 12.1499L10.0151 12.7801L9.95209 13.6077C9.93743 13.7719 10.0585 13.9167 10.2226 13.9314C10.2738 13.936 10.3254 13.9273 10.3722 13.906L11.141 13.5909L11.8931 13.8997C12.0432 13.9674 12.2199 13.9005 12.2875 13.7503C12.3077 13.7056 12.3165 13.6566 12.3132 13.6077L12.2502 12.7801L12.7879 12.1499C12.8946 12.0244 12.8793 11.8361 12.7537 11.7295Z" fill="#808190"/>
<path d="M14.0498 4.11676C14.0141 4.08645 13.9719 4.06503 13.9264 4.05405L13.9306 4.06456L12.5526 3.72846L11.809 2.5248C11.7237 2.38385 11.5403 2.33869 11.3994 2.42398C11.3581 2.44892 11.3235 2.48353 11.2985 2.5248L10.5528 3.73266L9.18739 4.06666C9.02648 4.10205 8.92476 4.26117 8.96016 4.42208C8.96935 4.46378 8.98736 4.50306 9.01304 4.53719L9.93102 5.61901L9.82388 7.03482C9.80923 7.19894 9.93033 7.34382 10.0944 7.35848C10.1456 7.36305 10.1972 7.35433 10.244 7.33311L11.5569 6.79535L12.853 7.32681C13.0032 7.39445 13.1798 7.32754 13.2475 7.17735C13.2676 7.13266 13.2764 7.08372 13.2731 7.03482L13.166 5.61901L14.084 4.53719C14.1906 4.41163 14.1753 4.22341 14.0498 4.11676Z" fill="#808190"/>
<path d="M16.7155 8.94629C16.6799 8.91598 16.6376 8.89456 16.5922 8.88358L16.5838 8.87938L15.9536 8.72814L15.6196 8.18618C15.5343 8.04523 15.3509 8.00007 15.21 8.08535C15.1687 8.1103 15.1341 8.1449 15.1091 8.18618L14.7793 8.73864L14.1702 8.88778C14.0087 8.92029 13.9041 9.07752 13.9366 9.23906C13.9461 9.28669 13.9672 9.33122 13.9979 9.36882L14.418 9.85826L14.3697 10.4884C14.3551 10.6526 14.4762 10.7974 14.6403 10.8121C14.6915 10.8167 14.743 10.8079 14.7899 10.7867L15.3822 10.5431L15.9578 10.7783C16.108 10.846 16.2846 10.7791 16.3523 10.6289C16.3724 10.5842 16.3812 10.5352 16.3779 10.4863L16.3296 9.85616L16.7497 9.36672C16.8564 9.24116 16.8411 9.05294 16.7155 8.94629Z" fill="#808190"/>
</svg>
